<?xml version="1.0" encoding="utf-8" standalone="no"?>
<!DOCTYPE svg PUBLIC "-//W3C//DTD SVG 1.1//EN"
  "http://www.w3.org/Graphics/SVG/1.1/DTD/svg11.dtd">
<svg xmlns:xlink="http://www.w3.org/1999/xlink" width="460.8pt" height="345.6pt" viewBox="0 0 460.8 345.6" xmlns="http://www.w3.org/2000/svg" version="1.1">
 <metadata>
  <rdf:RDF xmlns:dc="http://purl.org/dc/elements/1.1/" xmlns:cc="http://creativecommons.org/ns#" xmlns:rdf="http://www.w3.org/1999/02/22-rdf-syntax-ns#">
   <cc:Work>
    <dc:type rdf:resource="http://purl.org/dc/dcmitype/StillImage"/>
    <dc:date>2023-12-01T01:52:44.361861</dc:date>
    <dc:format>image/svg+xml</dc:format>
    <dc:creator>
     <cc:Agent>
      <dc:title>Matplotlib v3.8.0, https://matplotlib.org/</dc:title>
     </cc:Agent>
    </dc:creator>
   </cc:Work>
  </rdf:RDF>
 </metadata>
 <defs>
  <style type="text/css">*{stroke-linejoin: round; stroke-linecap: butt}</style>
 </defs>
 <g id="figure_1">
  <g id="patch_1">
   <path d="M 0 345.6 
L 460.8 345.6 
L 460.8 0 
L 0 0 
z
" style="fill: #ffffff"/>
  </g>
  <g id="axes_1">
   <g id="patch_2">
    <path d="M 75.45 275.7 
L 427.59 275.7 
L 427.59 25.2 
L 75.45 25.2 
z
" style="fill: #ffffff"/>
   </g>
   <g id="matplotlib.axis_1">
    <g id="xtick_1">
     <g id="line2d_1">
      <path d="M 75.45 275.7 
L 75.45 25.2 
" clip-path="url(#pa5dbf904d1)" style="fill: none; stroke: #cccccc; stroke-width: 0.4; stroke-linecap: round"/>
     </g>
     <g id="text_1">
      <!-- 0 -->
      <g style="fill: #262626" transform="translate(70.862227 303.010391) scale(0.165 -0.165)">
       <defs>
        <path id="ArialMT-30" d="M 266 2259 
Q 266 3072 433 3567 
Q 600 4063 929 4331 
Q 1259 4600 1759 4600 
Q 2128 4600 2406 4451 
Q 2684 4303 2865 4023 
Q 3047 3744 3150 3342 
Q 3253 2941 3253 2259 
Q 3253 1453 3087 958 
Q 2922 463 2592 192 
Q 2263 -78 1759 -78 
Q 1097 -78 719 397 
Q 266 969 266 2259 
z
M 844 2259 
Q 844 1131 1108 757 
Q 1372 384 1759 384 
Q 2147 384 2411 759 
Q 2675 1134 2675 2259 
Q 2675 3391 2411 3762 
Q 2147 4134 1753 4134 
Q 1366 4134 1134 3806 
Q 844 3388 844 2259 
z
" transform="scale(0.015625)"/>
       </defs>
       <use xlink:href="#ArialMT-30"/>
      </g>
     </g>
    </g>
    <g id="xtick_2">
     <g id="line2d_2">
      <path d="M 114.576667 275.7 
L 114.576667 25.2 
" clip-path="url(#pa5dbf904d1)" style="fill: none; stroke: #cccccc; stroke-width: 0.4; stroke-linecap: round"/>
     </g>
     <g id="text_2">
      <!-- 20 -->
      <g style="fill: #262626" transform="translate(105.40112 303.010391) scale(0.165 -0.165)">
       <defs>
        <path id="ArialMT-32" d="M 3222 541 
L 3222 0 
L 194 0 
Q 188 203 259 391 
Q 375 700 629 1000 
Q 884 1300 1366 1694 
Q 2113 2306 2375 2664 
Q 2638 3022 2638 3341 
Q 2638 3675 2398 3904 
Q 2159 4134 1775 4134 
Q 1369 4134 1125 3890 
Q 881 3647 878 3216 
L 300 3275 
Q 359 3922 746 4261 
Q 1134 4600 1788 4600 
Q 2447 4600 2831 4234 
Q 3216 3869 3216 3328 
Q 3216 3053 3103 2787 
Q 2991 2522 2730 2228 
Q 2469 1934 1863 1422 
Q 1356 997 1212 845 
Q 1069 694 975 541 
L 3222 541 
z
" transform="scale(0.015625)"/>
       </defs>
       <use xlink:href="#ArialMT-32"/>
       <use xlink:href="#ArialMT-30" x="55.615234"/>
      </g>
     </g>
    </g>
    <g id="xtick_3">
     <g id="line2d_3">
      <path d="M 153.703333 275.7 
L 153.703333 25.2 
" clip-path="url(#pa5dbf904d1)" style="fill: none; stroke: #cccccc; stroke-width: 0.4; stroke-linecap: round"/>
     </g>
     <g id="text_3">
      <!-- 40 -->
      <g style="fill: #262626" transform="translate(144.527786 303.010391) scale(0.165 -0.165)">
       <defs>
        <path id="ArialMT-34" d="M 2069 0 
L 2069 1097 
L 81 1097 
L 81 1613 
L 2172 4581 
L 2631 4581 
L 2631 1613 
L 3250 1613 
L 3250 1097 
L 2631 1097 
L 2631 0 
L 2069 0 
z
M 2069 1613 
L 2069 3678 
L 634 1613 
L 2069 1613 
z
" transform="scale(0.015625)"/>
       </defs>
       <use xlink:href="#ArialMT-34"/>
       <use xlink:href="#ArialMT-30" x="55.615234"/>
      </g>
     </g>
    </g>
    <g id="xtick_4">
     <g id="line2d_4">
      <path d="M 192.83 275.7 
L 192.83 25.2 
" clip-path="url(#pa5dbf904d1)" style="fill: none; stroke: #cccccc; stroke-width: 0.4; stroke-linecap: round"/>
     </g>
     <g id="text_4">
      <!-- 60 -->
      <g style="fill: #262626" transform="translate(183.654453 303.010391) scale(0.165 -0.165)">
       <defs>
        <path id="ArialMT-36" d="M 3184 3459 
L 2625 3416 
Q 2550 3747 2413 3897 
Q 2184 4138 1850 4138 
Q 1581 4138 1378 3988 
Q 1113 3794 959 3422 
Q 806 3050 800 2363 
Q 1003 2672 1297 2822 
Q 1591 2972 1913 2972 
Q 2475 2972 2870 2558 
Q 3266 2144 3266 1488 
Q 3266 1056 3080 686 
Q 2894 316 2569 119 
Q 2244 -78 1831 -78 
Q 1128 -78 684 439 
Q 241 956 241 2144 
Q 241 3472 731 4075 
Q 1159 4600 1884 4600 
Q 2425 4600 2770 4297 
Q 3116 3994 3184 3459 
z
M 888 1484 
Q 888 1194 1011 928 
Q 1134 663 1356 523 
Q 1578 384 1822 384 
Q 2178 384 2434 671 
Q 2691 959 2691 1453 
Q 2691 1928 2437 2201 
Q 2184 2475 1800 2475 
Q 1419 2475 1153 2201 
Q 888 1928 888 1484 
z
" transform="scale(0.015625)"/>
       </defs>
       <use xlink:href="#ArialMT-36"/>
       <use xlink:href="#ArialMT-30" x="55.615234"/>
      </g>
     </g>
    </g>
    <g id="xtick_5">
     <g id="line2d_5">
      <path d="M 231.956667 275.7 
L 231.956667 25.2 
" clip-path="url(#pa5dbf904d1)" style="fill: none; stroke: #cccccc; stroke-width: 0.4; stroke-linecap: round"/>
     </g>
     <g id="text_5">
      <!-- 80 -->
      <g style="fill: #262626" transform="translate(222.78112 303.010391) scale(0.165 -0.165)">
       <defs>
        <path id="ArialMT-38" d="M 1131 2484 
Q 781 2613 612 2850 
Q 444 3088 444 3419 
Q 444 3919 803 4259 
Q 1163 4600 1759 4600 
Q 2359 4600 2725 4251 
Q 3091 3903 3091 3403 
Q 3091 3084 2923 2848 
Q 2756 2613 2416 2484 
Q 2838 2347 3058 2040 
Q 3278 1734 3278 1309 
Q 3278 722 2862 322 
Q 2447 -78 1769 -78 
Q 1091 -78 675 323 
Q 259 725 259 1325 
Q 259 1772 486 2073 
Q 713 2375 1131 2484 
z
M 1019 3438 
Q 1019 3113 1228 2906 
Q 1438 2700 1772 2700 
Q 2097 2700 2305 2904 
Q 2513 3109 2513 3406 
Q 2513 3716 2298 3927 
Q 2084 4138 1766 4138 
Q 1444 4138 1231 3931 
Q 1019 3725 1019 3438 
z
M 838 1322 
Q 838 1081 952 856 
Q 1066 631 1291 507 
Q 1516 384 1775 384 
Q 2178 384 2440 643 
Q 2703 903 2703 1303 
Q 2703 1709 2433 1975 
Q 2163 2241 1756 2241 
Q 1359 2241 1098 1978 
Q 838 1716 838 1322 
z
" transform="scale(0.015625)"/>
       </defs>
       <use xlink:href="#ArialMT-38"/>
       <use xlink:href="#ArialMT-30" x="55.615234"/>
      </g>
     </g>
    </g>
    <g id="xtick_6">
     <g id="line2d_6">
      <path d="M 271.083333 275.7 
L 271.083333 25.2 
" clip-path="url(#pa5dbf904d1)" style="fill: none; stroke: #cccccc; stroke-width: 0.4; stroke-linecap: round"/>
     </g>
     <g id="text_6">
      <!-- 100 -->
      <g style="fill: #262626" transform="translate(257.320013 303.010391) scale(0.165 -0.165)">
       <defs>
        <path id="ArialMT-31" d="M 2384 0 
L 1822 0 
L 1822 3584 
Q 1619 3391 1289 3197 
Q 959 3003 697 2906 
L 697 3450 
Q 1169 3672 1522 3987 
Q 1875 4303 2022 4600 
L 2384 4600 
L 2384 0 
z
" transform="scale(0.015625)"/>
       </defs>
       <use xlink:href="#ArialMT-31"/>
       <use xlink:href="#ArialMT-30" x="55.615234"/>
       <use xlink:href="#ArialMT-30" x="111.230469"/>
      </g>
     </g>
    </g>
    <g id="xtick_7">
     <g id="line2d_7">
      <path d="M 310.21 275.7 
L 310.21 25.2 
" clip-path="url(#pa5dbf904d1)" style="fill: none; stroke: #cccccc; stroke-width: 0.4; stroke-linecap: round"/>
     </g>
     <g id="text_7">
      <!-- 120 -->
      <g style="fill: #262626" transform="translate(296.44668 303.010391) scale(0.165 -0.165)">
       <use xlink:href="#ArialMT-31"/>
       <use xlink:href="#ArialMT-32" x="55.615234"/>
       <use xlink:href="#ArialMT-30" x="111.230469"/>
      </g>
     </g>
    </g>
    <g id="xtick_8">
     <g id="line2d_8">
      <path d="M 349.336667 275.7 
L 349.336667 25.2 
" clip-path="url(#pa5dbf904d1)" style="fill: none; stroke: #cccccc; stroke-width: 0.4; stroke-linecap: round"/>
     </g>
     <g id="text_8">
      <!-- 140 -->
      <g style="fill: #262626" transform="translate(335.573346 303.010391) scale(0.165 -0.165)">
       <use xlink:href="#ArialMT-31"/>
       <use xlink:href="#ArialMT-34" x="55.615234"/>
       <use xlink:href="#ArialMT-30" x="111.230469"/>
      </g>
     </g>
    </g>
    <g id="xtick_9">
     <g id="line2d_9">
      <path d="M 388.463333 275.7 
L 388.463333 25.2 
" clip-path="url(#pa5dbf904d1)" style="fill: none; stroke: #cccccc; stroke-width: 0.4; stroke-linecap: round"/>
     </g>
     <g id="text_9">
      <!-- 160 -->
      <g style="fill: #262626" transform="translate(374.700013 303.010391) scale(0.165 -0.165)">
       <use xlink:href="#ArialMT-31"/>
       <use xlink:href="#ArialMT-36" x="55.615234"/>
       <use xlink:href="#ArialMT-30" x="111.230469"/>
      </g>
     </g>
    </g>
    <g id="xtick_10">
     <g id="line2d_10">
      <path d="M 427.59 275.7 
L 427.59 25.2 
" clip-path="url(#pa5dbf904d1)" style="fill: none; stroke: #cccccc; stroke-width: 0.4; stroke-linecap: round"/>
     </g>
     <g id="text_10">
      <!-- 180 -->
      <g style="fill: #262626" transform="translate(413.82668 303.010391) scale(0.165 -0.165)">
       <use xlink:href="#ArialMT-31"/>
       <use xlink:href="#ArialMT-38" x="55.615234"/>
       <use xlink:href="#ArialMT-30" x="111.230469"/>
      </g>
     </g>
    </g>
    <g id="xtick_11">
     <g id="line2d_11">
      <path d="M 95.013333 275.7 
L 95.013333 25.2 
" clip-path="url(#pa5dbf904d1)" style="fill: none; stroke-dasharray: 0.2,0.33; stroke-dashoffset: 0; stroke: #cccccc; stroke-width: 0.2"/>
     </g>
    </g>
    <g id="xtick_12">
     <g id="line2d_12">
      <path d="M 134.14 275.7 
L 134.14 25.2 
" clip-path="url(#pa5dbf904d1)" style="fill: none; stroke-dasharray: 0.2,0.33; stroke-dashoffset: 0; stroke: #cccccc; stroke-width: 0.2"/>
     </g>
    </g>
    <g id="xtick_13">
     <g id="line2d_13">
      <path d="M 173.266667 275.7 
L 173.266667 25.2 
" clip-path="url(#pa5dbf904d1)" style="fill: none; stroke-dasharray: 0.2,0.33; stroke-dashoffset: 0; stroke: #cccccc; stroke-width: 0.2"/>
     </g>
    </g>
    <g id="xtick_14">
     <g id="line2d_14">
      <path d="M 212.393333 275.7 
L 212.393333 25.2 
" clip-path="url(#pa5dbf904d1)" style="fill: none; stroke-dasharray: 0.2,0.33; stroke-dashoffset: 0; stroke: #cccccc; stroke-width: 0.2"/>
     </g>
    </g>
    <g id="xtick_15">
     <g id="line2d_15">
      <path d="M 251.52 275.7 
L 251.52 25.2 
" clip-path="url(#pa5dbf904d1)" style="fill: none; stroke-dasharray: 0.2,0.33; stroke-dashoffset: 0; stroke: #cccccc; stroke-width: 0.2"/>
     </g>
    </g>
    <g id="xtick_16">
     <g id="line2d_16">
      <path d="M 290.646667 275.7 
L 290.646667 25.2 
" clip-path="url(#pa5dbf904d1)" style="fill: none; stroke-dasharray: 0.2,0.33; stroke-dashoffset: 0; stroke: #cccccc; stroke-width: 0.2"/>
     </g>
    </g>
    <g id="xtick_17">
     <g id="line2d_17">
      <path d="M 329.773333 275.7 
L 329.773333 25.2 
" clip-path="url(#pa5dbf904d1)" style="fill: none; stroke-dasharray: 0.2,0.33; stroke-dashoffset: 0; stroke: #cccccc; stroke-width: 0.2"/>
     </g>
    </g>
    <g id="xtick_18">
     <g id="line2d_18">
      <path d="M 368.9 275.7 
L 368.9 25.2 
" clip-path="url(#pa5dbf904d1)" style="fill: none; stroke-dasharray: 0.2,0.33; stroke-dashoffset: 0; stroke: #cccccc; stroke-width: 0.2"/>
     </g>
    </g>
    <g id="xtick_19">
     <g id="line2d_19">
      <path d="M 408.026667 275.7 
L 408.026667 25.2 
" clip-path="url(#pa5dbf904d1)" style="fill: none; stroke-dasharray: 0.2,0.33; stroke-dashoffset: 0; stroke: #cccccc; stroke-width: 0.2"/>
     </g>
    </g>
    <g id="text_11">
     <!-- Angle (degrees) -->
     <g style="fill: #262626" transform="translate(187.487813 323.393203) scale(0.18 -0.18)">
      <defs>
       <path id="ArialMT-41" d="M -9 0 
L 1750 4581 
L 2403 4581 
L 4278 0 
L 3588 0 
L 3053 1388 
L 1138 1388 
L 634 0 
L -9 0 
z
M 1313 1881 
L 2866 1881 
L 2388 3150 
Q 2169 3728 2063 4100 
Q 1975 3659 1816 3225 
L 1313 1881 
z
" transform="scale(0.015625)"/>
       <path id="ArialMT-6e" d="M 422 0 
L 422 3319 
L 928 3319 
L 928 2847 
Q 1294 3394 1984 3394 
Q 2284 3394 2536 3286 
Q 2788 3178 2913 3003 
Q 3038 2828 3088 2588 
Q 3119 2431 3119 2041 
L 3119 0 
L 2556 0 
L 2556 2019 
Q 2556 2363 2490 2533 
Q 2425 2703 2258 2804 
Q 2091 2906 1866 2906 
Q 1506 2906 1245 2678 
Q 984 2450 984 1813 
L 984 0 
L 422 0 
z
" transform="scale(0.015625)"/>
       <path id="ArialMT-67" d="M 319 -275 
L 866 -356 
Q 900 -609 1056 -725 
Q 1266 -881 1628 -881 
Q 2019 -881 2231 -725 
Q 2444 -569 2519 -288 
Q 2563 -116 2559 434 
Q 2191 0 1641 0 
Q 956 0 581 494 
Q 206 988 206 1678 
Q 206 2153 378 2554 
Q 550 2956 876 3175 
Q 1203 3394 1644 3394 
Q 2231 3394 2613 2919 
L 2613 3319 
L 3131 3319 
L 3131 450 
Q 3131 -325 2973 -648 
Q 2816 -972 2473 -1159 
Q 2131 -1347 1631 -1347 
Q 1038 -1347 672 -1080 
Q 306 -813 319 -275 
z
M 784 1719 
Q 784 1066 1043 766 
Q 1303 466 1694 466 
Q 2081 466 2343 764 
Q 2606 1063 2606 1700 
Q 2606 2309 2336 2618 
Q 2066 2928 1684 2928 
Q 1309 2928 1046 2623 
Q 784 2319 784 1719 
z
" transform="scale(0.015625)"/>
       <path id="ArialMT-6c" d="M 409 0 
L 409 4581 
L 972 4581 
L 972 0 
L 409 0 
z
" transform="scale(0.015625)"/>
       <path id="ArialMT-65" d="M 2694 1069 
L 3275 997 
Q 3138 488 2766 206 
Q 2394 -75 1816 -75 
Q 1088 -75 661 373 
Q 234 822 234 1631 
Q 234 2469 665 2931 
Q 1097 3394 1784 3394 
Q 2450 3394 2872 2941 
Q 3294 2488 3294 1666 
Q 3294 1616 3291 1516 
L 816 1516 
Q 847 969 1125 678 
Q 1403 388 1819 388 
Q 2128 388 2347 550 
Q 2566 713 2694 1069 
z
M 847 1978 
L 2700 1978 
Q 2663 2397 2488 2606 
Q 2219 2931 1791 2931 
Q 1403 2931 1139 2672 
Q 875 2413 847 1978 
z
" transform="scale(0.015625)"/>
       <path id="ArialMT-20" transform="scale(0.015625)"/>
       <path id="ArialMT-28" d="M 1497 -1347 
Q 1031 -759 709 28 
Q 388 816 388 1659 
Q 388 2403 628 3084 
Q 909 3875 1497 4659 
L 1900 4659 
Q 1522 4009 1400 3731 
Q 1209 3300 1100 2831 
Q 966 2247 966 1656 
Q 966 153 1900 -1347 
L 1497 -1347 
z
" transform="scale(0.015625)"/>
       <path id="ArialMT-64" d="M 2575 0 
L 2575 419 
Q 2259 -75 1647 -75 
Q 1250 -75 917 144 
Q 584 363 401 755 
Q 219 1147 219 1656 
Q 219 2153 384 2558 
Q 550 2963 881 3178 
Q 1213 3394 1622 3394 
Q 1922 3394 2156 3267 
Q 2391 3141 2538 2938 
L 2538 4581 
L 3097 4581 
L 3097 0 
L 2575 0 
z
M 797 1656 
Q 797 1019 1065 703 
Q 1334 388 1700 388 
Q 2069 388 2326 689 
Q 2584 991 2584 1609 
Q 2584 2291 2321 2609 
Q 2059 2928 1675 2928 
Q 1300 2928 1048 2622 
Q 797 2316 797 1656 
z
" transform="scale(0.015625)"/>
       <path id="ArialMT-72" d="M 416 0 
L 416 3319 
L 922 3319 
L 922 2816 
Q 1116 3169 1280 3281 
Q 1444 3394 1641 3394 
Q 1925 3394 2219 3213 
L 2025 2691 
Q 1819 2813 1613 2813 
Q 1428 2813 1281 2702 
Q 1134 2591 1072 2394 
Q 978 2094 978 1738 
L 978 0 
L 416 0 
z
" transform="scale(0.015625)"/>
       <path id="ArialMT-73" d="M 197 991 
L 753 1078 
Q 800 744 1014 566 
Q 1228 388 1613 388 
Q 2000 388 2187 545 
Q 2375 703 2375 916 
Q 2375 1106 2209 1216 
Q 2094 1291 1634 1406 
Q 1016 1563 777 1677 
Q 538 1791 414 1992 
Q 291 2194 291 2438 
Q 291 2659 392 2848 
Q 494 3038 669 3163 
Q 800 3259 1026 3326 
Q 1253 3394 1513 3394 
Q 1903 3394 2198 3281 
Q 2494 3169 2634 2976 
Q 2775 2784 2828 2463 
L 2278 2388 
Q 2241 2644 2061 2787 
Q 1881 2931 1553 2931 
Q 1166 2931 1000 2803 
Q 834 2675 834 2503 
Q 834 2394 903 2306 
Q 972 2216 1119 2156 
Q 1203 2125 1616 2013 
Q 2213 1853 2448 1751 
Q 2684 1650 2818 1456 
Q 2953 1263 2953 975 
Q 2953 694 2789 445 
Q 2625 197 2315 61 
Q 2006 -75 1616 -75 
Q 969 -75 630 194 
Q 291 463 197 991 
z
" transform="scale(0.015625)"/>
       <path id="ArialMT-29" d="M 791 -1347 
L 388 -1347 
Q 1322 153 1322 1656 
Q 1322 2244 1188 2822 
Q 1081 3291 891 3722 
Q 769 4003 388 4659 
L 791 4659 
Q 1378 3875 1659 3084 
Q 1900 2403 1900 1659 
Q 1900 816 1576 28 
Q 1253 -759 791 -1347 
z
" transform="scale(0.015625)"/>
      </defs>
      <use xlink:href="#ArialMT-41"/>
      <use xlink:href="#ArialMT-6e" x="66.699219"/>
      <use xlink:href="#ArialMT-67" x="122.314453"/>
      <use xlink:href="#ArialMT-6c" x="177.929688"/>
      <use xlink:href="#ArialMT-65" x="200.146484"/>
      <use xlink:href="#ArialMT-20" x="255.761719"/>
      <use xlink:href="#ArialMT-28" x="283.544922"/>
      <use xlink:href="#ArialMT-64" x="316.845703"/>
      <use xlink:href="#ArialMT-65" x="372.460938"/>
      <use xlink:href="#ArialMT-67" x="428.076172"/>
      <use xlink:href="#ArialMT-72" x="483.691406"/>
      <use xlink:href="#ArialMT-65" x="516.992188"/>
      <use xlink:href="#ArialMT-65" x="572.607422"/>
      <use xlink:href="#ArialMT-73" x="628.222656"/>
      <use xlink:href="#ArialMT-29" x="678.222656"/>
     </g>
    </g>
   </g>
   <g id="matplotlib.axis_2">
    <g id="ytick_1">
     <g id="line2d_20">
      <path d="M 75.45 275.7 
L 427.59 275.7 
" clip-path="url(#pa5dbf904d1)" style="fill: none; stroke: #cccccc; stroke-width: 0.4; stroke-linecap: round"/>
     </g>
     <g id="text_12">
      <!-- 0.0 -->
      <g style="fill: #262626" transform="translate(40.015 281.605195) scale(0.165 -0.165)">
       <defs>
        <path id="ArialMT-2e" d="M 581 0 
L 581 641 
L 1222 641 
L 1222 0 
L 581 0 
z
" transform="scale(0.015625)"/>
       </defs>
       <use xlink:href="#ArialMT-30"/>
       <use xlink:href="#ArialMT-2e" x="55.615234"/>
       <use xlink:href="#ArialMT-30" x="83.398438"/>
      </g>
     </g>
    </g>
    <g id="ytick_2">
     <g id="line2d_21">
      <path d="M 75.45 225.6 
L 427.59 225.6 
" clip-path="url(#pa5dbf904d1)" style="fill: none; stroke: #cccccc; stroke-width: 0.4; stroke-linecap: round"/>
     </g>
     <g id="text_13">
      <!-- 0.2 -->
      <g style="fill: #262626" transform="translate(40.015 231.505195) scale(0.165 -0.165)">
       <use xlink:href="#ArialMT-30"/>
       <use xlink:href="#ArialMT-2e" x="55.615234"/>
       <use xlink:href="#ArialMT-32" x="83.398438"/>
      </g>
     </g>
    </g>
    <g id="ytick_3">
     <g id="line2d_22">
      <path d="M 75.45 175.5 
L 427.59 175.5 
" clip-path="url(#pa5dbf904d1)" style="fill: none; stroke: #cccccc; stroke-width: 0.4; stroke-linecap: round"/>
     </g>
     <g id="text_14">
      <!-- 0.4 -->
      <g style="fill: #262626" transform="translate(40.015 181.405195) scale(0.165 -0.165)">
       <use xlink:href="#ArialMT-30"/>
       <use xlink:href="#ArialMT-2e" x="55.615234"/>
       <use xlink:href="#ArialMT-34" x="83.398438"/>
      </g>
     </g>
    </g>
    <g id="ytick_4">
     <g id="line2d_23">
      <path d="M 75.45 125.4 
L 427.59 125.4 
" clip-path="url(#pa5dbf904d1)" style="fill: none; stroke: #cccccc; stroke-width: 0.4; stroke-linecap: round"/>
     </g>
     <g id="text_15">
      <!-- 0.6 -->
      <g style="fill: #262626" transform="translate(40.015 131.305195) scale(0.165 -0.165)">
       <use xlink:href="#ArialMT-30"/>
       <use xlink:href="#ArialMT-2e" x="55.615234"/>
       <use xlink:href="#ArialMT-36" x="83.398438"/>
      </g>
     </g>
    </g>
    <g id="ytick_5">
     <g id="line2d_24">
      <path d="M 75.45 75.3 
L 427.59 75.3 
" clip-path="url(#pa5dbf904d1)" style="fill: none; stroke: #cccccc; stroke-width: 0.4; stroke-linecap: round"/>
     </g>
     <g id="text_16">
      <!-- 0.8 -->
      <g style="fill: #262626" transform="translate(40.015 81.205195) scale(0.165 -0.165)">
       <use xlink:href="#ArialMT-30"/>
       <use xlink:href="#ArialMT-2e" x="55.615234"/>
       <use xlink:href="#ArialMT-38" x="83.398438"/>
      </g>
     </g>
    </g>
    <g id="ytick_6">
     <g id="line2d_25">
      <path d="M 75.45 25.2 
L 427.59 25.2 
" clip-path="url(#pa5dbf904d1)" style="fill: none; stroke: #cccccc; stroke-width: 0.4; stroke-linecap: round"/>
     </g>
     <g id="text_17">
      <!-- 1.0 -->
      <g style="fill: #262626" transform="translate(40.015 31.105195) scale(0.165 -0.165)">
       <use xlink:href="#ArialMT-31"/>
       <use xlink:href="#ArialMT-2e" x="55.615234"/>
       <use xlink:href="#ArialMT-30" x="83.398438"/>
      </g>
     </g>
    </g>
    <g id="ytick_7">
     <g id="line2d_26">
      <path d="M 75.45 250.65 
L 427.59 250.65 
" clip-path="url(#pa5dbf904d1)" style="fill: none; stroke-dasharray: 0.2,0.33; stroke-dashoffset: 0; stroke: #cccccc; stroke-width: 0.2"/>
     </g>
    </g>
    <g id="ytick_8">
     <g id="line2d_27">
      <path d="M 75.45 200.55 
L 427.59 200.55 
" clip-path="url(#pa5dbf904d1)" style="fill: none; stroke-dasharray: 0.2,0.33; stroke-dashoffset: 0; stroke: #cccccc; stroke-width: 0.2"/>
     </g>
    </g>
    <g id="ytick_9">
     <g id="line2d_28">
      <path d="M 75.45 150.45 
L 427.59 150.45 
" clip-path="url(#pa5dbf904d1)" style="fill: none; stroke-dasharray: 0.2,0.33; stroke-dashoffset: 0; stroke: #cccccc; stroke-width: 0.2"/>
     </g>
    </g>
    <g id="ytick_10">
     <g id="line2d_29">
      <path d="M 75.45 100.35 
L 427.59 100.35 
" clip-path="url(#pa5dbf904d1)" style="fill: none; stroke-dasharray: 0.2,0.33; stroke-dashoffset: 0; stroke: #cccccc; stroke-width: 0.2"/>
     </g>
    </g>
    <g id="ytick_11">
     <g id="line2d_30">
      <path d="M 75.45 50.25 
L 427.59 50.25 
" clip-path="url(#pa5dbf904d1)" style="fill: none; stroke-dasharray: 0.2,0.33; stroke-dashoffset: 0; stroke: #cccccc; stroke-width: 0.2"/>
     </g>
    </g>
    <g id="text_18">
     <!-- Normalized Magnitude -->
     <g style="fill: #262626" transform="translate(32.226563 240.487969) rotate(-90) scale(0.18 -0.18)">
      <defs>
       <path id="ArialMT-4e" d="M 488 0 
L 488 4581 
L 1109 4581 
L 3516 984 
L 3516 4581 
L 4097 4581 
L 4097 0 
L 3475 0 
L 1069 3600 
L 1069 0 
L 488 0 
z
" transform="scale(0.015625)"/>
       <path id="ArialMT-6f" d="M 213 1659 
Q 213 2581 725 3025 
Q 1153 3394 1769 3394 
Q 2453 3394 2887 2945 
Q 3322 2497 3322 1706 
Q 3322 1066 3130 698 
Q 2938 331 2570 128 
Q 2203 -75 1769 -75 
Q 1072 -75 642 372 
Q 213 819 213 1659 
z
M 791 1659 
Q 791 1022 1069 705 
Q 1347 388 1769 388 
Q 2188 388 2466 706 
Q 2744 1025 2744 1678 
Q 2744 2294 2464 2611 
Q 2184 2928 1769 2928 
Q 1347 2928 1069 2612 
Q 791 2297 791 1659 
z
" transform="scale(0.015625)"/>
       <path id="ArialMT-6d" d="M 422 0 
L 422 3319 
L 925 3319 
L 925 2853 
Q 1081 3097 1340 3245 
Q 1600 3394 1931 3394 
Q 2300 3394 2536 3241 
Q 2772 3088 2869 2813 
Q 3263 3394 3894 3394 
Q 4388 3394 4653 3120 
Q 4919 2847 4919 2278 
L 4919 0 
L 4359 0 
L 4359 2091 
Q 4359 2428 4304 2576 
Q 4250 2725 4106 2815 
Q 3963 2906 3769 2906 
Q 3419 2906 3187 2673 
Q 2956 2441 2956 1928 
L 2956 0 
L 2394 0 
L 2394 2156 
Q 2394 2531 2256 2718 
Q 2119 2906 1806 2906 
Q 1569 2906 1367 2781 
Q 1166 2656 1075 2415 
Q 984 2175 984 1722 
L 984 0 
L 422 0 
z
" transform="scale(0.015625)"/>
       <path id="ArialMT-61" d="M 2588 409 
Q 2275 144 1986 34 
Q 1697 -75 1366 -75 
Q 819 -75 525 192 
Q 231 459 231 875 
Q 231 1119 342 1320 
Q 453 1522 633 1644 
Q 813 1766 1038 1828 
Q 1203 1872 1538 1913 
Q 2219 1994 2541 2106 
Q 2544 2222 2544 2253 
Q 2544 2597 2384 2738 
Q 2169 2928 1744 2928 
Q 1347 2928 1158 2789 
Q 969 2650 878 2297 
L 328 2372 
Q 403 2725 575 2942 
Q 747 3159 1072 3276 
Q 1397 3394 1825 3394 
Q 2250 3394 2515 3294 
Q 2781 3194 2906 3042 
Q 3031 2891 3081 2659 
Q 3109 2516 3109 2141 
L 3109 1391 
Q 3109 606 3145 398 
Q 3181 191 3288 0 
L 2700 0 
Q 2613 175 2588 409 
z
M 2541 1666 
Q 2234 1541 1622 1453 
Q 1275 1403 1131 1340 
Q 988 1278 909 1158 
Q 831 1038 831 891 
Q 831 666 1001 516 
Q 1172 366 1500 366 
Q 1825 366 2078 508 
Q 2331 650 2450 897 
Q 2541 1088 2541 1459 
L 2541 1666 
z
" transform="scale(0.015625)"/>
       <path id="ArialMT-69" d="M 425 3934 
L 425 4581 
L 988 4581 
L 988 3934 
L 425 3934 
z
M 425 0 
L 425 3319 
L 988 3319 
L 988 0 
L 425 0 
z
" transform="scale(0.015625)"/>
       <path id="ArialMT-7a" d="M 125 0 
L 125 456 
L 2238 2881 
Q 1878 2863 1603 2863 
L 250 2863 
L 250 3319 
L 2963 3319 
L 2963 2947 
L 1166 841 
L 819 456 
Q 1197 484 1528 484 
L 3063 484 
L 3063 0 
L 125 0 
z
" transform="scale(0.015625)"/>
       <path id="ArialMT-4d" d="M 475 0 
L 475 4581 
L 1388 4581 
L 2472 1338 
Q 2622 884 2691 659 
Q 2769 909 2934 1394 
L 4031 4581 
L 4847 4581 
L 4847 0 
L 4263 0 
L 4263 3834 
L 2931 0 
L 2384 0 
L 1059 3900 
L 1059 0 
L 475 0 
z
" transform="scale(0.015625)"/>
       <path id="ArialMT-74" d="M 1650 503 
L 1731 6 
Q 1494 -44 1306 -44 
Q 1000 -44 831 53 
Q 663 150 594 308 
Q 525 466 525 972 
L 525 2881 
L 113 2881 
L 113 3319 
L 525 3319 
L 525 4141 
L 1084 4478 
L 1084 3319 
L 1650 3319 
L 1650 2881 
L 1084 2881 
L 1084 941 
Q 1084 700 1114 631 
Q 1144 563 1211 522 
Q 1278 481 1403 481 
Q 1497 481 1650 503 
z
" transform="scale(0.015625)"/>
       <path id="ArialMT-75" d="M 2597 0 
L 2597 488 
Q 2209 -75 1544 -75 
Q 1250 -75 995 37 
Q 741 150 617 320 
Q 494 491 444 738 
Q 409 903 409 1263 
L 409 3319 
L 972 3319 
L 972 1478 
Q 972 1038 1006 884 
Q 1059 663 1231 536 
Q 1403 409 1656 409 
Q 1909 409 2131 539 
Q 2353 669 2445 892 
Q 2538 1116 2538 1541 
L 2538 3319 
L 3100 3319 
L 3100 0 
L 2597 0 
z
" transform="scale(0.015625)"/>
      </defs>
      <use xlink:href="#ArialMT-4e"/>
      <use xlink:href="#ArialMT-6f" x="72.216797"/>
      <use xlink:href="#ArialMT-72" x="127.832031"/>
      <use xlink:href="#ArialMT-6d" x="161.132812"/>
      <use xlink:href="#ArialMT-61" x="244.433594"/>
      <use xlink:href="#ArialMT-6c" x="300.048828"/>
      <use xlink:href="#ArialMT-69" x="322.265625"/>
      <use xlink:href="#ArialMT-7a" x="344.482422"/>
      <use xlink:href="#ArialMT-65" x="394.482422"/>
      <use xlink:href="#ArialMT-64" x="450.097656"/>
      <use xlink:href="#ArialMT-20" x="505.712891"/>
      <use xlink:href="#ArialMT-4d" x="533.496094"/>
      <use xlink:href="#ArialMT-61" x="616.796875"/>
      <use xlink:href="#ArialMT-67" x="672.412109"/>
      <use xlink:href="#ArialMT-6e" x="728.027344"/>
      <use xlink:href="#ArialMT-69" x="783.642578"/>
      <use xlink:href="#ArialMT-74" x="805.859375"/>
      <use xlink:href="#ArialMT-75" x="833.642578"/>
      <use xlink:href="#ArialMT-64" x="889.257812"/>
      <use xlink:href="#ArialMT-65" x="944.873047"/>
     </g>
    </g>
   </g>
   <g id="line2d_31">
    <path d="M 75.45 189.274097 
L 77.015937 189.155707 
L 78.581873 188.801296 
L 80.14781 188.213178 
L 81.713747 187.395343 
L 83.475425 186.208082 
L 85.237104 184.749215 
L 87.194525 182.829009 
L 89.347688 180.386662 
L 91.892335 177.12356 
L 95.024208 172.712572 
L 101.092212 164.086495 
L 103.049633 161.714046 
L 104.61557 160.130019 
L 105.985764 159.04953 
L 107.160217 158.402795 
L 108.138927 158.094786 
L 109.117638 158.025621 
L 110.096348 158.223539 
L 110.879316 158.593765 
L 111.662285 159.168907 
L 112.640995 160.199729 
L 113.619705 161.605831 
L 114.598416 163.418129 
L 115.577126 165.667369 
L 116.751579 168.985687 
L 117.926031 173.026907 
L 119.100484 177.837989 
L 120.470678 184.479754 
L 121.840873 192.28113 
L 123.406809 202.66149 
L 124.972746 214.605554 
L 126.734425 229.778364 
L 129.866298 257.552777 
L 130.257782 259.62268 
L 130.649266 260.530296 
L 130.845008 260.446078 
L 131.04075 259.989071 
L 131.432235 258.060192 
L 132.019461 253.287189 
L 132.998171 242.641528 
L 134.564108 222.635057 
L 137.304497 184.185671 
L 142.785275 106.567794 
L 144.742696 81.964751 
L 146.308633 64.606058 
L 147.678827 51.552444 
L 148.85328 42.206582 
L 149.83199 35.858602 
L 150.8107 30.919978 
L 151.593669 28.037773 
L 152.180895 26.522084 
L 152.768121 25.573115 
L 153.159605 25.259928 
L 153.551089 25.20481 
L 153.942574 25.409323 
L 154.334058 25.874492 
L 154.921284 27.061851 
L 155.50851 28.835797 
L 156.291479 32.106561 
L 157.074447 36.395676 
L 158.053157 43.146628 
L 159.22761 53.183165 
L 160.402062 65.16221 
L 161.967999 83.757648 
L 163.729678 107.482231 
L 166.861551 153.397648 
L 169.60194 192.24911 
L 171.167877 211.507192 
L 172.342329 223.651454 
L 173.321039 231.890612 
L 174.29975 238.228504 
L 175.082718 241.936137 
L 175.865686 244.582945 
L 176.648655 246.434829 
L 177.627365 248.140106 
L 178.99756 250.486199 
L 179.780528 252.232435 
L 180.563496 254.449305 
L 181.542207 257.974867 
L 182.520917 262.342661 
L 184.67408 272.836442 
L 184.869822 272.791277 
L 185.261306 271.304336 
L 186.044275 266.435262 
L 191.133569 232.408996 
L 192.308021 226.600077 
L 193.286732 222.813119 
L 194.0697 220.552631 
L 194.852668 219.017665 
L 195.439894 218.356295 
L 195.831379 218.150887 
L 196.222863 218.133626 
L 196.614347 218.303129 
L 197.201573 218.902035 
L 197.788799 219.903168 
L 198.571768 221.833112 
L 199.354736 224.392844 
L 200.333446 228.373726 
L 201.507899 234.083186 
L 203.269578 243.87225 
L 206.205709 260.341531 
L 207.380161 265.761649 
L 208.16313 268.571283 
L 208.750356 270.057841 
L 209.14184 270.68044 
L 209.533324 270.9979 
L 209.924808 271.057434 
L 210.512034 270.858492 
L 211.490745 270.445773 
L 212.077971 270.420484 
L 212.665197 270.654251 
L 213.252424 271.174218 
L 213.83965 271.984191 
L 214.622618 273.477118 
L 215.209844 274.708337 
L 215.405586 274.901835 
L 215.601329 274.736969 
L 215.992813 273.756437 
L 216.971523 270.399389 
L 218.53746 264.078247 
L 221.865075 250.416645 
L 223.039528 246.559537 
L 224.018238 244.042976 
L 224.801206 242.565671 
L 225.388432 241.797084 
L 225.975659 241.331897 
L 226.562885 241.175968 
L 227.150111 241.330097 
L 227.737337 241.79003 
L 228.324564 242.546545 
L 229.107532 243.991674 
L 230.086242 246.432782 
L 231.260695 250.133919 
L 232.826631 255.954238 
L 235.958505 267.895643 
L 236.937215 270.875434 
L 237.720183 272.610631 
L 238.111668 273.131391 
L 238.503152 273.356816 
L 238.894636 273.319738 
L 239.873346 272.786208 
L 240.656315 272.520784 
L 241.243541 272.570189 
L 241.830767 272.861785 
L 242.417993 273.393003 
L 243.788188 274.83759 
L 243.98393 274.677346 
L 244.375414 273.981176 
L 245.158382 272.003249 
L 246.332835 268.396516 
L 249.073224 258.94124 
L 250.639161 253.995158 
L 251.813613 250.979321 
L 252.792324 249.088612 
L 253.575292 248.047951 
L 254.162518 247.563271 
L 254.749744 247.340709 
L 255.336971 247.383051 
L 255.924197 247.688513 
L 256.511423 248.250788 
L 257.294391 249.380875 
L 258.07736 250.91118 
L 259.05607 253.311351 
L 260.426265 257.363355 
L 264.928332 271.432511 
L 265.711301 273.046864 
L 266.298527 273.745642 
L 266.690011 273.87348 
L 267.081495 273.774489 
L 268.647432 273.046 
L 269.234658 273.043349 
L 269.821884 273.254359 
L 270.409111 273.67506 
L 271.583563 274.77899 
L 271.779305 274.792704 
L 272.170789 274.422612 
L 272.758016 273.304314 
L 273.736726 270.845811 
L 275.106921 266.754762 
L 279.217504 254.035692 
L 280.391957 251.295172 
L 281.370667 249.579975 
L 282.153635 248.634106 
L 282.740862 248.19057 
L 283.328088 247.982096 
L 283.915314 248.011053 
L 284.50254 248.276022 
L 285.089767 248.771853 
L 285.872735 249.77641 
L 286.655703 251.145122 
L 287.634414 253.305937 
L 289.004608 256.991128 
L 291.353513 264.214393 
L 293.310934 269.941086 
L 294.289644 272.269193 
L 295.072613 273.591848 
L 295.464097 273.939561 
L 295.855581 274.018376 
L 296.442807 273.776158 
L 297.61726 273.141317 
L 298.204486 273.026714 
L 298.791712 273.100074 
L 299.378938 273.364619 
L 300.161907 273.970834 
L 300.944875 274.5593 
L 301.336359 274.484535 
L 301.727843 274.030312 
L 302.315069 272.929332 
L 303.29378 270.538488 
L 304.663974 266.52478 
L 310.144753 249.57523 
L 311.319205 246.998065 
L 312.297916 245.385561 
L 313.080884 244.484428 
L 313.863852 243.948388 
L 314.451078 243.791737 
L 315.038305 243.84648 
L 315.625531 244.110737 
L 316.408499 244.78095 
L 317.191467 245.798131 
L 318.170178 247.519431 
L 319.34463 250.160476 
L 320.714825 253.8641 
L 322.867988 260.454823 
L 325.412635 268.149112 
L 326.782829 271.606589 
L 327.565798 273.118861 
L 328.153024 273.831817 
L 328.544508 273.997437 
L 328.935992 273.91674 
L 329.718961 273.40527 
L 330.697671 272.80936 
L 331.480639 272.59824 
L 332.263608 272.670197 
L 333.046576 273.010351 
L 334.612513 273.903084 
L 335.003997 273.824172 
L 335.395481 273.486744 
L 335.982707 272.581894 
L 336.765675 270.89755 
L 337.940128 267.746035 
L 339.506064 262.795029 
L 342.050712 253.838964 
L 344.986843 243.71282 
L 346.552779 239.030323 
L 347.922974 235.586926 
L 349.097426 233.216869 
L 350.076137 231.694305 
L 351.054847 230.60602 
L 351.837815 230.056241 
L 352.620784 229.793835 
L 353.403752 229.816963 
L 354.18672 230.120345 
L 354.969689 230.69547 
L 355.752657 231.530834 
L 356.731367 232.919099 
L 357.90582 235.045326 
L 359.276014 238.075783 
L 360.841951 242.118057 
L 362.995114 248.344357 
L 368.28015 263.951401 
L 370.041829 268.401994 
L 371.607765 271.760789 
L 372.782218 273.7817 
L 373.369444 274.50026 
L 373.760928 274.726954 
L 374.152412 274.657664 
L 374.739639 274.219283 
L 376.501317 272.774816 
L 377.67577 272.12101 
L 379.045964 271.638306 
L 381.394869 270.917595 
L 382.37358 270.355177 
L 383.35229 269.5018 
L 384.331001 268.32881 
L 385.505453 266.52025 
L 386.875648 263.932557 
L 388.441584 260.468151 
L 390.399005 255.568782 
L 393.139394 248.025337 
L 402.535014 221.551652 
L 405.079661 215.256688 
L 407.428566 210.003893 
L 409.581729 205.702263 
L 411.734892 201.91123 
L 413.692312 198.912482 
L 415.649733 196.337029 
L 417.411412 194.374932 
L 419.173091 192.742537 
L 420.934769 191.43214 
L 422.500706 190.531673 
L 424.066643 189.875255 
L 425.632579 189.459322 
L 427.198516 189.281501 
L 427.59 189.274097 
L 427.59 189.274097 
" clip-path="url(#pa5dbf904d1)" style="fill: none; stroke: #ff2a00; stroke-width: 2.25; stroke-linecap: round"/>
   </g>
   <g id="patch_3">
    <path d="M 75.45 275.7 
L 75.45 25.2 
" style="fill: none; stroke: #cccccc; stroke-width: 1.875; stroke-linejoin: miter; stroke-linecap: square"/>
   </g>
   <g id="patch_4">
    <path d="M 427.59 275.7 
L 427.59 25.2 
" style="fill: none; stroke: #cccccc; stroke-width: 1.875; stroke-linejoin: miter; stroke-linecap: square"/>
   </g>
   <g id="patch_5">
    <path d="M 75.45 278.7 
L 427.59 278.7 
" style="fill: none; stroke: #cccccc; stroke-width: 1.875; stroke-linejoin: miter; stroke-linecap: square"/>
   </g>
  </g>
 </g>
 <defs>
  <clipPath id="pa5dbf904d1">
   <rect x="75.45" y="25.2" width="352.14" height="250.5"/>
  </clipPath>
 </defs>
</svg>
