<?xml version="1.0" encoding="utf-8" standalone="no"?>
<!DOCTYPE svg PUBLIC "-//W3C//DTD SVG 1.1//EN"
  "http://www.w3.org/Graphics/SVG/1.1/DTD/svg11.dtd">
<svg xmlns:xlink="http://www.w3.org/1999/xlink" width="460.8pt" height="345.6pt" viewBox="0 0 460.8 345.6" xmlns="http://www.w3.org/2000/svg" version="1.1">
 <metadata>
  <rdf:RDF xmlns:dc="http://purl.org/dc/elements/1.1/" xmlns:cc="http://creativecommons.org/ns#" xmlns:rdf="http://www.w3.org/1999/02/22-rdf-syntax-ns#">
   <cc:Work>
    <dc:type rdf:resource="http://purl.org/dc/dcmitype/StillImage"/>
    <dc:date>2023-12-01T01:52:12.397559</dc:date>
    <dc:format>image/svg+xml</dc:format>
    <dc:creator>
     <cc:Agent>
      <dc:title>Matplotlib v3.8.0, https://matplotlib.org/</dc:title>
     </cc:Agent>
    </dc:creator>
   </cc:Work>
  </rdf:RDF>
 </metadata>
 <defs>
  <style type="text/css">*{stroke-linejoin: round; stroke-linecap: butt}</style>
 </defs>
 <g id="figure_1">
  <g id="patch_1">
   <path d="M 0 345.6 
L 460.8 345.6 
L 460.8 0 
L 0 0 
z
" style="fill: #ffffff"/>
  </g>
  <g id="axes_1">
   <g id="patch_2">
    <path d="M 75.45 275.7 
L 427.59 275.7 
L 427.59 25.2 
L 75.45 25.2 
z
" style="fill: #ffffff"/>
   </g>
   <g id="matplotlib.axis_1">
    <g id="xtick_1">
     <g id="line2d_1">
      <path d="M 75.45 275.7 
L 75.45 25.2 
" clip-path="url(#p362818fca8)" style="fill: none; stroke: #cccccc; stroke-width: 0.4; stroke-linecap: round"/>
     </g>
     <g id="text_1">
      <!-- 0 -->
      <g style="fill: #262626" transform="translate(70.862227 303.010391) scale(0.165 -0.165)">
       <defs>
        <path id="ArialMT-30" d="M 266 2259 
Q 266 3072 433 3567 
Q 600 4063 929 4331 
Q 1259 4600 1759 4600 
Q 2128 4600 2406 4451 
Q 2684 4303 2865 4023 
Q 3047 3744 3150 3342 
Q 3253 2941 3253 2259 
Q 3253 1453 3087 958 
Q 2922 463 2592 192 
Q 2263 -78 1759 -78 
Q 1097 -78 719 397 
Q 266 969 266 2259 
z
M 844 2259 
Q 844 1131 1108 757 
Q 1372 384 1759 384 
Q 2147 384 2411 759 
Q 2675 1134 2675 2259 
Q 2675 3391 2411 3762 
Q 2147 4134 1753 4134 
Q 1366 4134 1134 3806 
Q 844 3388 844 2259 
z
" transform="scale(0.015625)"/>
       </defs>
       <use xlink:href="#ArialMT-30"/>
      </g>
     </g>
    </g>
    <g id="xtick_2">
     <g id="line2d_2">
      <path d="M 114.576667 275.7 
L 114.576667 25.2 
" clip-path="url(#p362818fca8)" style="fill: none; stroke: #cccccc; stroke-width: 0.4; stroke-linecap: round"/>
     </g>
     <g id="text_2">
      <!-- 20 -->
      <g style="fill: #262626" transform="translate(105.40112 303.010391) scale(0.165 -0.165)">
       <defs>
        <path id="ArialMT-32" d="M 3222 541 
L 3222 0 
L 194 0 
Q 188 203 259 391 
Q 375 700 629 1000 
Q 884 1300 1366 1694 
Q 2113 2306 2375 2664 
Q 2638 3022 2638 3341 
Q 2638 3675 2398 3904 
Q 2159 4134 1775 4134 
Q 1369 4134 1125 3890 
Q 881 3647 878 3216 
L 300 3275 
Q 359 3922 746 4261 
Q 1134 4600 1788 4600 
Q 2447 4600 2831 4234 
Q 3216 3869 3216 3328 
Q 3216 3053 3103 2787 
Q 2991 2522 2730 2228 
Q 2469 1934 1863 1422 
Q 1356 997 1212 845 
Q 1069 694 975 541 
L 3222 541 
z
" transform="scale(0.015625)"/>
       </defs>
       <use xlink:href="#ArialMT-32"/>
       <use xlink:href="#ArialMT-30" x="55.615234"/>
      </g>
     </g>
    </g>
    <g id="xtick_3">
     <g id="line2d_3">
      <path d="M 153.703333 275.7 
L 153.703333 25.2 
" clip-path="url(#p362818fca8)" style="fill: none; stroke: #cccccc; stroke-width: 0.4; stroke-linecap: round"/>
     </g>
     <g id="text_3">
      <!-- 40 -->
      <g style="fill: #262626" transform="translate(144.527786 303.010391) scale(0.165 -0.165)">
       <defs>
        <path id="ArialMT-34" d="M 2069 0 
L 2069 1097 
L 81 1097 
L 81 1613 
L 2172 4581 
L 2631 4581 
L 2631 1613 
L 3250 1613 
L 3250 1097 
L 2631 1097 
L 2631 0 
L 2069 0 
z
M 2069 1613 
L 2069 3678 
L 634 1613 
L 2069 1613 
z
" transform="scale(0.015625)"/>
       </defs>
       <use xlink:href="#ArialMT-34"/>
       <use xlink:href="#ArialMT-30" x="55.615234"/>
      </g>
     </g>
    </g>
    <g id="xtick_4">
     <g id="line2d_4">
      <path d="M 192.83 275.7 
L 192.83 25.2 
" clip-path="url(#p362818fca8)" style="fill: none; stroke: #cccccc; stroke-width: 0.4; stroke-linecap: round"/>
     </g>
     <g id="text_4">
      <!-- 60 -->
      <g style="fill: #262626" transform="translate(183.654453 303.010391) scale(0.165 -0.165)">
       <defs>
        <path id="ArialMT-36" d="M 3184 3459 
L 2625 3416 
Q 2550 3747 2413 3897 
Q 2184 4138 1850 4138 
Q 1581 4138 1378 3988 
Q 1113 3794 959 3422 
Q 806 3050 800 2363 
Q 1003 2672 1297 2822 
Q 1591 2972 1913 2972 
Q 2475 2972 2870 2558 
Q 3266 2144 3266 1488 
Q 3266 1056 3080 686 
Q 2894 316 2569 119 
Q 2244 -78 1831 -78 
Q 1128 -78 684 439 
Q 241 956 241 2144 
Q 241 3472 731 4075 
Q 1159 4600 1884 4600 
Q 2425 4600 2770 4297 
Q 3116 3994 3184 3459 
z
M 888 1484 
Q 888 1194 1011 928 
Q 1134 663 1356 523 
Q 1578 384 1822 384 
Q 2178 384 2434 671 
Q 2691 959 2691 1453 
Q 2691 1928 2437 2201 
Q 2184 2475 1800 2475 
Q 1419 2475 1153 2201 
Q 888 1928 888 1484 
z
" transform="scale(0.015625)"/>
       </defs>
       <use xlink:href="#ArialMT-36"/>
       <use xlink:href="#ArialMT-30" x="55.615234"/>
      </g>
     </g>
    </g>
    <g id="xtick_5">
     <g id="line2d_5">
      <path d="M 231.956667 275.7 
L 231.956667 25.2 
" clip-path="url(#p362818fca8)" style="fill: none; stroke: #cccccc; stroke-width: 0.4; stroke-linecap: round"/>
     </g>
     <g id="text_5">
      <!-- 80 -->
      <g style="fill: #262626" transform="translate(222.78112 303.010391) scale(0.165 -0.165)">
       <defs>
        <path id="ArialMT-38" d="M 1131 2484 
Q 781 2613 612 2850 
Q 444 3088 444 3419 
Q 444 3919 803 4259 
Q 1163 4600 1759 4600 
Q 2359 4600 2725 4251 
Q 3091 3903 3091 3403 
Q 3091 3084 2923 2848 
Q 2756 2613 2416 2484 
Q 2838 2347 3058 2040 
Q 3278 1734 3278 1309 
Q 3278 722 2862 322 
Q 2447 -78 1769 -78 
Q 1091 -78 675 323 
Q 259 725 259 1325 
Q 259 1772 486 2073 
Q 713 2375 1131 2484 
z
M 1019 3438 
Q 1019 3113 1228 2906 
Q 1438 2700 1772 2700 
Q 2097 2700 2305 2904 
Q 2513 3109 2513 3406 
Q 2513 3716 2298 3927 
Q 2084 4138 1766 4138 
Q 1444 4138 1231 3931 
Q 1019 3725 1019 3438 
z
M 838 1322 
Q 838 1081 952 856 
Q 1066 631 1291 507 
Q 1516 384 1775 384 
Q 2178 384 2440 643 
Q 2703 903 2703 1303 
Q 2703 1709 2433 1975 
Q 2163 2241 1756 2241 
Q 1359 2241 1098 1978 
Q 838 1716 838 1322 
z
" transform="scale(0.015625)"/>
       </defs>
       <use xlink:href="#ArialMT-38"/>
       <use xlink:href="#ArialMT-30" x="55.615234"/>
      </g>
     </g>
    </g>
    <g id="xtick_6">
     <g id="line2d_6">
      <path d="M 271.083333 275.7 
L 271.083333 25.2 
" clip-path="url(#p362818fca8)" style="fill: none; stroke: #cccccc; stroke-width: 0.4; stroke-linecap: round"/>
     </g>
     <g id="text_6">
      <!-- 100 -->
      <g style="fill: #262626" transform="translate(257.320013 303.010391) scale(0.165 -0.165)">
       <defs>
        <path id="ArialMT-31" d="M 2384 0 
L 1822 0 
L 1822 3584 
Q 1619 3391 1289 3197 
Q 959 3003 697 2906 
L 697 3450 
Q 1169 3672 1522 3987 
Q 1875 4303 2022 4600 
L 2384 4600 
L 2384 0 
z
" transform="scale(0.015625)"/>
       </defs>
       <use xlink:href="#ArialMT-31"/>
       <use xlink:href="#ArialMT-30" x="55.615234"/>
       <use xlink:href="#ArialMT-30" x="111.230469"/>
      </g>
     </g>
    </g>
    <g id="xtick_7">
     <g id="line2d_7">
      <path d="M 310.21 275.7 
L 310.21 25.2 
" clip-path="url(#p362818fca8)" style="fill: none; stroke: #cccccc; stroke-width: 0.4; stroke-linecap: round"/>
     </g>
     <g id="text_7">
      <!-- 120 -->
      <g style="fill: #262626" transform="translate(296.44668 303.010391) scale(0.165 -0.165)">
       <use xlink:href="#ArialMT-31"/>
       <use xlink:href="#ArialMT-32" x="55.615234"/>
       <use xlink:href="#ArialMT-30" x="111.230469"/>
      </g>
     </g>
    </g>
    <g id="xtick_8">
     <g id="line2d_8">
      <path d="M 349.336667 275.7 
L 349.336667 25.2 
" clip-path="url(#p362818fca8)" style="fill: none; stroke: #cccccc; stroke-width: 0.4; stroke-linecap: round"/>
     </g>
     <g id="text_8">
      <!-- 140 -->
      <g style="fill: #262626" transform="translate(335.573346 303.010391) scale(0.165 -0.165)">
       <use xlink:href="#ArialMT-31"/>
       <use xlink:href="#ArialMT-34" x="55.615234"/>
       <use xlink:href="#ArialMT-30" x="111.230469"/>
      </g>
     </g>
    </g>
    <g id="xtick_9">
     <g id="line2d_9">
      <path d="M 388.463333 275.7 
L 388.463333 25.2 
" clip-path="url(#p362818fca8)" style="fill: none; stroke: #cccccc; stroke-width: 0.4; stroke-linecap: round"/>
     </g>
     <g id="text_9">
      <!-- 160 -->
      <g style="fill: #262626" transform="translate(374.700013 303.010391) scale(0.165 -0.165)">
       <use xlink:href="#ArialMT-31"/>
       <use xlink:href="#ArialMT-36" x="55.615234"/>
       <use xlink:href="#ArialMT-30" x="111.230469"/>
      </g>
     </g>
    </g>
    <g id="xtick_10">
     <g id="line2d_10">
      <path d="M 427.59 275.7 
L 427.59 25.2 
" clip-path="url(#p362818fca8)" style="fill: none; stroke: #cccccc; stroke-width: 0.4; stroke-linecap: round"/>
     </g>
     <g id="text_10">
      <!-- 180 -->
      <g style="fill: #262626" transform="translate(413.82668 303.010391) scale(0.165 -0.165)">
       <use xlink:href="#ArialMT-31"/>
       <use xlink:href="#ArialMT-38" x="55.615234"/>
       <use xlink:href="#ArialMT-30" x="111.230469"/>
      </g>
     </g>
    </g>
    <g id="xtick_11">
     <g id="line2d_11">
      <path d="M 95.013333 275.7 
L 95.013333 25.2 
" clip-path="url(#p362818fca8)" style="fill: none; stroke-dasharray: 0.2,0.33; stroke-dashoffset: 0; stroke: #cccccc; stroke-width: 0.2"/>
     </g>
    </g>
    <g id="xtick_12">
     <g id="line2d_12">
      <path d="M 134.14 275.7 
L 134.14 25.2 
" clip-path="url(#p362818fca8)" style="fill: none; stroke-dasharray: 0.2,0.33; stroke-dashoffset: 0; stroke: #cccccc; stroke-width: 0.2"/>
     </g>
    </g>
    <g id="xtick_13">
     <g id="line2d_13">
      <path d="M 173.266667 275.7 
L 173.266667 25.2 
" clip-path="url(#p362818fca8)" style="fill: none; stroke-dasharray: 0.2,0.33; stroke-dashoffset: 0; stroke: #cccccc; stroke-width: 0.2"/>
     </g>
    </g>
    <g id="xtick_14">
     <g id="line2d_14">
      <path d="M 212.393333 275.7 
L 212.393333 25.2 
" clip-path="url(#p362818fca8)" style="fill: none; stroke-dasharray: 0.2,0.33; stroke-dashoffset: 0; stroke: #cccccc; stroke-width: 0.2"/>
     </g>
    </g>
    <g id="xtick_15">
     <g id="line2d_15">
      <path d="M 251.52 275.7 
L 251.52 25.2 
" clip-path="url(#p362818fca8)" style="fill: none; stroke-dasharray: 0.2,0.33; stroke-dashoffset: 0; stroke: #cccccc; stroke-width: 0.2"/>
     </g>
    </g>
    <g id="xtick_16">
     <g id="line2d_16">
      <path d="M 290.646667 275.7 
L 290.646667 25.2 
" clip-path="url(#p362818fca8)" style="fill: none; stroke-dasharray: 0.2,0.33; stroke-dashoffset: 0; stroke: #cccccc; stroke-width: 0.2"/>
     </g>
    </g>
    <g id="xtick_17">
     <g id="line2d_17">
      <path d="M 329.773333 275.7 
L 329.773333 25.2 
" clip-path="url(#p362818fca8)" style="fill: none; stroke-dasharray: 0.2,0.33; stroke-dashoffset: 0; stroke: #cccccc; stroke-width: 0.2"/>
     </g>
    </g>
    <g id="xtick_18">
     <g id="line2d_18">
      <path d="M 368.9 275.7 
L 368.9 25.2 
" clip-path="url(#p362818fca8)" style="fill: none; stroke-dasharray: 0.2,0.33; stroke-dashoffset: 0; stroke: #cccccc; stroke-width: 0.2"/>
     </g>
    </g>
    <g id="xtick_19">
     <g id="line2d_19">
      <path d="M 408.026667 275.7 
L 408.026667 25.2 
" clip-path="url(#p362818fca8)" style="fill: none; stroke-dasharray: 0.2,0.33; stroke-dashoffset: 0; stroke: #cccccc; stroke-width: 0.2"/>
     </g>
    </g>
    <g id="text_11">
     <!-- Angle (degrees) -->
     <g style="fill: #262626" transform="translate(187.487813 323.393203) scale(0.18 -0.18)">
      <defs>
       <path id="ArialMT-41" d="M -9 0 
L 1750 4581 
L 2403 4581 
L 4278 0 
L 3588 0 
L 3053 1388 
L 1138 1388 
L 634 0 
L -9 0 
z
M 1313 1881 
L 2866 1881 
L 2388 3150 
Q 2169 3728 2063 4100 
Q 1975 3659 1816 3225 
L 1313 1881 
z
" transform="scale(0.015625)"/>
       <path id="ArialMT-6e" d="M 422 0 
L 422 3319 
L 928 3319 
L 928 2847 
Q 1294 3394 1984 3394 
Q 2284 3394 2536 3286 
Q 2788 3178 2913 3003 
Q 3038 2828 3088 2588 
Q 3119 2431 3119 2041 
L 3119 0 
L 2556 0 
L 2556 2019 
Q 2556 2363 2490 2533 
Q 2425 2703 2258 2804 
Q 2091 2906 1866 2906 
Q 1506 2906 1245 2678 
Q 984 2450 984 1813 
L 984 0 
L 422 0 
z
" transform="scale(0.015625)"/>
       <path id="ArialMT-67" d="M 319 -275 
L 866 -356 
Q 900 -609 1056 -725 
Q 1266 -881 1628 -881 
Q 2019 -881 2231 -725 
Q 2444 -569 2519 -288 
Q 2563 -116 2559 434 
Q 2191 0 1641 0 
Q 956 0 581 494 
Q 206 988 206 1678 
Q 206 2153 378 2554 
Q 550 2956 876 3175 
Q 1203 3394 1644 3394 
Q 2231 3394 2613 2919 
L 2613 3319 
L 3131 3319 
L 3131 450 
Q 3131 -325 2973 -648 
Q 2816 -972 2473 -1159 
Q 2131 -1347 1631 -1347 
Q 1038 -1347 672 -1080 
Q 306 -813 319 -275 
z
M 784 1719 
Q 784 1066 1043 766 
Q 1303 466 1694 466 
Q 2081 466 2343 764 
Q 2606 1063 2606 1700 
Q 2606 2309 2336 2618 
Q 2066 2928 1684 2928 
Q 1309 2928 1046 2623 
Q 784 2319 784 1719 
z
" transform="scale(0.015625)"/>
       <path id="ArialMT-6c" d="M 409 0 
L 409 4581 
L 972 4581 
L 972 0 
L 409 0 
z
" transform="scale(0.015625)"/>
       <path id="ArialMT-65" d="M 2694 1069 
L 3275 997 
Q 3138 488 2766 206 
Q 2394 -75 1816 -75 
Q 1088 -75 661 373 
Q 234 822 234 1631 
Q 234 2469 665 2931 
Q 1097 3394 1784 3394 
Q 2450 3394 2872 2941 
Q 3294 2488 3294 1666 
Q 3294 1616 3291 1516 
L 816 1516 
Q 847 969 1125 678 
Q 1403 388 1819 388 
Q 2128 388 2347 550 
Q 2566 713 2694 1069 
z
M 847 1978 
L 2700 1978 
Q 2663 2397 2488 2606 
Q 2219 2931 1791 2931 
Q 1403 2931 1139 2672 
Q 875 2413 847 1978 
z
" transform="scale(0.015625)"/>
       <path id="ArialMT-20" transform="scale(0.015625)"/>
       <path id="ArialMT-28" d="M 1497 -1347 
Q 1031 -759 709 28 
Q 388 816 388 1659 
Q 388 2403 628 3084 
Q 909 3875 1497 4659 
L 1900 4659 
Q 1522 4009 1400 3731 
Q 1209 3300 1100 2831 
Q 966 2247 966 1656 
Q 966 153 1900 -1347 
L 1497 -1347 
z
" transform="scale(0.015625)"/>
       <path id="ArialMT-64" d="M 2575 0 
L 2575 419 
Q 2259 -75 1647 -75 
Q 1250 -75 917 144 
Q 584 363 401 755 
Q 219 1147 219 1656 
Q 219 2153 384 2558 
Q 550 2963 881 3178 
Q 1213 3394 1622 3394 
Q 1922 3394 2156 3267 
Q 2391 3141 2538 2938 
L 2538 4581 
L 3097 4581 
L 3097 0 
L 2575 0 
z
M 797 1656 
Q 797 1019 1065 703 
Q 1334 388 1700 388 
Q 2069 388 2326 689 
Q 2584 991 2584 1609 
Q 2584 2291 2321 2609 
Q 2059 2928 1675 2928 
Q 1300 2928 1048 2622 
Q 797 2316 797 1656 
z
" transform="scale(0.015625)"/>
       <path id="ArialMT-72" d="M 416 0 
L 416 3319 
L 922 3319 
L 922 2816 
Q 1116 3169 1280 3281 
Q 1444 3394 1641 3394 
Q 1925 3394 2219 3213 
L 2025 2691 
Q 1819 2813 1613 2813 
Q 1428 2813 1281 2702 
Q 1134 2591 1072 2394 
Q 978 2094 978 1738 
L 978 0 
L 416 0 
z
" transform="scale(0.015625)"/>
       <path id="ArialMT-73" d="M 197 991 
L 753 1078 
Q 800 744 1014 566 
Q 1228 388 1613 388 
Q 2000 388 2187 545 
Q 2375 703 2375 916 
Q 2375 1106 2209 1216 
Q 2094 1291 1634 1406 
Q 1016 1563 777 1677 
Q 538 1791 414 1992 
Q 291 2194 291 2438 
Q 291 2659 392 2848 
Q 494 3038 669 3163 
Q 800 3259 1026 3326 
Q 1253 3394 1513 3394 
Q 1903 3394 2198 3281 
Q 2494 3169 2634 2976 
Q 2775 2784 2828 2463 
L 2278 2388 
Q 2241 2644 2061 2787 
Q 1881 2931 1553 2931 
Q 1166 2931 1000 2803 
Q 834 2675 834 2503 
Q 834 2394 903 2306 
Q 972 2216 1119 2156 
Q 1203 2125 1616 2013 
Q 2213 1853 2448 1751 
Q 2684 1650 2818 1456 
Q 2953 1263 2953 975 
Q 2953 694 2789 445 
Q 2625 197 2315 61 
Q 2006 -75 1616 -75 
Q 969 -75 630 194 
Q 291 463 197 991 
z
" transform="scale(0.015625)"/>
       <path id="ArialMT-29" d="M 791 -1347 
L 388 -1347 
Q 1322 153 1322 1656 
Q 1322 2244 1188 2822 
Q 1081 3291 891 3722 
Q 769 4003 388 4659 
L 791 4659 
Q 1378 3875 1659 3084 
Q 1900 2403 1900 1659 
Q 1900 816 1576 28 
Q 1253 -759 791 -1347 
z
" transform="scale(0.015625)"/>
      </defs>
      <use xlink:href="#ArialMT-41"/>
      <use xlink:href="#ArialMT-6e" x="66.699219"/>
      <use xlink:href="#ArialMT-67" x="122.314453"/>
      <use xlink:href="#ArialMT-6c" x="177.929688"/>
      <use xlink:href="#ArialMT-65" x="200.146484"/>
      <use xlink:href="#ArialMT-20" x="255.761719"/>
      <use xlink:href="#ArialMT-28" x="283.544922"/>
      <use xlink:href="#ArialMT-64" x="316.845703"/>
      <use xlink:href="#ArialMT-65" x="372.460938"/>
      <use xlink:href="#ArialMT-67" x="428.076172"/>
      <use xlink:href="#ArialMT-72" x="483.691406"/>
      <use xlink:href="#ArialMT-65" x="516.992188"/>
      <use xlink:href="#ArialMT-65" x="572.607422"/>
      <use xlink:href="#ArialMT-73" x="628.222656"/>
      <use xlink:href="#ArialMT-29" x="678.222656"/>
     </g>
    </g>
   </g>
   <g id="matplotlib.axis_2">
    <g id="ytick_1">
     <g id="line2d_20">
      <path d="M 75.45 275.7 
L 427.59 275.7 
" clip-path="url(#p362818fca8)" style="fill: none; stroke: #cccccc; stroke-width: 0.4; stroke-linecap: round"/>
     </g>
     <g id="text_12">
      <!-- 0.0 -->
      <g style="fill: #262626" transform="translate(40.015 281.605195) scale(0.165 -0.165)">
       <defs>
        <path id="ArialMT-2e" d="M 581 0 
L 581 641 
L 1222 641 
L 1222 0 
L 581 0 
z
" transform="scale(0.015625)"/>
       </defs>
       <use xlink:href="#ArialMT-30"/>
       <use xlink:href="#ArialMT-2e" x="55.615234"/>
       <use xlink:href="#ArialMT-30" x="83.398438"/>
      </g>
     </g>
    </g>
    <g id="ytick_2">
     <g id="line2d_21">
      <path d="M 75.45 225.6 
L 427.59 225.6 
" clip-path="url(#p362818fca8)" style="fill: none; stroke: #cccccc; stroke-width: 0.4; stroke-linecap: round"/>
     </g>
     <g id="text_13">
      <!-- 0.2 -->
      <g style="fill: #262626" transform="translate(40.015 231.505195) scale(0.165 -0.165)">
       <use xlink:href="#ArialMT-30"/>
       <use xlink:href="#ArialMT-2e" x="55.615234"/>
       <use xlink:href="#ArialMT-32" x="83.398438"/>
      </g>
     </g>
    </g>
    <g id="ytick_3">
     <g id="line2d_22">
      <path d="M 75.45 175.5 
L 427.59 175.5 
" clip-path="url(#p362818fca8)" style="fill: none; stroke: #cccccc; stroke-width: 0.4; stroke-linecap: round"/>
     </g>
     <g id="text_14">
      <!-- 0.4 -->
      <g style="fill: #262626" transform="translate(40.015 181.405195) scale(0.165 -0.165)">
       <use xlink:href="#ArialMT-30"/>
       <use xlink:href="#ArialMT-2e" x="55.615234"/>
       <use xlink:href="#ArialMT-34" x="83.398438"/>
      </g>
     </g>
    </g>
    <g id="ytick_4">
     <g id="line2d_23">
      <path d="M 75.45 125.4 
L 427.59 125.4 
" clip-path="url(#p362818fca8)" style="fill: none; stroke: #cccccc; stroke-width: 0.4; stroke-linecap: round"/>
     </g>
     <g id="text_15">
      <!-- 0.6 -->
      <g style="fill: #262626" transform="translate(40.015 131.305195) scale(0.165 -0.165)">
       <use xlink:href="#ArialMT-30"/>
       <use xlink:href="#ArialMT-2e" x="55.615234"/>
       <use xlink:href="#ArialMT-36" x="83.398438"/>
      </g>
     </g>
    </g>
    <g id="ytick_5">
     <g id="line2d_24">
      <path d="M 75.45 75.3 
L 427.59 75.3 
" clip-path="url(#p362818fca8)" style="fill: none; stroke: #cccccc; stroke-width: 0.4; stroke-linecap: round"/>
     </g>
     <g id="text_16">
      <!-- 0.8 -->
      <g style="fill: #262626" transform="translate(40.015 81.205195) scale(0.165 -0.165)">
       <use xlink:href="#ArialMT-30"/>
       <use xlink:href="#ArialMT-2e" x="55.615234"/>
       <use xlink:href="#ArialMT-38" x="83.398438"/>
      </g>
     </g>
    </g>
    <g id="ytick_6">
     <g id="line2d_25">
      <path d="M 75.45 25.2 
L 427.59 25.2 
" clip-path="url(#p362818fca8)" style="fill: none; stroke: #cccccc; stroke-width: 0.4; stroke-linecap: round"/>
     </g>
     <g id="text_17">
      <!-- 1.0 -->
      <g style="fill: #262626" transform="translate(40.015 31.105195) scale(0.165 -0.165)">
       <use xlink:href="#ArialMT-31"/>
       <use xlink:href="#ArialMT-2e" x="55.615234"/>
       <use xlink:href="#ArialMT-30" x="83.398438"/>
      </g>
     </g>
    </g>
    <g id="ytick_7">
     <g id="line2d_26">
      <path d="M 75.45 250.65 
L 427.59 250.65 
" clip-path="url(#p362818fca8)" style="fill: none; stroke-dasharray: 0.2,0.33; stroke-dashoffset: 0; stroke: #cccccc; stroke-width: 0.2"/>
     </g>
    </g>
    <g id="ytick_8">
     <g id="line2d_27">
      <path d="M 75.45 200.55 
L 427.59 200.55 
" clip-path="url(#p362818fca8)" style="fill: none; stroke-dasharray: 0.2,0.33; stroke-dashoffset: 0; stroke: #cccccc; stroke-width: 0.2"/>
     </g>
    </g>
    <g id="ytick_9">
     <g id="line2d_28">
      <path d="M 75.45 150.45 
L 427.59 150.45 
" clip-path="url(#p362818fca8)" style="fill: none; stroke-dasharray: 0.2,0.33; stroke-dashoffset: 0; stroke: #cccccc; stroke-width: 0.2"/>
     </g>
    </g>
    <g id="ytick_10">
     <g id="line2d_29">
      <path d="M 75.45 100.35 
L 427.59 100.35 
" clip-path="url(#p362818fca8)" style="fill: none; stroke-dasharray: 0.2,0.33; stroke-dashoffset: 0; stroke: #cccccc; stroke-width: 0.2"/>
     </g>
    </g>
    <g id="ytick_11">
     <g id="line2d_30">
      <path d="M 75.45 50.25 
L 427.59 50.25 
" clip-path="url(#p362818fca8)" style="fill: none; stroke-dasharray: 0.2,0.33; stroke-dashoffset: 0; stroke: #cccccc; stroke-width: 0.2"/>
     </g>
    </g>
    <g id="text_18">
     <!-- Normalized Magnitude -->
     <g style="fill: #262626" transform="translate(32.226563 240.487969) rotate(-90) scale(0.18 -0.18)">
      <defs>
       <path id="ArialMT-4e" d="M 488 0 
L 488 4581 
L 1109 4581 
L 3516 984 
L 3516 4581 
L 4097 4581 
L 4097 0 
L 3475 0 
L 1069 3600 
L 1069 0 
L 488 0 
z
" transform="scale(0.015625)"/>
       <path id="ArialMT-6f" d="M 213 1659 
Q 213 2581 725 3025 
Q 1153 3394 1769 3394 
Q 2453 3394 2887 2945 
Q 3322 2497 3322 1706 
Q 3322 1066 3130 698 
Q 2938 331 2570 128 
Q 2203 -75 1769 -75 
Q 1072 -75 642 372 
Q 213 819 213 1659 
z
M 791 1659 
Q 791 1022 1069 705 
Q 1347 388 1769 388 
Q 2188 388 2466 706 
Q 2744 1025 2744 1678 
Q 2744 2294 2464 2611 
Q 2184 2928 1769 2928 
Q 1347 2928 1069 2612 
Q 791 2297 791 1659 
z
" transform="scale(0.015625)"/>
       <path id="ArialMT-6d" d="M 422 0 
L 422 3319 
L 925 3319 
L 925 2853 
Q 1081 3097 1340 3245 
Q 1600 3394 1931 3394 
Q 2300 3394 2536 3241 
Q 2772 3088 2869 2813 
Q 3263 3394 3894 3394 
Q 4388 3394 4653 3120 
Q 4919 2847 4919 2278 
L 4919 0 
L 4359 0 
L 4359 2091 
Q 4359 2428 4304 2576 
Q 4250 2725 4106 2815 
Q 3963 2906 3769 2906 
Q 3419 2906 3187 2673 
Q 2956 2441 2956 1928 
L 2956 0 
L 2394 0 
L 2394 2156 
Q 2394 2531 2256 2718 
Q 2119 2906 1806 2906 
Q 1569 2906 1367 2781 
Q 1166 2656 1075 2415 
Q 984 2175 984 1722 
L 984 0 
L 422 0 
z
" transform="scale(0.015625)"/>
       <path id="ArialMT-61" d="M 2588 409 
Q 2275 144 1986 34 
Q 1697 -75 1366 -75 
Q 819 -75 525 192 
Q 231 459 231 875 
Q 231 1119 342 1320 
Q 453 1522 633 1644 
Q 813 1766 1038 1828 
Q 1203 1872 1538 1913 
Q 2219 1994 2541 2106 
Q 2544 2222 2544 2253 
Q 2544 2597 2384 2738 
Q 2169 2928 1744 2928 
Q 1347 2928 1158 2789 
Q 969 2650 878 2297 
L 328 2372 
Q 403 2725 575 2942 
Q 747 3159 1072 3276 
Q 1397 3394 1825 3394 
Q 2250 3394 2515 3294 
Q 2781 3194 2906 3042 
Q 3031 2891 3081 2659 
Q 3109 2516 3109 2141 
L 3109 1391 
Q 3109 606 3145 398 
Q 3181 191 3288 0 
L 2700 0 
Q 2613 175 2588 409 
z
M 2541 1666 
Q 2234 1541 1622 1453 
Q 1275 1403 1131 1340 
Q 988 1278 909 1158 
Q 831 1038 831 891 
Q 831 666 1001 516 
Q 1172 366 1500 366 
Q 1825 366 2078 508 
Q 2331 650 2450 897 
Q 2541 1088 2541 1459 
L 2541 1666 
z
" transform="scale(0.015625)"/>
       <path id="ArialMT-69" d="M 425 3934 
L 425 4581 
L 988 4581 
L 988 3934 
L 425 3934 
z
M 425 0 
L 425 3319 
L 988 3319 
L 988 0 
L 425 0 
z
" transform="scale(0.015625)"/>
       <path id="ArialMT-7a" d="M 125 0 
L 125 456 
L 2238 2881 
Q 1878 2863 1603 2863 
L 250 2863 
L 250 3319 
L 2963 3319 
L 2963 2947 
L 1166 841 
L 819 456 
Q 1197 484 1528 484 
L 3063 484 
L 3063 0 
L 125 0 
z
" transform="scale(0.015625)"/>
       <path id="ArialMT-4d" d="M 475 0 
L 475 4581 
L 1388 4581 
L 2472 1338 
Q 2622 884 2691 659 
Q 2769 909 2934 1394 
L 4031 4581 
L 4847 4581 
L 4847 0 
L 4263 0 
L 4263 3834 
L 2931 0 
L 2384 0 
L 1059 3900 
L 1059 0 
L 475 0 
z
" transform="scale(0.015625)"/>
       <path id="ArialMT-74" d="M 1650 503 
L 1731 6 
Q 1494 -44 1306 -44 
Q 1000 -44 831 53 
Q 663 150 594 308 
Q 525 466 525 972 
L 525 2881 
L 113 2881 
L 113 3319 
L 525 3319 
L 525 4141 
L 1084 4478 
L 1084 3319 
L 1650 3319 
L 1650 2881 
L 1084 2881 
L 1084 941 
Q 1084 700 1114 631 
Q 1144 563 1211 522 
Q 1278 481 1403 481 
Q 1497 481 1650 503 
z
" transform="scale(0.015625)"/>
       <path id="ArialMT-75" d="M 2597 0 
L 2597 488 
Q 2209 -75 1544 -75 
Q 1250 -75 995 37 
Q 741 150 617 320 
Q 494 491 444 738 
Q 409 903 409 1263 
L 409 3319 
L 972 3319 
L 972 1478 
Q 972 1038 1006 884 
Q 1059 663 1231 536 
Q 1403 409 1656 409 
Q 1909 409 2131 539 
Q 2353 669 2445 892 
Q 2538 1116 2538 1541 
L 2538 3319 
L 3100 3319 
L 3100 0 
L 2597 0 
z
" transform="scale(0.015625)"/>
      </defs>
      <use xlink:href="#ArialMT-4e"/>
      <use xlink:href="#ArialMT-6f" x="72.216797"/>
      <use xlink:href="#ArialMT-72" x="127.832031"/>
      <use xlink:href="#ArialMT-6d" x="161.132812"/>
      <use xlink:href="#ArialMT-61" x="244.433594"/>
      <use xlink:href="#ArialMT-6c" x="300.048828"/>
      <use xlink:href="#ArialMT-69" x="322.265625"/>
      <use xlink:href="#ArialMT-7a" x="344.482422"/>
      <use xlink:href="#ArialMT-65" x="394.482422"/>
      <use xlink:href="#ArialMT-64" x="450.097656"/>
      <use xlink:href="#ArialMT-20" x="505.712891"/>
      <use xlink:href="#ArialMT-4d" x="533.496094"/>
      <use xlink:href="#ArialMT-61" x="616.796875"/>
      <use xlink:href="#ArialMT-67" x="672.412109"/>
      <use xlink:href="#ArialMT-6e" x="728.027344"/>
      <use xlink:href="#ArialMT-69" x="783.642578"/>
      <use xlink:href="#ArialMT-74" x="805.859375"/>
      <use xlink:href="#ArialMT-75" x="833.642578"/>
      <use xlink:href="#ArialMT-64" x="889.257812"/>
      <use xlink:href="#ArialMT-65" x="944.873047"/>
     </g>
    </g>
   </g>
   <g id="line2d_31">
    <path d="M 75.45 180.992282 
L 86.215814 181.091688 
L 88.760461 181.387172 
L 90.913624 181.85658 
L 92.871045 182.524995 
L 94.632724 183.377582 
L 96.19866 184.376988 
L 97.764597 185.642064 
L 99.330534 187.210457 
L 100.89647 189.11972 
L 102.462407 191.406208 
L 104.028344 194.103761 
L 105.59428 197.24215 
L 107.160217 200.845306 
L 108.921895 205.474063 
L 110.683574 210.718642 
L 112.640995 217.251749 
L 114.794158 225.231179 
L 117.338805 235.541985 
L 124.189778 263.940258 
L 125.168488 266.832432 
L 125.755714 267.977674 
L 126.147198 268.385223 
L 126.538683 268.467495 
L 126.930167 268.232382 
L 127.321651 267.726323 
L 127.908877 266.600746 
L 129.08333 263.688613 
L 132.802429 254.114448 
L 135.542818 247.271053 
L 136.717271 243.740993 
L 137.891723 239.425505 
L 138.870434 235.021696 
L 140.044886 228.573621 
L 141.219339 220.726706 
L 142.393791 211.432526 
L 143.763986 198.806049 
L 145.329922 182.228232 
L 147.287343 158.870379 
L 150.223474 120.604946 
L 153.355347 80.352118 
L 155.117026 60.500766 
L 156.487221 47.547424 
L 157.465931 40.016172 
L 158.444641 34.173194 
L 159.22761 30.857097 
L 159.814836 29.229224 
L 160.20632 28.575365 
L 160.597804 28.279532 
L 160.989288 28.35207 
L 161.380773 28.802624 
L 161.772257 29.640093 
L 162.359483 31.639255 
L 162.946709 34.550743 
L 163.729678 39.884247 
L 164.512646 46.9046 
L 165.491356 58.072733 
L 166.470067 71.886719 
L 167.644519 91.870547 
L 169.014714 119.625759 
L 170.58065 156.581181 
L 172.538071 208.981253 
L 174.495492 262.832734 
L 174.691234 265.806017 
L 174.886976 265.738176 
L 175.27846 258.08657 
L 176.648655 218.952218 
L 179.389044 141.967621 
L 180.954981 103.65959 
L 182.325175 75.266651 
L 183.499628 55.494301 
L 184.478338 42.599961 
L 185.261306 34.77819 
L 186.044275 29.250881 
L 186.631501 26.63607 
L 187.022985 25.625458 
L 187.414469 25.2 
L 187.610211 25.205822 
L 187.805953 25.356619 
L 188.197437 26.090197 
L 188.588922 27.393584 
L 189.176148 30.396439 
L 189.763374 34.620879 
L 190.546342 42.067205 
L 191.525053 54.083992 
L 192.699505 72.019419 
L 194.0697 96.891341 
L 196.027121 137.309853 
L 199.941962 219.576418 
L 201.312157 243.255913 
L 202.095125 253.766871 
L 202.682351 258.96006 
L 203.073835 260.47739 
L 203.269578 260.583326 
L 203.46532 260.294352 
L 203.856804 258.809071 
L 204.639772 254.144985 
L 205.814225 247.38087 
L 206.597193 244.240821 
L 207.184419 242.750876 
L 207.575903 242.16759 
L 207.967387 241.897861 
L 208.358872 241.921473 
L 208.750356 242.211403 
L 209.337582 243.06873 
L 210.12055 244.756079 
L 211.295003 247.398919 
L 211.882229 248.159146 
L 212.273713 248.25413 
L 212.665197 247.938599 
L 213.056681 247.175295 
L 213.643908 245.194421 
L 214.231134 242.325633 
L 215.209844 236.146593 
L 218.733202 212.185424 
L 219.711912 207.581695 
L 220.49488 204.989124 
L 221.082107 203.739652 
L 221.473591 203.250519 
L 221.865075 203.040721 
L 222.256559 203.111359 
L 222.648043 203.461341 
L 223.039528 204.087458 
L 223.626754 205.532368 
L 224.21398 207.560462 
L 224.996948 211.110032 
L 225.975659 216.752905 
L 227.150111 224.950537 
L 228.91179 239.066819 
L 231.847921 262.662448 
L 233.022374 270.392866 
L 233.6096 273.180042 
L 233.805342 273.58916 
L 234.001084 273.516815 
L 234.392568 272.402847 
L 235.762763 267.765739 
L 236.545731 265.966254 
L 237.132957 265.056051 
L 237.720183 264.467723 
L 238.503152 264.033952 
L 239.677604 263.499674 
L 240.26483 262.932882 
L 240.852057 261.972238 
L 241.439283 260.547678 
L 242.222251 257.948706 
L 243.200962 253.823628 
L 247.507287 234.32973 
L 248.485998 231.468273 
L 249.268966 229.921622 
L 249.856192 229.23347 
L 250.247676 229.008003 
L 250.639161 228.97199 
L 251.030645 229.126073 
L 251.422129 229.469346 
L 252.009355 230.33327 
L 252.596581 231.602695 
L 253.37955 233.888019 
L 254.35826 237.597239 
L 255.532713 243.064522 
L 257.294391 252.565194 
L 260.03478 267.346105 
L 261.013491 271.508778 
L 261.404975 272.665254 
L 261.796459 273.17241 
L 261.992201 273.111629 
L 262.383685 272.528177 
L 264.341106 268.669917 
L 265.124074 267.808263 
L 265.907043 267.338883 
L 268.060206 266.445935 
L 268.647432 265.737902 
L 269.234658 264.652363 
L 270.017626 262.620301 
L 270.996337 259.323071 
L 272.758016 252.300116 
L 274.715436 244.697154 
L 275.889889 241.000241 
L 276.868599 238.68727 
L 277.651568 237.428645 
L 278.238794 236.858076 
L 278.82602 236.619545 
L 279.217504 236.647403 
L 279.80473 236.96916 
L 280.391957 237.621812 
L 280.979183 238.594601 
L 281.762151 240.361258 
L 282.740862 243.249561 
L 283.915314 247.537489 
L 285.481251 254.189492 
L 288.613124 267.757235 
L 289.591834 271.078329 
L 290.179061 272.425054 
L 290.570545 272.830206 
L 290.962029 272.767701 
L 291.353513 272.366211 
L 293.506676 269.601219 
L 294.289644 269.085049 
L 295.268355 268.746643 
L 296.247065 268.424789 
L 296.834291 268.03965 
L 297.421518 267.389277 
L 298.008744 266.417902 
L 298.791712 264.619691 
L 299.770422 261.693179 
L 301.140617 256.780313 
L 304.468232 244.437774 
L 305.642685 240.931828 
L 306.621395 238.627227 
L 307.404364 237.254494 
L 308.187332 236.336982 
L 308.774558 235.960658 
L 309.361784 235.856805 
L 309.949011 236.02598 
L 310.536237 236.465017 
L 311.123463 237.167148 
L 311.906431 238.494458 
L 312.885142 240.73401 
L 314.059594 244.158382 
L 315.429789 248.936365 
L 317.974436 258.899783 
L 319.931857 266.184485 
L 320.910567 269.171232 
L 321.693535 270.913391 
L 322.280762 271.622318 
L 322.672246 271.753758 
L 323.06373 271.643199 
L 323.650956 271.182968 
L 325.804119 269.183098 
L 326.782829 268.675974 
L 329.327476 267.672368 
L 329.914703 267.131346 
L 330.697671 266.039604 
L 331.480639 264.498562 
L 332.45935 262.00013 
L 333.633802 258.356825 
L 335.591223 251.413261 
L 338.527354 240.983839 
L 340.093291 236.263316 
L 341.267743 233.36715 
L 342.246454 231.455551 
L 343.225164 230.043725 
L 344.008132 229.292089 
L 344.791101 228.884212 
L 345.378327 228.804945 
L 345.965553 228.918554 
L 346.552779 229.22202 
L 347.335748 229.913848 
L 348.118716 230.919991 
L 349.097426 232.590048 
L 350.271879 235.137107 
L 351.642073 238.735822 
L 353.403752 244.083071 
L 358.688788 260.707494 
L 359.863241 263.492815 
L 360.841951 265.238339 
L 361.624919 266.182271 
L 362.212146 266.616293 
L 362.799372 266.833892 
L 363.58234 266.852092 
L 364.561051 266.59936 
L 367.105698 265.80798 
L 368.28015 265.758466 
L 369.454603 265.968813 
L 371.216281 266.582215 
L 372.390734 266.894191 
L 373.173702 266.876874 
L 373.760928 266.673815 
L 374.348155 266.271861 
L 375.131123 265.401194 
L 375.914091 264.155558 
L 376.892802 262.132374 
L 378.067254 259.15481 
L 379.633191 254.510578 
L 381.786354 247.3402 
L 390.986231 215.728159 
L 393.335136 208.902465 
L 395.292557 203.841482 
L 397.249978 199.381256 
L 399.011656 195.882928 
L 400.773335 192.860488 
L 402.535014 190.290523 
L 404.296693 188.141525 
L 406.058371 186.376271 
L 407.82005 184.953954 
L 409.581729 183.832042 
L 411.343407 182.967869 
L 413.300828 182.259572 
L 415.453991 181.725046 
L 417.998638 181.338743 
L 421.130511 181.103165 
L 425.828321 180.99787 
L 427.59 180.992282 
L 427.59 180.992282 
" clip-path="url(#p362818fca8)" style="fill: none; stroke: #4daf4a; stroke-width: 2.25; stroke-linecap: round"/>
   </g>
   <g id="patch_3">
    <path d="M 75.45 275.7 
L 75.45 25.2 
" style="fill: none; stroke: #cccccc; stroke-width: 1.875; stroke-linejoin: miter; stroke-linecap: square"/>
   </g>
   <g id="patch_4">
    <path d="M 427.59 275.7 
L 427.59 25.2 
" style="fill: none; stroke: #cccccc; stroke-width: 1.875; stroke-linejoin: miter; stroke-linecap: square"/>
   </g>
   <g id="patch_5">
    <path d="M 75.45 278.7 
L 427.59 278.7 
" style="fill: none; stroke: #cccccc; stroke-width: 1.875; stroke-linejoin: miter; stroke-linecap: square"/>
   </g>
  </g>
 </g>
 <defs>
  <clipPath id="p362818fca8">
   <rect x="75.45" y="25.2" width="352.14" height="250.5"/>
  </clipPath>
 </defs>
</svg>
