<?xml version="1.0" encoding="utf-8" standalone="no"?>
<!DOCTYPE svg PUBLIC "-//W3C//DTD SVG 1.1//EN"
  "http://www.w3.org/Graphics/SVG/1.1/DTD/svg11.dtd">
<svg xmlns:xlink="http://www.w3.org/1999/xlink" width="460.8pt" height="345.6pt" viewBox="0 0 460.8 345.6" xmlns="http://www.w3.org/2000/svg" version="1.1">
 <metadata>
  <rdf:RDF xmlns:dc="http://purl.org/dc/elements/1.1/" xmlns:cc="http://creativecommons.org/ns#" xmlns:rdf="http://www.w3.org/1999/02/22-rdf-syntax-ns#">
   <cc:Work>
    <dc:type rdf:resource="http://purl.org/dc/dcmitype/StillImage"/>
    <dc:date>2023-12-01T01:52:25.027072</dc:date>
    <dc:format>image/svg+xml</dc:format>
    <dc:creator>
     <cc:Agent>
      <dc:title>Matplotlib v3.8.0, https://matplotlib.org/</dc:title>
     </cc:Agent>
    </dc:creator>
   </cc:Work>
  </rdf:RDF>
 </metadata>
 <defs>
  <style type="text/css">*{stroke-linejoin: round; stroke-linecap: butt}</style>
 </defs>
 <g id="figure_1">
  <g id="patch_1">
   <path d="M 0 345.6 
L 460.8 345.6 
L 460.8 0 
L 0 0 
z
" style="fill: #ffffff"/>
  </g>
  <g id="axes_1">
   <g id="patch_2">
    <path d="M 75.45 275.7 
L 427.59 275.7 
L 427.59 25.2 
L 75.45 25.2 
z
" style="fill: #ffffff"/>
   </g>
   <g id="matplotlib.axis_1">
    <g id="xtick_1">
     <g id="line2d_1">
      <path d="M 75.45 275.7 
L 75.45 25.2 
" clip-path="url(#p517d3a8d55)" style="fill: none; stroke: #cccccc; stroke-width: 0.4; stroke-linecap: round"/>
     </g>
     <g id="text_1">
      <!-- 0 -->
      <g style="fill: #262626" transform="translate(70.862227 303.010391) scale(0.165 -0.165)">
       <defs>
        <path id="ArialMT-30" d="M 266 2259 
Q 266 3072 433 3567 
Q 600 4063 929 4331 
Q 1259 4600 1759 4600 
Q 2128 4600 2406 4451 
Q 2684 4303 2865 4023 
Q 3047 3744 3150 3342 
Q 3253 2941 3253 2259 
Q 3253 1453 3087 958 
Q 2922 463 2592 192 
Q 2263 -78 1759 -78 
Q 1097 -78 719 397 
Q 266 969 266 2259 
z
M 844 2259 
Q 844 1131 1108 757 
Q 1372 384 1759 384 
Q 2147 384 2411 759 
Q 2675 1134 2675 2259 
Q 2675 3391 2411 3762 
Q 2147 4134 1753 4134 
Q 1366 4134 1134 3806 
Q 844 3388 844 2259 
z
" transform="scale(0.015625)"/>
       </defs>
       <use xlink:href="#ArialMT-30"/>
      </g>
     </g>
    </g>
    <g id="xtick_2">
     <g id="line2d_2">
      <path d="M 114.576667 275.7 
L 114.576667 25.2 
" clip-path="url(#p517d3a8d55)" style="fill: none; stroke: #cccccc; stroke-width: 0.4; stroke-linecap: round"/>
     </g>
     <g id="text_2">
      <!-- 20 -->
      <g style="fill: #262626" transform="translate(105.40112 303.010391) scale(0.165 -0.165)">
       <defs>
        <path id="ArialMT-32" d="M 3222 541 
L 3222 0 
L 194 0 
Q 188 203 259 391 
Q 375 700 629 1000 
Q 884 1300 1366 1694 
Q 2113 2306 2375 2664 
Q 2638 3022 2638 3341 
Q 2638 3675 2398 3904 
Q 2159 4134 1775 4134 
Q 1369 4134 1125 3890 
Q 881 3647 878 3216 
L 300 3275 
Q 359 3922 746 4261 
Q 1134 4600 1788 4600 
Q 2447 4600 2831 4234 
Q 3216 3869 3216 3328 
Q 3216 3053 3103 2787 
Q 2991 2522 2730 2228 
Q 2469 1934 1863 1422 
Q 1356 997 1212 845 
Q 1069 694 975 541 
L 3222 541 
z
" transform="scale(0.015625)"/>
       </defs>
       <use xlink:href="#ArialMT-32"/>
       <use xlink:href="#ArialMT-30" x="55.615234"/>
      </g>
     </g>
    </g>
    <g id="xtick_3">
     <g id="line2d_3">
      <path d="M 153.703333 275.7 
L 153.703333 25.2 
" clip-path="url(#p517d3a8d55)" style="fill: none; stroke: #cccccc; stroke-width: 0.4; stroke-linecap: round"/>
     </g>
     <g id="text_3">
      <!-- 40 -->
      <g style="fill: #262626" transform="translate(144.527786 303.010391) scale(0.165 -0.165)">
       <defs>
        <path id="ArialMT-34" d="M 2069 0 
L 2069 1097 
L 81 1097 
L 81 1613 
L 2172 4581 
L 2631 4581 
L 2631 1613 
L 3250 1613 
L 3250 1097 
L 2631 1097 
L 2631 0 
L 2069 0 
z
M 2069 1613 
L 2069 3678 
L 634 1613 
L 2069 1613 
z
" transform="scale(0.015625)"/>
       </defs>
       <use xlink:href="#ArialMT-34"/>
       <use xlink:href="#ArialMT-30" x="55.615234"/>
      </g>
     </g>
    </g>
    <g id="xtick_4">
     <g id="line2d_4">
      <path d="M 192.83 275.7 
L 192.83 25.2 
" clip-path="url(#p517d3a8d55)" style="fill: none; stroke: #cccccc; stroke-width: 0.4; stroke-linecap: round"/>
     </g>
     <g id="text_4">
      <!-- 60 -->
      <g style="fill: #262626" transform="translate(183.654453 303.010391) scale(0.165 -0.165)">
       <defs>
        <path id="ArialMT-36" d="M 3184 3459 
L 2625 3416 
Q 2550 3747 2413 3897 
Q 2184 4138 1850 4138 
Q 1581 4138 1378 3988 
Q 1113 3794 959 3422 
Q 806 3050 800 2363 
Q 1003 2672 1297 2822 
Q 1591 2972 1913 2972 
Q 2475 2972 2870 2558 
Q 3266 2144 3266 1488 
Q 3266 1056 3080 686 
Q 2894 316 2569 119 
Q 2244 -78 1831 -78 
Q 1128 -78 684 439 
Q 241 956 241 2144 
Q 241 3472 731 4075 
Q 1159 4600 1884 4600 
Q 2425 4600 2770 4297 
Q 3116 3994 3184 3459 
z
M 888 1484 
Q 888 1194 1011 928 
Q 1134 663 1356 523 
Q 1578 384 1822 384 
Q 2178 384 2434 671 
Q 2691 959 2691 1453 
Q 2691 1928 2437 2201 
Q 2184 2475 1800 2475 
Q 1419 2475 1153 2201 
Q 888 1928 888 1484 
z
" transform="scale(0.015625)"/>
       </defs>
       <use xlink:href="#ArialMT-36"/>
       <use xlink:href="#ArialMT-30" x="55.615234"/>
      </g>
     </g>
    </g>
    <g id="xtick_5">
     <g id="line2d_5">
      <path d="M 231.956667 275.7 
L 231.956667 25.2 
" clip-path="url(#p517d3a8d55)" style="fill: none; stroke: #cccccc; stroke-width: 0.4; stroke-linecap: round"/>
     </g>
     <g id="text_5">
      <!-- 80 -->
      <g style="fill: #262626" transform="translate(222.78112 303.010391) scale(0.165 -0.165)">
       <defs>
        <path id="ArialMT-38" d="M 1131 2484 
Q 781 2613 612 2850 
Q 444 3088 444 3419 
Q 444 3919 803 4259 
Q 1163 4600 1759 4600 
Q 2359 4600 2725 4251 
Q 3091 3903 3091 3403 
Q 3091 3084 2923 2848 
Q 2756 2613 2416 2484 
Q 2838 2347 3058 2040 
Q 3278 1734 3278 1309 
Q 3278 722 2862 322 
Q 2447 -78 1769 -78 
Q 1091 -78 675 323 
Q 259 725 259 1325 
Q 259 1772 486 2073 
Q 713 2375 1131 2484 
z
M 1019 3438 
Q 1019 3113 1228 2906 
Q 1438 2700 1772 2700 
Q 2097 2700 2305 2904 
Q 2513 3109 2513 3406 
Q 2513 3716 2298 3927 
Q 2084 4138 1766 4138 
Q 1444 4138 1231 3931 
Q 1019 3725 1019 3438 
z
M 838 1322 
Q 838 1081 952 856 
Q 1066 631 1291 507 
Q 1516 384 1775 384 
Q 2178 384 2440 643 
Q 2703 903 2703 1303 
Q 2703 1709 2433 1975 
Q 2163 2241 1756 2241 
Q 1359 2241 1098 1978 
Q 838 1716 838 1322 
z
" transform="scale(0.015625)"/>
       </defs>
       <use xlink:href="#ArialMT-38"/>
       <use xlink:href="#ArialMT-30" x="55.615234"/>
      </g>
     </g>
    </g>
    <g id="xtick_6">
     <g id="line2d_6">
      <path d="M 271.083333 275.7 
L 271.083333 25.2 
" clip-path="url(#p517d3a8d55)" style="fill: none; stroke: #cccccc; stroke-width: 0.4; stroke-linecap: round"/>
     </g>
     <g id="text_6">
      <!-- 100 -->
      <g style="fill: #262626" transform="translate(257.320013 303.010391) scale(0.165 -0.165)">
       <defs>
        <path id="ArialMT-31" d="M 2384 0 
L 1822 0 
L 1822 3584 
Q 1619 3391 1289 3197 
Q 959 3003 697 2906 
L 697 3450 
Q 1169 3672 1522 3987 
Q 1875 4303 2022 4600 
L 2384 4600 
L 2384 0 
z
" transform="scale(0.015625)"/>
       </defs>
       <use xlink:href="#ArialMT-31"/>
       <use xlink:href="#ArialMT-30" x="55.615234"/>
       <use xlink:href="#ArialMT-30" x="111.230469"/>
      </g>
     </g>
    </g>
    <g id="xtick_7">
     <g id="line2d_7">
      <path d="M 310.21 275.7 
L 310.21 25.2 
" clip-path="url(#p517d3a8d55)" style="fill: none; stroke: #cccccc; stroke-width: 0.4; stroke-linecap: round"/>
     </g>
     <g id="text_7">
      <!-- 120 -->
      <g style="fill: #262626" transform="translate(296.44668 303.010391) scale(0.165 -0.165)">
       <use xlink:href="#ArialMT-31"/>
       <use xlink:href="#ArialMT-32" x="55.615234"/>
       <use xlink:href="#ArialMT-30" x="111.230469"/>
      </g>
     </g>
    </g>
    <g id="xtick_8">
     <g id="line2d_8">
      <path d="M 349.336667 275.7 
L 349.336667 25.2 
" clip-path="url(#p517d3a8d55)" style="fill: none; stroke: #cccccc; stroke-width: 0.4; stroke-linecap: round"/>
     </g>
     <g id="text_8">
      <!-- 140 -->
      <g style="fill: #262626" transform="translate(335.573346 303.010391) scale(0.165 -0.165)">
       <use xlink:href="#ArialMT-31"/>
       <use xlink:href="#ArialMT-34" x="55.615234"/>
       <use xlink:href="#ArialMT-30" x="111.230469"/>
      </g>
     </g>
    </g>
    <g id="xtick_9">
     <g id="line2d_9">
      <path d="M 388.463333 275.7 
L 388.463333 25.2 
" clip-path="url(#p517d3a8d55)" style="fill: none; stroke: #cccccc; stroke-width: 0.4; stroke-linecap: round"/>
     </g>
     <g id="text_9">
      <!-- 160 -->
      <g style="fill: #262626" transform="translate(374.700013 303.010391) scale(0.165 -0.165)">
       <use xlink:href="#ArialMT-31"/>
       <use xlink:href="#ArialMT-36" x="55.615234"/>
       <use xlink:href="#ArialMT-30" x="111.230469"/>
      </g>
     </g>
    </g>
    <g id="xtick_10">
     <g id="line2d_10">
      <path d="M 427.59 275.7 
L 427.59 25.2 
" clip-path="url(#p517d3a8d55)" style="fill: none; stroke: #cccccc; stroke-width: 0.4; stroke-linecap: round"/>
     </g>
     <g id="text_10">
      <!-- 180 -->
      <g style="fill: #262626" transform="translate(413.82668 303.010391) scale(0.165 -0.165)">
       <use xlink:href="#ArialMT-31"/>
       <use xlink:href="#ArialMT-38" x="55.615234"/>
       <use xlink:href="#ArialMT-30" x="111.230469"/>
      </g>
     </g>
    </g>
    <g id="xtick_11">
     <g id="line2d_11">
      <path d="M 95.013333 275.7 
L 95.013333 25.2 
" clip-path="url(#p517d3a8d55)" style="fill: none; stroke-dasharray: 0.2,0.33; stroke-dashoffset: 0; stroke: #cccccc; stroke-width: 0.2"/>
     </g>
    </g>
    <g id="xtick_12">
     <g id="line2d_12">
      <path d="M 134.14 275.7 
L 134.14 25.2 
" clip-path="url(#p517d3a8d55)" style="fill: none; stroke-dasharray: 0.2,0.33; stroke-dashoffset: 0; stroke: #cccccc; stroke-width: 0.2"/>
     </g>
    </g>
    <g id="xtick_13">
     <g id="line2d_13">
      <path d="M 173.266667 275.7 
L 173.266667 25.2 
" clip-path="url(#p517d3a8d55)" style="fill: none; stroke-dasharray: 0.2,0.33; stroke-dashoffset: 0; stroke: #cccccc; stroke-width: 0.2"/>
     </g>
    </g>
    <g id="xtick_14">
     <g id="line2d_14">
      <path d="M 212.393333 275.7 
L 212.393333 25.2 
" clip-path="url(#p517d3a8d55)" style="fill: none; stroke-dasharray: 0.2,0.33; stroke-dashoffset: 0; stroke: #cccccc; stroke-width: 0.2"/>
     </g>
    </g>
    <g id="xtick_15">
     <g id="line2d_15">
      <path d="M 251.52 275.7 
L 251.52 25.2 
" clip-path="url(#p517d3a8d55)" style="fill: none; stroke-dasharray: 0.2,0.33; stroke-dashoffset: 0; stroke: #cccccc; stroke-width: 0.2"/>
     </g>
    </g>
    <g id="xtick_16">
     <g id="line2d_16">
      <path d="M 290.646667 275.7 
L 290.646667 25.2 
" clip-path="url(#p517d3a8d55)" style="fill: none; stroke-dasharray: 0.2,0.33; stroke-dashoffset: 0; stroke: #cccccc; stroke-width: 0.2"/>
     </g>
    </g>
    <g id="xtick_17">
     <g id="line2d_17">
      <path d="M 329.773333 275.7 
L 329.773333 25.2 
" clip-path="url(#p517d3a8d55)" style="fill: none; stroke-dasharray: 0.2,0.33; stroke-dashoffset: 0; stroke: #cccccc; stroke-width: 0.2"/>
     </g>
    </g>
    <g id="xtick_18">
     <g id="line2d_18">
      <path d="M 368.9 275.7 
L 368.9 25.2 
" clip-path="url(#p517d3a8d55)" style="fill: none; stroke-dasharray: 0.2,0.33; stroke-dashoffset: 0; stroke: #cccccc; stroke-width: 0.2"/>
     </g>
    </g>
    <g id="xtick_19">
     <g id="line2d_19">
      <path d="M 408.026667 275.7 
L 408.026667 25.2 
" clip-path="url(#p517d3a8d55)" style="fill: none; stroke-dasharray: 0.2,0.33; stroke-dashoffset: 0; stroke: #cccccc; stroke-width: 0.2"/>
     </g>
    </g>
    <g id="text_11">
     <!-- Angle (degrees) -->
     <g style="fill: #262626" transform="translate(187.487813 323.393203) scale(0.18 -0.18)">
      <defs>
       <path id="ArialMT-41" d="M -9 0 
L 1750 4581 
L 2403 4581 
L 4278 0 
L 3588 0 
L 3053 1388 
L 1138 1388 
L 634 0 
L -9 0 
z
M 1313 1881 
L 2866 1881 
L 2388 3150 
Q 2169 3728 2063 4100 
Q 1975 3659 1816 3225 
L 1313 1881 
z
" transform="scale(0.015625)"/>
       <path id="ArialMT-6e" d="M 422 0 
L 422 3319 
L 928 3319 
L 928 2847 
Q 1294 3394 1984 3394 
Q 2284 3394 2536 3286 
Q 2788 3178 2913 3003 
Q 3038 2828 3088 2588 
Q 3119 2431 3119 2041 
L 3119 0 
L 2556 0 
L 2556 2019 
Q 2556 2363 2490 2533 
Q 2425 2703 2258 2804 
Q 2091 2906 1866 2906 
Q 1506 2906 1245 2678 
Q 984 2450 984 1813 
L 984 0 
L 422 0 
z
" transform="scale(0.015625)"/>
       <path id="ArialMT-67" d="M 319 -275 
L 866 -356 
Q 900 -609 1056 -725 
Q 1266 -881 1628 -881 
Q 2019 -881 2231 -725 
Q 2444 -569 2519 -288 
Q 2563 -116 2559 434 
Q 2191 0 1641 0 
Q 956 0 581 494 
Q 206 988 206 1678 
Q 206 2153 378 2554 
Q 550 2956 876 3175 
Q 1203 3394 1644 3394 
Q 2231 3394 2613 2919 
L 2613 3319 
L 3131 3319 
L 3131 450 
Q 3131 -325 2973 -648 
Q 2816 -972 2473 -1159 
Q 2131 -1347 1631 -1347 
Q 1038 -1347 672 -1080 
Q 306 -813 319 -275 
z
M 784 1719 
Q 784 1066 1043 766 
Q 1303 466 1694 466 
Q 2081 466 2343 764 
Q 2606 1063 2606 1700 
Q 2606 2309 2336 2618 
Q 2066 2928 1684 2928 
Q 1309 2928 1046 2623 
Q 784 2319 784 1719 
z
" transform="scale(0.015625)"/>
       <path id="ArialMT-6c" d="M 409 0 
L 409 4581 
L 972 4581 
L 972 0 
L 409 0 
z
" transform="scale(0.015625)"/>
       <path id="ArialMT-65" d="M 2694 1069 
L 3275 997 
Q 3138 488 2766 206 
Q 2394 -75 1816 -75 
Q 1088 -75 661 373 
Q 234 822 234 1631 
Q 234 2469 665 2931 
Q 1097 3394 1784 3394 
Q 2450 3394 2872 2941 
Q 3294 2488 3294 1666 
Q 3294 1616 3291 1516 
L 816 1516 
Q 847 969 1125 678 
Q 1403 388 1819 388 
Q 2128 388 2347 550 
Q 2566 713 2694 1069 
z
M 847 1978 
L 2700 1978 
Q 2663 2397 2488 2606 
Q 2219 2931 1791 2931 
Q 1403 2931 1139 2672 
Q 875 2413 847 1978 
z
" transform="scale(0.015625)"/>
       <path id="ArialMT-20" transform="scale(0.015625)"/>
       <path id="ArialMT-28" d="M 1497 -1347 
Q 1031 -759 709 28 
Q 388 816 388 1659 
Q 388 2403 628 3084 
Q 909 3875 1497 4659 
L 1900 4659 
Q 1522 4009 1400 3731 
Q 1209 3300 1100 2831 
Q 966 2247 966 1656 
Q 966 153 1900 -1347 
L 1497 -1347 
z
" transform="scale(0.015625)"/>
       <path id="ArialMT-64" d="M 2575 0 
L 2575 419 
Q 2259 -75 1647 -75 
Q 1250 -75 917 144 
Q 584 363 401 755 
Q 219 1147 219 1656 
Q 219 2153 384 2558 
Q 550 2963 881 3178 
Q 1213 3394 1622 3394 
Q 1922 3394 2156 3267 
Q 2391 3141 2538 2938 
L 2538 4581 
L 3097 4581 
L 3097 0 
L 2575 0 
z
M 797 1656 
Q 797 1019 1065 703 
Q 1334 388 1700 388 
Q 2069 388 2326 689 
Q 2584 991 2584 1609 
Q 2584 2291 2321 2609 
Q 2059 2928 1675 2928 
Q 1300 2928 1048 2622 
Q 797 2316 797 1656 
z
" transform="scale(0.015625)"/>
       <path id="ArialMT-72" d="M 416 0 
L 416 3319 
L 922 3319 
L 922 2816 
Q 1116 3169 1280 3281 
Q 1444 3394 1641 3394 
Q 1925 3394 2219 3213 
L 2025 2691 
Q 1819 2813 1613 2813 
Q 1428 2813 1281 2702 
Q 1134 2591 1072 2394 
Q 978 2094 978 1738 
L 978 0 
L 416 0 
z
" transform="scale(0.015625)"/>
       <path id="ArialMT-73" d="M 197 991 
L 753 1078 
Q 800 744 1014 566 
Q 1228 388 1613 388 
Q 2000 388 2187 545 
Q 2375 703 2375 916 
Q 2375 1106 2209 1216 
Q 2094 1291 1634 1406 
Q 1016 1563 777 1677 
Q 538 1791 414 1992 
Q 291 2194 291 2438 
Q 291 2659 392 2848 
Q 494 3038 669 3163 
Q 800 3259 1026 3326 
Q 1253 3394 1513 3394 
Q 1903 3394 2198 3281 
Q 2494 3169 2634 2976 
Q 2775 2784 2828 2463 
L 2278 2388 
Q 2241 2644 2061 2787 
Q 1881 2931 1553 2931 
Q 1166 2931 1000 2803 
Q 834 2675 834 2503 
Q 834 2394 903 2306 
Q 972 2216 1119 2156 
Q 1203 2125 1616 2013 
Q 2213 1853 2448 1751 
Q 2684 1650 2818 1456 
Q 2953 1263 2953 975 
Q 2953 694 2789 445 
Q 2625 197 2315 61 
Q 2006 -75 1616 -75 
Q 969 -75 630 194 
Q 291 463 197 991 
z
" transform="scale(0.015625)"/>
       <path id="ArialMT-29" d="M 791 -1347 
L 388 -1347 
Q 1322 153 1322 1656 
Q 1322 2244 1188 2822 
Q 1081 3291 891 3722 
Q 769 4003 388 4659 
L 791 4659 
Q 1378 3875 1659 3084 
Q 1900 2403 1900 1659 
Q 1900 816 1576 28 
Q 1253 -759 791 -1347 
z
" transform="scale(0.015625)"/>
      </defs>
      <use xlink:href="#ArialMT-41"/>
      <use xlink:href="#ArialMT-6e" x="66.699219"/>
      <use xlink:href="#ArialMT-67" x="122.314453"/>
      <use xlink:href="#ArialMT-6c" x="177.929688"/>
      <use xlink:href="#ArialMT-65" x="200.146484"/>
      <use xlink:href="#ArialMT-20" x="255.761719"/>
      <use xlink:href="#ArialMT-28" x="283.544922"/>
      <use xlink:href="#ArialMT-64" x="316.845703"/>
      <use xlink:href="#ArialMT-65" x="372.460938"/>
      <use xlink:href="#ArialMT-67" x="428.076172"/>
      <use xlink:href="#ArialMT-72" x="483.691406"/>
      <use xlink:href="#ArialMT-65" x="516.992188"/>
      <use xlink:href="#ArialMT-65" x="572.607422"/>
      <use xlink:href="#ArialMT-73" x="628.222656"/>
      <use xlink:href="#ArialMT-29" x="678.222656"/>
     </g>
    </g>
   </g>
   <g id="matplotlib.axis_2">
    <g id="ytick_1">
     <g id="line2d_20">
      <path d="M 75.45 275.7 
L 427.59 275.7 
" clip-path="url(#p517d3a8d55)" style="fill: none; stroke: #cccccc; stroke-width: 0.4; stroke-linecap: round"/>
     </g>
     <g id="text_12">
      <!-- 0.0 -->
      <g style="fill: #262626" transform="translate(40.015 281.605195) scale(0.165 -0.165)">
       <defs>
        <path id="ArialMT-2e" d="M 581 0 
L 581 641 
L 1222 641 
L 1222 0 
L 581 0 
z
" transform="scale(0.015625)"/>
       </defs>
       <use xlink:href="#ArialMT-30"/>
       <use xlink:href="#ArialMT-2e" x="55.615234"/>
       <use xlink:href="#ArialMT-30" x="83.398438"/>
      </g>
     </g>
    </g>
    <g id="ytick_2">
     <g id="line2d_21">
      <path d="M 75.45 225.6 
L 427.59 225.6 
" clip-path="url(#p517d3a8d55)" style="fill: none; stroke: #cccccc; stroke-width: 0.4; stroke-linecap: round"/>
     </g>
     <g id="text_13">
      <!-- 0.2 -->
      <g style="fill: #262626" transform="translate(40.015 231.505195) scale(0.165 -0.165)">
       <use xlink:href="#ArialMT-30"/>
       <use xlink:href="#ArialMT-2e" x="55.615234"/>
       <use xlink:href="#ArialMT-32" x="83.398438"/>
      </g>
     </g>
    </g>
    <g id="ytick_3">
     <g id="line2d_22">
      <path d="M 75.45 175.5 
L 427.59 175.5 
" clip-path="url(#p517d3a8d55)" style="fill: none; stroke: #cccccc; stroke-width: 0.4; stroke-linecap: round"/>
     </g>
     <g id="text_14">
      <!-- 0.4 -->
      <g style="fill: #262626" transform="translate(40.015 181.405195) scale(0.165 -0.165)">
       <use xlink:href="#ArialMT-30"/>
       <use xlink:href="#ArialMT-2e" x="55.615234"/>
       <use xlink:href="#ArialMT-34" x="83.398438"/>
      </g>
     </g>
    </g>
    <g id="ytick_4">
     <g id="line2d_23">
      <path d="M 75.45 125.4 
L 427.59 125.4 
" clip-path="url(#p517d3a8d55)" style="fill: none; stroke: #cccccc; stroke-width: 0.4; stroke-linecap: round"/>
     </g>
     <g id="text_15">
      <!-- 0.6 -->
      <g style="fill: #262626" transform="translate(40.015 131.305195) scale(0.165 -0.165)">
       <use xlink:href="#ArialMT-30"/>
       <use xlink:href="#ArialMT-2e" x="55.615234"/>
       <use xlink:href="#ArialMT-36" x="83.398438"/>
      </g>
     </g>
    </g>
    <g id="ytick_5">
     <g id="line2d_24">
      <path d="M 75.45 75.3 
L 427.59 75.3 
" clip-path="url(#p517d3a8d55)" style="fill: none; stroke: #cccccc; stroke-width: 0.4; stroke-linecap: round"/>
     </g>
     <g id="text_16">
      <!-- 0.8 -->
      <g style="fill: #262626" transform="translate(40.015 81.205195) scale(0.165 -0.165)">
       <use xlink:href="#ArialMT-30"/>
       <use xlink:href="#ArialMT-2e" x="55.615234"/>
       <use xlink:href="#ArialMT-38" x="83.398438"/>
      </g>
     </g>
    </g>
    <g id="ytick_6">
     <g id="line2d_25">
      <path d="M 75.45 25.2 
L 427.59 25.2 
" clip-path="url(#p517d3a8d55)" style="fill: none; stroke: #cccccc; stroke-width: 0.4; stroke-linecap: round"/>
     </g>
     <g id="text_17">
      <!-- 1.0 -->
      <g style="fill: #262626" transform="translate(40.015 31.105195) scale(0.165 -0.165)">
       <use xlink:href="#ArialMT-31"/>
       <use xlink:href="#ArialMT-2e" x="55.615234"/>
       <use xlink:href="#ArialMT-30" x="83.398438"/>
      </g>
     </g>
    </g>
    <g id="ytick_7">
     <g id="line2d_26">
      <path d="M 75.45 250.65 
L 427.59 250.65 
" clip-path="url(#p517d3a8d55)" style="fill: none; stroke-dasharray: 0.2,0.33; stroke-dashoffset: 0; stroke: #cccccc; stroke-width: 0.2"/>
     </g>
    </g>
    <g id="ytick_8">
     <g id="line2d_27">
      <path d="M 75.45 200.55 
L 427.59 200.55 
" clip-path="url(#p517d3a8d55)" style="fill: none; stroke-dasharray: 0.2,0.33; stroke-dashoffset: 0; stroke: #cccccc; stroke-width: 0.2"/>
     </g>
    </g>
    <g id="ytick_9">
     <g id="line2d_28">
      <path d="M 75.45 150.45 
L 427.59 150.45 
" clip-path="url(#p517d3a8d55)" style="fill: none; stroke-dasharray: 0.2,0.33; stroke-dashoffset: 0; stroke: #cccccc; stroke-width: 0.2"/>
     </g>
    </g>
    <g id="ytick_10">
     <g id="line2d_29">
      <path d="M 75.45 100.35 
L 427.59 100.35 
" clip-path="url(#p517d3a8d55)" style="fill: none; stroke-dasharray: 0.2,0.33; stroke-dashoffset: 0; stroke: #cccccc; stroke-width: 0.2"/>
     </g>
    </g>
    <g id="ytick_11">
     <g id="line2d_30">
      <path d="M 75.45 50.25 
L 427.59 50.25 
" clip-path="url(#p517d3a8d55)" style="fill: none; stroke-dasharray: 0.2,0.33; stroke-dashoffset: 0; stroke: #cccccc; stroke-width: 0.2"/>
     </g>
    </g>
    <g id="text_18">
     <!-- Normalized Magnitude -->
     <g style="fill: #262626" transform="translate(32.226563 240.487969) rotate(-90) scale(0.18 -0.18)">
      <defs>
       <path id="ArialMT-4e" d="M 488 0 
L 488 4581 
L 1109 4581 
L 3516 984 
L 3516 4581 
L 4097 4581 
L 4097 0 
L 3475 0 
L 1069 3600 
L 1069 0 
L 488 0 
z
" transform="scale(0.015625)"/>
       <path id="ArialMT-6f" d="M 213 1659 
Q 213 2581 725 3025 
Q 1153 3394 1769 3394 
Q 2453 3394 2887 2945 
Q 3322 2497 3322 1706 
Q 3322 1066 3130 698 
Q 2938 331 2570 128 
Q 2203 -75 1769 -75 
Q 1072 -75 642 372 
Q 213 819 213 1659 
z
M 791 1659 
Q 791 1022 1069 705 
Q 1347 388 1769 388 
Q 2188 388 2466 706 
Q 2744 1025 2744 1678 
Q 2744 2294 2464 2611 
Q 2184 2928 1769 2928 
Q 1347 2928 1069 2612 
Q 791 2297 791 1659 
z
" transform="scale(0.015625)"/>
       <path id="ArialMT-6d" d="M 422 0 
L 422 3319 
L 925 3319 
L 925 2853 
Q 1081 3097 1340 3245 
Q 1600 3394 1931 3394 
Q 2300 3394 2536 3241 
Q 2772 3088 2869 2813 
Q 3263 3394 3894 3394 
Q 4388 3394 4653 3120 
Q 4919 2847 4919 2278 
L 4919 0 
L 4359 0 
L 4359 2091 
Q 4359 2428 4304 2576 
Q 4250 2725 4106 2815 
Q 3963 2906 3769 2906 
Q 3419 2906 3187 2673 
Q 2956 2441 2956 1928 
L 2956 0 
L 2394 0 
L 2394 2156 
Q 2394 2531 2256 2718 
Q 2119 2906 1806 2906 
Q 1569 2906 1367 2781 
Q 1166 2656 1075 2415 
Q 984 2175 984 1722 
L 984 0 
L 422 0 
z
" transform="scale(0.015625)"/>
       <path id="ArialMT-61" d="M 2588 409 
Q 2275 144 1986 34 
Q 1697 -75 1366 -75 
Q 819 -75 525 192 
Q 231 459 231 875 
Q 231 1119 342 1320 
Q 453 1522 633 1644 
Q 813 1766 1038 1828 
Q 1203 1872 1538 1913 
Q 2219 1994 2541 2106 
Q 2544 2222 2544 2253 
Q 2544 2597 2384 2738 
Q 2169 2928 1744 2928 
Q 1347 2928 1158 2789 
Q 969 2650 878 2297 
L 328 2372 
Q 403 2725 575 2942 
Q 747 3159 1072 3276 
Q 1397 3394 1825 3394 
Q 2250 3394 2515 3294 
Q 2781 3194 2906 3042 
Q 3031 2891 3081 2659 
Q 3109 2516 3109 2141 
L 3109 1391 
Q 3109 606 3145 398 
Q 3181 191 3288 0 
L 2700 0 
Q 2613 175 2588 409 
z
M 2541 1666 
Q 2234 1541 1622 1453 
Q 1275 1403 1131 1340 
Q 988 1278 909 1158 
Q 831 1038 831 891 
Q 831 666 1001 516 
Q 1172 366 1500 366 
Q 1825 366 2078 508 
Q 2331 650 2450 897 
Q 2541 1088 2541 1459 
L 2541 1666 
z
" transform="scale(0.015625)"/>
       <path id="ArialMT-69" d="M 425 3934 
L 425 4581 
L 988 4581 
L 988 3934 
L 425 3934 
z
M 425 0 
L 425 3319 
L 988 3319 
L 988 0 
L 425 0 
z
" transform="scale(0.015625)"/>
       <path id="ArialMT-7a" d="M 125 0 
L 125 456 
L 2238 2881 
Q 1878 2863 1603 2863 
L 250 2863 
L 250 3319 
L 2963 3319 
L 2963 2947 
L 1166 841 
L 819 456 
Q 1197 484 1528 484 
L 3063 484 
L 3063 0 
L 125 0 
z
" transform="scale(0.015625)"/>
       <path id="ArialMT-4d" d="M 475 0 
L 475 4581 
L 1388 4581 
L 2472 1338 
Q 2622 884 2691 659 
Q 2769 909 2934 1394 
L 4031 4581 
L 4847 4581 
L 4847 0 
L 4263 0 
L 4263 3834 
L 2931 0 
L 2384 0 
L 1059 3900 
L 1059 0 
L 475 0 
z
" transform="scale(0.015625)"/>
       <path id="ArialMT-74" d="M 1650 503 
L 1731 6 
Q 1494 -44 1306 -44 
Q 1000 -44 831 53 
Q 663 150 594 308 
Q 525 466 525 972 
L 525 2881 
L 113 2881 
L 113 3319 
L 525 3319 
L 525 4141 
L 1084 4478 
L 1084 3319 
L 1650 3319 
L 1650 2881 
L 1084 2881 
L 1084 941 
Q 1084 700 1114 631 
Q 1144 563 1211 522 
Q 1278 481 1403 481 
Q 1497 481 1650 503 
z
" transform="scale(0.015625)"/>
       <path id="ArialMT-75" d="M 2597 0 
L 2597 488 
Q 2209 -75 1544 -75 
Q 1250 -75 995 37 
Q 741 150 617 320 
Q 494 491 444 738 
Q 409 903 409 1263 
L 409 3319 
L 972 3319 
L 972 1478 
Q 972 1038 1006 884 
Q 1059 663 1231 536 
Q 1403 409 1656 409 
Q 1909 409 2131 539 
Q 2353 669 2445 892 
Q 2538 1116 2538 1541 
L 2538 3319 
L 3100 3319 
L 3100 0 
L 2597 0 
z
" transform="scale(0.015625)"/>
      </defs>
      <use xlink:href="#ArialMT-4e"/>
      <use xlink:href="#ArialMT-6f" x="72.216797"/>
      <use xlink:href="#ArialMT-72" x="127.832031"/>
      <use xlink:href="#ArialMT-6d" x="161.132812"/>
      <use xlink:href="#ArialMT-61" x="244.433594"/>
      <use xlink:href="#ArialMT-6c" x="300.048828"/>
      <use xlink:href="#ArialMT-69" x="322.265625"/>
      <use xlink:href="#ArialMT-7a" x="344.482422"/>
      <use xlink:href="#ArialMT-65" x="394.482422"/>
      <use xlink:href="#ArialMT-64" x="450.097656"/>
      <use xlink:href="#ArialMT-20" x="505.712891"/>
      <use xlink:href="#ArialMT-4d" x="533.496094"/>
      <use xlink:href="#ArialMT-61" x="616.796875"/>
      <use xlink:href="#ArialMT-67" x="672.412109"/>
      <use xlink:href="#ArialMT-6e" x="728.027344"/>
      <use xlink:href="#ArialMT-69" x="783.642578"/>
      <use xlink:href="#ArialMT-74" x="805.859375"/>
      <use xlink:href="#ArialMT-75" x="833.642578"/>
      <use xlink:href="#ArialMT-64" x="889.257812"/>
      <use xlink:href="#ArialMT-65" x="944.873047"/>
     </g>
    </g>
   </g>
   <g id="line2d_31">
    <path d="M 75.45 180.335675 
L 76.820195 180.232532 
L 78.190389 179.923448 
L 79.560584 179.409469 
L 81.12652 178.573523 
L 82.692457 177.47638 
L 84.258394 176.123741 
L 86.020072 174.306252 
L 87.977493 171.936782 
L 90.130656 168.935875 
L 92.479561 165.245532 
L 95.21995 160.49989 
L 99.722018 152.153306 
L 103.245375 145.798417 
L 105.398538 142.346395 
L 107.160217 139.94768 
L 108.530411 138.438927 
L 109.704864 137.450864 
L 110.683574 136.877054 
L 111.662285 136.558882 
L 112.445253 136.506886 
L 113.228221 136.650321 
L 114.01119 137.003398 
L 114.794158 137.580192 
L 115.577126 138.394495 
L 116.555837 139.766616 
L 117.534547 141.555125 
L 118.513257 143.782126 
L 119.68771 147.059454 
L 120.862162 151.018543 
L 122.232357 156.511828 
L 123.602551 162.929297 
L 125.168488 171.303172 
L 127.321651 184.168242 
L 130.06204 200.52947 
L 131.04075 205.289523 
L 131.823719 208.190705 
L 132.410945 209.65325 
L 132.802429 210.22441 
L 133.193913 210.437577 
L 133.585397 210.269046 
L 133.976882 209.702353 
L 134.368366 208.729259 
L 134.955592 206.510401 
L 135.542818 203.413163 
L 136.325787 198.032089 
L 137.304497 189.58486 
L 138.478949 177.486312 
L 140.240628 156.689116 
L 147.287343 69.974952 
L 148.85328 54.606104 
L 150.223474 43.403766 
L 151.397927 35.738469 
L 152.376637 30.857314 
L 153.159605 28.003916 
L 153.746832 26.502852 
L 154.334058 25.564575 
L 154.725542 25.257212 
L 155.117026 25.20748 
L 155.50851 25.417454 
L 155.899994 25.888662 
L 156.487221 27.087272 
L 157.074447 28.876611 
L 157.857415 32.177303 
L 158.640384 36.510865 
L 159.619094 43.344228 
L 160.793546 53.530375 
L 161.967999 65.729151 
L 163.338193 82.222475 
L 165.099872 106.35955 
L 167.448777 141.922215 
L 171.755103 207.555036 
L 173.321039 228.021186 
L 174.495492 240.735018 
L 175.27846 247.366022 
L 175.865686 251.059322 
L 176.452913 253.463942 
L 176.844397 254.324297 
L 177.235881 254.634479 
L 177.627365 254.481379 
L 178.018849 253.97769 
L 178.801818 252.374269 
L 180.172012 249.412701 
L 180.759238 248.525895 
L 181.346465 247.993052 
L 181.737949 247.854674 
L 182.129433 247.897377 
L 182.520917 248.123904 
L 183.108143 248.807998 
L 183.69537 249.897059 
L 184.478338 251.949013 
L 185.261306 254.632489 
L 186.240017 258.761293 
L 187.610211 265.673287 
L 189.37189 274.780638 
L 189.567632 274.141592 
L 190.937827 266.343937 
L 192.699505 256.779029 
L 194.0697 250.506526 
L 195.04841 246.889316 
L 196.027121 244.106969 
L 196.810089 242.527079 
L 197.397315 241.731225 
L 197.984541 241.27093 
L 198.571768 241.142766 
L 199.158994 241.338368 
L 199.74622 241.844421 
L 200.333446 242.642656 
L 201.116415 244.120585 
L 202.095125 246.532815 
L 203.46532 250.645368 
L 205.814225 257.892032 
L 206.597193 259.725316 
L 207.184419 260.719131 
L 207.771645 261.330027 
L 208.358872 261.55322 
L 208.946098 261.434042 
L 209.533324 261.056543 
L 210.707777 259.925389 
L 211.882229 258.864897 
L 212.665197 258.432491 
L 213.252424 258.311044 
L 213.83965 258.383402 
L 214.426876 258.655955 
L 215.209844 259.323646 
L 215.992813 260.305889 
L 217.167265 262.211662 
L 218.928944 265.119562 
L 219.51617 265.73017 
L 219.907654 265.940206 
L 220.299138 265.964184 
L 220.690623 265.793409 
L 221.277849 265.192861 
L 222.060817 263.883554 
L 223.23527 261.340319 
L 224.996948 257.531637 
L 225.975659 255.868897 
L 226.758627 254.895263 
L 227.541595 254.283658 
L 228.128822 254.076522 
L 228.716048 254.089111 
L 229.303274 254.319805 
L 229.8905 254.762353 
L 230.673469 255.662941 
L 231.652179 257.233791 
L 232.826631 259.63702 
L 236.741473 268.337507 
L 237.524441 269.321901 
L 238.111668 269.707762 
L 238.698894 269.804467 
L 239.481862 269.611556 
L 241.635025 268.806147 
L 242.417993 268.80396 
L 243.200962 269.02998 
L 244.179672 269.5957 
L 245.941351 270.776753 
L 246.528577 270.875481 
L 246.920061 270.764539 
L 247.507287 270.302781 
L 248.094514 269.520635 
L 249.073224 267.726488 
L 253.183808 259.471046 
L 254.162518 258.213457 
L 254.945486 257.538411 
L 255.728455 257.181703 
L 256.315681 257.129453 
L 256.902907 257.261918 
L 257.685875 257.718822 
L 258.468844 258.478166 
L 259.447554 259.806404 
L 260.622007 261.84631 
L 262.77517 266.215363 
L 264.145364 268.778126 
L 264.928332 269.88739 
L 265.515559 270.454636 
L 266.102785 270.764358 
L 266.690011 270.837886 
L 267.472979 270.686592 
L 269.4304 270.185296 
L 270.213369 270.236077 
L 270.996337 270.494918 
L 271.975047 271.082197 
L 273.736726 272.229187 
L 274.12821 272.272175 
L 274.519694 272.152513 
L 275.106921 271.650367 
L 275.694147 270.821942 
L 276.672857 268.985629 
L 281.174925 259.831912 
L 282.153635 258.507994 
L 282.936604 257.744031 
L 283.719572 257.265587 
L 284.50254 257.084292 
L 285.089767 257.145059 
L 285.872735 257.483673 
L 286.655703 258.103342 
L 287.634414 259.237307 
L 288.808866 261.037994 
L 290.374803 263.930873 
L 292.723708 268.275222 
L 293.702418 269.592057 
L 294.485386 270.23432 
L 295.072613 270.448384 
L 295.659839 270.463236 
L 296.638549 270.217373 
L 298.204486 269.781577 
L 298.987454 269.762626 
L 299.770422 269.945067 
L 300.553391 270.34456 
L 301.532101 271.131422 
L 303.685264 273.115235 
L 304.076748 273.148292 
L 304.468232 272.944283 
L 305.055459 272.243087 
L 305.838427 270.842186 
L 307.208621 267.842308 
L 310.340495 260.875276 
L 311.710689 258.422878 
L 312.6894 257.047254 
L 313.66811 256.037064 
L 314.451078 255.512496 
L 315.234047 255.249264 
L 316.017015 255.249175 
L 316.799983 255.507731 
L 317.582952 256.014273 
L 318.561662 256.970374 
L 319.540372 258.242933 
L 320.910567 260.444326 
L 323.259472 264.800006 
L 325.021151 267.846203 
L 325.999861 269.142322 
L 326.782829 269.853168 
L 327.565798 270.23514 
L 328.348766 270.323897 
L 329.327476 270.176541 
L 331.284897 269.835851 
L 332.263608 269.926554 
L 333.242318 270.278505 
L 334.221028 270.896887 
L 335.591223 272.091417 
L 336.569933 272.866421 
L 337.15716 273.019609 
L 337.548644 272.891241 
L 338.13587 272.341312 
L 338.918838 271.117387 
L 340.093291 268.709187 
L 342.050712 264.054189 
L 345.378327 256.097215 
L 346.944263 252.880641 
L 348.314458 250.541964 
L 349.488911 248.960711 
L 350.467621 247.971612 
L 351.446331 247.296632 
L 352.2293 246.987579 
L 353.012268 246.884124 
L 353.795236 246.983514 
L 354.578205 247.280236 
L 355.556915 247.915999 
L 356.535625 248.825912 
L 357.710078 250.241583 
L 359.080272 252.268149 
L 360.841951 255.304097 
L 365.735503 264.051108 
L 366.909956 265.646 
L 367.888666 266.660754 
L 368.867376 267.348896 
L 369.846087 267.717092 
L 370.824797 267.823455 
L 372.194992 267.711984 
L 374.543897 267.477646 
L 375.914091 267.588865 
L 377.284286 267.957624 
L 378.850222 268.6356 
L 380.611901 269.395744 
L 381.394869 269.539337 
L 382.177838 269.434455 
L 382.765064 269.148475 
L 383.548032 268.467915 
L 384.331001 267.461573 
L 385.309711 265.812339 
L 386.484163 263.381456 
L 388.0501 259.578529 
L 390.007521 254.201535 
L 392.74791 245.967458 
L 402.339272 216.550472 
L 405.079661 209.150885 
L 407.428566 203.410748 
L 409.581729 198.686313 
L 411.734892 194.500468 
L 413.692312 191.171838 
L 415.649733 188.298704 
L 417.411412 186.099787 
L 419.173091 184.263061 
L 420.739027 182.930366 
L 422.304964 181.876174 
L 423.870901 181.097157 
L 425.436837 180.590602 
L 426.807032 180.369366 
L 427.59 180.335675 
L 427.59 180.335675 
" clip-path="url(#p517d3a8d55)" style="fill: none; stroke: #4daf4a; stroke-width: 2.25; stroke-linecap: round"/>
   </g>
   <g id="patch_3">
    <path d="M 75.45 275.7 
L 75.45 25.2 
" style="fill: none; stroke: #cccccc; stroke-width: 1.875; stroke-linejoin: miter; stroke-linecap: square"/>
   </g>
   <g id="patch_4">
    <path d="M 427.59 275.7 
L 427.59 25.2 
" style="fill: none; stroke: #cccccc; stroke-width: 1.875; stroke-linejoin: miter; stroke-linecap: square"/>
   </g>
   <g id="patch_5">
    <path d="M 75.45 278.7 
L 427.59 278.7 
" style="fill: none; stroke: #cccccc; stroke-width: 1.875; stroke-linejoin: miter; stroke-linecap: square"/>
   </g>
  </g>
 </g>
 <defs>
  <clipPath id="p517d3a8d55">
   <rect x="75.45" y="25.2" width="352.14" height="250.5"/>
  </clipPath>
 </defs>
</svg>
