<?xml version="1.0" encoding="utf-8" standalone="no"?>
<!DOCTYPE svg PUBLIC "-//W3C//DTD SVG 1.1//EN"
  "http://www.w3.org/Graphics/SVG/1.1/DTD/svg11.dtd">
<svg xmlns:xlink="http://www.w3.org/1999/xlink" width="460.8pt" height="345.6pt" viewBox="0 0 460.8 345.6" xmlns="http://www.w3.org/2000/svg" version="1.1">
 <metadata>
  <rdf:RDF xmlns:dc="http://purl.org/dc/elements/1.1/" xmlns:cc="http://creativecommons.org/ns#" xmlns:rdf="http://www.w3.org/1999/02/22-rdf-syntax-ns#">
   <cc:Work>
    <dc:type rdf:resource="http://purl.org/dc/dcmitype/StillImage"/>
    <dc:date>2023-12-01T01:49:20.745626</dc:date>
    <dc:format>image/svg+xml</dc:format>
    <dc:creator>
     <cc:Agent>
      <dc:title>Matplotlib v3.8.0, https://matplotlib.org/</dc:title>
     </cc:Agent>
    </dc:creator>
   </cc:Work>
  </rdf:RDF>
 </metadata>
 <defs>
  <style type="text/css">*{stroke-linejoin: round; stroke-linecap: butt}</style>
 </defs>
 <g id="figure_1">
  <g id="patch_1">
   <path d="M 0 345.6 
L 460.8 345.6 
L 460.8 0 
L 0 0 
z
" style="fill: #ffffff"/>
  </g>
  <g id="axes_1">
   <g id="patch_2">
    <path d="M 52.61625 295.26 
L 438.66 295.26 
L 438.66 16.92 
L 52.61625 16.92 
z
" style="fill: #ffffff"/>
   </g>
   <g id="matplotlib.axis_1">
    <g id="xtick_1">
     <g id="line2d_1">
      <path d="M 52.61625 295.26 
L 52.61625 16.92 
" clip-path="url(#p49b829a9df)" style="fill: none; stroke: #cccccc; stroke-width: 0.4; stroke-linecap: round"/>
     </g>
     <g id="text_1">
      <!-- 0 -->
      <g style="fill: #262626" transform="translate(49.557734 315.633594) scale(0.11 -0.11)">
       <defs>
        <path id="ArialMT-30" d="M 266 2259 
Q 266 3072 433 3567 
Q 600 4063 929 4331 
Q 1259 4600 1759 4600 
Q 2128 4600 2406 4451 
Q 2684 4303 2865 4023 
Q 3047 3744 3150 3342 
Q 3253 2941 3253 2259 
Q 3253 1453 3087 958 
Q 2922 463 2592 192 
Q 2263 -78 1759 -78 
Q 1097 -78 719 397 
Q 266 969 266 2259 
z
M 844 2259 
Q 844 1131 1108 757 
Q 1372 384 1759 384 
Q 2147 384 2411 759 
Q 2675 1134 2675 2259 
Q 2675 3391 2411 3762 
Q 2147 4134 1753 4134 
Q 1366 4134 1134 3806 
Q 844 3388 844 2259 
z
" transform="scale(0.015625)"/>
       </defs>
       <use xlink:href="#ArialMT-30"/>
      </g>
     </g>
    </g>
    <g id="xtick_2">
     <g id="line2d_2">
      <path d="M 95.51 295.26 
L 95.51 16.92 
" clip-path="url(#p49b829a9df)" style="fill: none; stroke: #cccccc; stroke-width: 0.4; stroke-linecap: round"/>
     </g>
     <g id="text_2">
      <!-- 20 -->
      <g style="fill: #262626" transform="translate(89.392969 315.633594) scale(0.11 -0.11)">
       <defs>
        <path id="ArialMT-32" d="M 3222 541 
L 3222 0 
L 194 0 
Q 188 203 259 391 
Q 375 700 629 1000 
Q 884 1300 1366 1694 
Q 2113 2306 2375 2664 
Q 2638 3022 2638 3341 
Q 2638 3675 2398 3904 
Q 2159 4134 1775 4134 
Q 1369 4134 1125 3890 
Q 881 3647 878 3216 
L 300 3275 
Q 359 3922 746 4261 
Q 1134 4600 1788 4600 
Q 2447 4600 2831 4234 
Q 3216 3869 3216 3328 
Q 3216 3053 3103 2787 
Q 2991 2522 2730 2228 
Q 2469 1934 1863 1422 
Q 1356 997 1212 845 
Q 1069 694 975 541 
L 3222 541 
z
" transform="scale(0.015625)"/>
       </defs>
       <use xlink:href="#ArialMT-32"/>
       <use xlink:href="#ArialMT-30" x="55.615234"/>
      </g>
     </g>
    </g>
    <g id="xtick_3">
     <g id="line2d_3">
      <path d="M 138.40375 295.26 
L 138.40375 16.92 
" clip-path="url(#p49b829a9df)" style="fill: none; stroke: #cccccc; stroke-width: 0.4; stroke-linecap: round"/>
     </g>
     <g id="text_3">
      <!-- 40 -->
      <g style="fill: #262626" transform="translate(132.286719 315.633594) scale(0.11 -0.11)">
       <defs>
        <path id="ArialMT-34" d="M 2069 0 
L 2069 1097 
L 81 1097 
L 81 1613 
L 2172 4581 
L 2631 4581 
L 2631 1613 
L 3250 1613 
L 3250 1097 
L 2631 1097 
L 2631 0 
L 2069 0 
z
M 2069 1613 
L 2069 3678 
L 634 1613 
L 2069 1613 
z
" transform="scale(0.015625)"/>
       </defs>
       <use xlink:href="#ArialMT-34"/>
       <use xlink:href="#ArialMT-30" x="55.615234"/>
      </g>
     </g>
    </g>
    <g id="xtick_4">
     <g id="line2d_4">
      <path d="M 181.2975 295.26 
L 181.2975 16.92 
" clip-path="url(#p49b829a9df)" style="fill: none; stroke: #cccccc; stroke-width: 0.4; stroke-linecap: round"/>
     </g>
     <g id="text_4">
      <!-- 60 -->
      <g style="fill: #262626" transform="translate(175.180469 315.633594) scale(0.11 -0.11)">
       <defs>
        <path id="ArialMT-36" d="M 3184 3459 
L 2625 3416 
Q 2550 3747 2413 3897 
Q 2184 4138 1850 4138 
Q 1581 4138 1378 3988 
Q 1113 3794 959 3422 
Q 806 3050 800 2363 
Q 1003 2672 1297 2822 
Q 1591 2972 1913 2972 
Q 2475 2972 2870 2558 
Q 3266 2144 3266 1488 
Q 3266 1056 3080 686 
Q 2894 316 2569 119 
Q 2244 -78 1831 -78 
Q 1128 -78 684 439 
Q 241 956 241 2144 
Q 241 3472 731 4075 
Q 1159 4600 1884 4600 
Q 2425 4600 2770 4297 
Q 3116 3994 3184 3459 
z
M 888 1484 
Q 888 1194 1011 928 
Q 1134 663 1356 523 
Q 1578 384 1822 384 
Q 2178 384 2434 671 
Q 2691 959 2691 1453 
Q 2691 1928 2437 2201 
Q 2184 2475 1800 2475 
Q 1419 2475 1153 2201 
Q 888 1928 888 1484 
z
" transform="scale(0.015625)"/>
       </defs>
       <use xlink:href="#ArialMT-36"/>
       <use xlink:href="#ArialMT-30" x="55.615234"/>
      </g>
     </g>
    </g>
    <g id="xtick_5">
     <g id="line2d_5">
      <path d="M 224.19125 295.26 
L 224.19125 16.92 
" clip-path="url(#p49b829a9df)" style="fill: none; stroke: #cccccc; stroke-width: 0.4; stroke-linecap: round"/>
     </g>
     <g id="text_5">
      <!-- 80 -->
      <g style="fill: #262626" transform="translate(218.074219 315.633594) scale(0.11 -0.11)">
       <defs>
        <path id="ArialMT-38" d="M 1131 2484 
Q 781 2613 612 2850 
Q 444 3088 444 3419 
Q 444 3919 803 4259 
Q 1163 4600 1759 4600 
Q 2359 4600 2725 4251 
Q 3091 3903 3091 3403 
Q 3091 3084 2923 2848 
Q 2756 2613 2416 2484 
Q 2838 2347 3058 2040 
Q 3278 1734 3278 1309 
Q 3278 722 2862 322 
Q 2447 -78 1769 -78 
Q 1091 -78 675 323 
Q 259 725 259 1325 
Q 259 1772 486 2073 
Q 713 2375 1131 2484 
z
M 1019 3438 
Q 1019 3113 1228 2906 
Q 1438 2700 1772 2700 
Q 2097 2700 2305 2904 
Q 2513 3109 2513 3406 
Q 2513 3716 2298 3927 
Q 2084 4138 1766 4138 
Q 1444 4138 1231 3931 
Q 1019 3725 1019 3438 
z
M 838 1322 
Q 838 1081 952 856 
Q 1066 631 1291 507 
Q 1516 384 1775 384 
Q 2178 384 2440 643 
Q 2703 903 2703 1303 
Q 2703 1709 2433 1975 
Q 2163 2241 1756 2241 
Q 1359 2241 1098 1978 
Q 838 1716 838 1322 
z
" transform="scale(0.015625)"/>
       </defs>
       <use xlink:href="#ArialMT-38"/>
       <use xlink:href="#ArialMT-30" x="55.615234"/>
      </g>
     </g>
    </g>
    <g id="xtick_6">
     <g id="line2d_6">
      <path d="M 267.085 295.26 
L 267.085 16.92 
" clip-path="url(#p49b829a9df)" style="fill: none; stroke: #cccccc; stroke-width: 0.4; stroke-linecap: round"/>
     </g>
     <g id="text_6">
      <!-- 100 -->
      <g style="fill: #262626" transform="translate(257.909453 315.633594) scale(0.11 -0.11)">
       <defs>
        <path id="ArialMT-31" d="M 2384 0 
L 1822 0 
L 1822 3584 
Q 1619 3391 1289 3197 
Q 959 3003 697 2906 
L 697 3450 
Q 1169 3672 1522 3987 
Q 1875 4303 2022 4600 
L 2384 4600 
L 2384 0 
z
" transform="scale(0.015625)"/>
       </defs>
       <use xlink:href="#ArialMT-31"/>
       <use xlink:href="#ArialMT-30" x="55.615234"/>
       <use xlink:href="#ArialMT-30" x="111.230469"/>
      </g>
     </g>
    </g>
    <g id="xtick_7">
     <g id="line2d_7">
      <path d="M 309.97875 295.26 
L 309.97875 16.92 
" clip-path="url(#p49b829a9df)" style="fill: none; stroke: #cccccc; stroke-width: 0.4; stroke-linecap: round"/>
     </g>
     <g id="text_7">
      <!-- 120 -->
      <g style="fill: #262626" transform="translate(300.803203 315.633594) scale(0.11 -0.11)">
       <use xlink:href="#ArialMT-31"/>
       <use xlink:href="#ArialMT-32" x="55.615234"/>
       <use xlink:href="#ArialMT-30" x="111.230469"/>
      </g>
     </g>
    </g>
    <g id="xtick_8">
     <g id="line2d_8">
      <path d="M 352.8725 295.26 
L 352.8725 16.92 
" clip-path="url(#p49b829a9df)" style="fill: none; stroke: #cccccc; stroke-width: 0.4; stroke-linecap: round"/>
     </g>
     <g id="text_8">
      <!-- 140 -->
      <g style="fill: #262626" transform="translate(343.696953 315.633594) scale(0.11 -0.11)">
       <use xlink:href="#ArialMT-31"/>
       <use xlink:href="#ArialMT-34" x="55.615234"/>
       <use xlink:href="#ArialMT-30" x="111.230469"/>
      </g>
     </g>
    </g>
    <g id="xtick_9">
     <g id="line2d_9">
      <path d="M 395.76625 295.26 
L 395.76625 16.92 
" clip-path="url(#p49b829a9df)" style="fill: none; stroke: #cccccc; stroke-width: 0.4; stroke-linecap: round"/>
     </g>
     <g id="text_9">
      <!-- 160 -->
      <g style="fill: #262626" transform="translate(386.590703 315.633594) scale(0.11 -0.11)">
       <use xlink:href="#ArialMT-31"/>
       <use xlink:href="#ArialMT-36" x="55.615234"/>
       <use xlink:href="#ArialMT-30" x="111.230469"/>
      </g>
     </g>
    </g>
    <g id="xtick_10">
     <g id="line2d_10">
      <path d="M 438.66 295.26 
L 438.66 16.92 
" clip-path="url(#p49b829a9df)" style="fill: none; stroke: #cccccc; stroke-width: 0.4; stroke-linecap: round"/>
     </g>
     <g id="text_10">
      <!-- 180 -->
      <g style="fill: #262626" transform="translate(429.484453 315.633594) scale(0.11 -0.11)">
       <use xlink:href="#ArialMT-31"/>
       <use xlink:href="#ArialMT-38" x="55.615234"/>
       <use xlink:href="#ArialMT-30" x="111.230469"/>
      </g>
     </g>
    </g>
    <g id="xtick_11">
     <g id="line2d_11">
      <path d="M 74.063125 295.26 
L 74.063125 16.92 
" clip-path="url(#p49b829a9df)" style="fill: none; stroke-dasharray: 0.2,0.33; stroke-dashoffset: 0; stroke: #cccccc; stroke-width: 0.2"/>
     </g>
    </g>
    <g id="xtick_12">
     <g id="line2d_12">
      <path d="M 116.956875 295.26 
L 116.956875 16.92 
" clip-path="url(#p49b829a9df)" style="fill: none; stroke-dasharray: 0.2,0.33; stroke-dashoffset: 0; stroke: #cccccc; stroke-width: 0.2"/>
     </g>
    </g>
    <g id="xtick_13">
     <g id="line2d_13">
      <path d="M 159.850625 295.26 
L 159.850625 16.92 
" clip-path="url(#p49b829a9df)" style="fill: none; stroke-dasharray: 0.2,0.33; stroke-dashoffset: 0; stroke: #cccccc; stroke-width: 0.2"/>
     </g>
    </g>
    <g id="xtick_14">
     <g id="line2d_14">
      <path d="M 202.744375 295.26 
L 202.744375 16.92 
" clip-path="url(#p49b829a9df)" style="fill: none; stroke-dasharray: 0.2,0.33; stroke-dashoffset: 0; stroke: #cccccc; stroke-width: 0.2"/>
     </g>
    </g>
    <g id="xtick_15">
     <g id="line2d_15">
      <path d="M 245.638125 295.26 
L 245.638125 16.92 
" clip-path="url(#p49b829a9df)" style="fill: none; stroke-dasharray: 0.2,0.33; stroke-dashoffset: 0; stroke: #cccccc; stroke-width: 0.2"/>
     </g>
    </g>
    <g id="xtick_16">
     <g id="line2d_16">
      <path d="M 288.531875 295.26 
L 288.531875 16.92 
" clip-path="url(#p49b829a9df)" style="fill: none; stroke-dasharray: 0.2,0.33; stroke-dashoffset: 0; stroke: #cccccc; stroke-width: 0.2"/>
     </g>
    </g>
    <g id="xtick_17">
     <g id="line2d_17">
      <path d="M 331.425625 295.26 
L 331.425625 16.92 
" clip-path="url(#p49b829a9df)" style="fill: none; stroke-dasharray: 0.2,0.33; stroke-dashoffset: 0; stroke: #cccccc; stroke-width: 0.2"/>
     </g>
    </g>
    <g id="xtick_18">
     <g id="line2d_18">
      <path d="M 374.319375 295.26 
L 374.319375 16.92 
" clip-path="url(#p49b829a9df)" style="fill: none; stroke-dasharray: 0.2,0.33; stroke-dashoffset: 0; stroke: #cccccc; stroke-width: 0.2"/>
     </g>
    </g>
    <g id="xtick_19">
     <g id="line2d_19">
      <path d="M 417.213125 295.26 
L 417.213125 16.92 
" clip-path="url(#p49b829a9df)" style="fill: none; stroke-dasharray: 0.2,0.33; stroke-dashoffset: 0; stroke: #cccccc; stroke-width: 0.2"/>
     </g>
    </g>
    <g id="text_11">
     <!-- Angle (degrees) -->
     <g style="fill: #262626" transform="translate(202.95 330.555469) scale(0.12 -0.12)">
      <defs>
       <path id="ArialMT-41" d="M -9 0 
L 1750 4581 
L 2403 4581 
L 4278 0 
L 3588 0 
L 3053 1388 
L 1138 1388 
L 634 0 
L -9 0 
z
M 1313 1881 
L 2866 1881 
L 2388 3150 
Q 2169 3728 2063 4100 
Q 1975 3659 1816 3225 
L 1313 1881 
z
" transform="scale(0.015625)"/>
       <path id="ArialMT-6e" d="M 422 0 
L 422 3319 
L 928 3319 
L 928 2847 
Q 1294 3394 1984 3394 
Q 2284 3394 2536 3286 
Q 2788 3178 2913 3003 
Q 3038 2828 3088 2588 
Q 3119 2431 3119 2041 
L 3119 0 
L 2556 0 
L 2556 2019 
Q 2556 2363 2490 2533 
Q 2425 2703 2258 2804 
Q 2091 2906 1866 2906 
Q 1506 2906 1245 2678 
Q 984 2450 984 1813 
L 984 0 
L 422 0 
z
" transform="scale(0.015625)"/>
       <path id="ArialMT-67" d="M 319 -275 
L 866 -356 
Q 900 -609 1056 -725 
Q 1266 -881 1628 -881 
Q 2019 -881 2231 -725 
Q 2444 -569 2519 -288 
Q 2563 -116 2559 434 
Q 2191 0 1641 0 
Q 956 0 581 494 
Q 206 988 206 1678 
Q 206 2153 378 2554 
Q 550 2956 876 3175 
Q 1203 3394 1644 3394 
Q 2231 3394 2613 2919 
L 2613 3319 
L 3131 3319 
L 3131 450 
Q 3131 -325 2973 -648 
Q 2816 -972 2473 -1159 
Q 2131 -1347 1631 -1347 
Q 1038 -1347 672 -1080 
Q 306 -813 319 -275 
z
M 784 1719 
Q 784 1066 1043 766 
Q 1303 466 1694 466 
Q 2081 466 2343 764 
Q 2606 1063 2606 1700 
Q 2606 2309 2336 2618 
Q 2066 2928 1684 2928 
Q 1309 2928 1046 2623 
Q 784 2319 784 1719 
z
" transform="scale(0.015625)"/>
       <path id="ArialMT-6c" d="M 409 0 
L 409 4581 
L 972 4581 
L 972 0 
L 409 0 
z
" transform="scale(0.015625)"/>
       <path id="ArialMT-65" d="M 2694 1069 
L 3275 997 
Q 3138 488 2766 206 
Q 2394 -75 1816 -75 
Q 1088 -75 661 373 
Q 234 822 234 1631 
Q 234 2469 665 2931 
Q 1097 3394 1784 3394 
Q 2450 3394 2872 2941 
Q 3294 2488 3294 1666 
Q 3294 1616 3291 1516 
L 816 1516 
Q 847 969 1125 678 
Q 1403 388 1819 388 
Q 2128 388 2347 550 
Q 2566 713 2694 1069 
z
M 847 1978 
L 2700 1978 
Q 2663 2397 2488 2606 
Q 2219 2931 1791 2931 
Q 1403 2931 1139 2672 
Q 875 2413 847 1978 
z
" transform="scale(0.015625)"/>
       <path id="ArialMT-20" transform="scale(0.015625)"/>
       <path id="ArialMT-28" d="M 1497 -1347 
Q 1031 -759 709 28 
Q 388 816 388 1659 
Q 388 2403 628 3084 
Q 909 3875 1497 4659 
L 1900 4659 
Q 1522 4009 1400 3731 
Q 1209 3300 1100 2831 
Q 966 2247 966 1656 
Q 966 153 1900 -1347 
L 1497 -1347 
z
" transform="scale(0.015625)"/>
       <path id="ArialMT-64" d="M 2575 0 
L 2575 419 
Q 2259 -75 1647 -75 
Q 1250 -75 917 144 
Q 584 363 401 755 
Q 219 1147 219 1656 
Q 219 2153 384 2558 
Q 550 2963 881 3178 
Q 1213 3394 1622 3394 
Q 1922 3394 2156 3267 
Q 2391 3141 2538 2938 
L 2538 4581 
L 3097 4581 
L 3097 0 
L 2575 0 
z
M 797 1656 
Q 797 1019 1065 703 
Q 1334 388 1700 388 
Q 2069 388 2326 689 
Q 2584 991 2584 1609 
Q 2584 2291 2321 2609 
Q 2059 2928 1675 2928 
Q 1300 2928 1048 2622 
Q 797 2316 797 1656 
z
" transform="scale(0.015625)"/>
       <path id="ArialMT-72" d="M 416 0 
L 416 3319 
L 922 3319 
L 922 2816 
Q 1116 3169 1280 3281 
Q 1444 3394 1641 3394 
Q 1925 3394 2219 3213 
L 2025 2691 
Q 1819 2813 1613 2813 
Q 1428 2813 1281 2702 
Q 1134 2591 1072 2394 
Q 978 2094 978 1738 
L 978 0 
L 416 0 
z
" transform="scale(0.015625)"/>
       <path id="ArialMT-73" d="M 197 991 
L 753 1078 
Q 800 744 1014 566 
Q 1228 388 1613 388 
Q 2000 388 2187 545 
Q 2375 703 2375 916 
Q 2375 1106 2209 1216 
Q 2094 1291 1634 1406 
Q 1016 1563 777 1677 
Q 538 1791 414 1992 
Q 291 2194 291 2438 
Q 291 2659 392 2848 
Q 494 3038 669 3163 
Q 800 3259 1026 3326 
Q 1253 3394 1513 3394 
Q 1903 3394 2198 3281 
Q 2494 3169 2634 2976 
Q 2775 2784 2828 2463 
L 2278 2388 
Q 2241 2644 2061 2787 
Q 1881 2931 1553 2931 
Q 1166 2931 1000 2803 
Q 834 2675 834 2503 
Q 834 2394 903 2306 
Q 972 2216 1119 2156 
Q 1203 2125 1616 2013 
Q 2213 1853 2448 1751 
Q 2684 1650 2818 1456 
Q 2953 1263 2953 975 
Q 2953 694 2789 445 
Q 2625 197 2315 61 
Q 2006 -75 1616 -75 
Q 969 -75 630 194 
Q 291 463 197 991 
z
" transform="scale(0.015625)"/>
       <path id="ArialMT-29" d="M 791 -1347 
L 388 -1347 
Q 1322 153 1322 1656 
Q 1322 2244 1188 2822 
Q 1081 3291 891 3722 
Q 769 4003 388 4659 
L 791 4659 
Q 1378 3875 1659 3084 
Q 1900 2403 1900 1659 
Q 1900 816 1576 28 
Q 1253 -759 791 -1347 
z
" transform="scale(0.015625)"/>
      </defs>
      <use xlink:href="#ArialMT-41"/>
      <use xlink:href="#ArialMT-6e" x="66.699219"/>
      <use xlink:href="#ArialMT-67" x="122.314453"/>
      <use xlink:href="#ArialMT-6c" x="177.929688"/>
      <use xlink:href="#ArialMT-65" x="200.146484"/>
      <use xlink:href="#ArialMT-20" x="255.761719"/>
      <use xlink:href="#ArialMT-28" x="283.544922"/>
      <use xlink:href="#ArialMT-64" x="316.845703"/>
      <use xlink:href="#ArialMT-65" x="372.460938"/>
      <use xlink:href="#ArialMT-67" x="428.076172"/>
      <use xlink:href="#ArialMT-72" x="483.691406"/>
      <use xlink:href="#ArialMT-65" x="516.992188"/>
      <use xlink:href="#ArialMT-65" x="572.607422"/>
      <use xlink:href="#ArialMT-73" x="628.222656"/>
      <use xlink:href="#ArialMT-29" x="678.222656"/>
     </g>
    </g>
   </g>
   <g id="matplotlib.axis_2">
    <g id="ytick_1">
     <g id="line2d_20">
      <path d="M 52.61625 295.26 
L 438.66 295.26 
" clip-path="url(#p49b829a9df)" style="fill: none; stroke: #cccccc; stroke-width: 0.4; stroke-linecap: round"/>
     </g>
     <g id="text_12">
      <!-- 0.0 -->
      <g style="fill: #262626" transform="translate(27.82625 299.196797) scale(0.11 -0.11)">
       <defs>
        <path id="ArialMT-2e" d="M 581 0 
L 581 641 
L 1222 641 
L 1222 0 
L 581 0 
z
" transform="scale(0.015625)"/>
       </defs>
       <use xlink:href="#ArialMT-30"/>
       <use xlink:href="#ArialMT-2e" x="55.615234"/>
       <use xlink:href="#ArialMT-30" x="83.398438"/>
      </g>
     </g>
    </g>
    <g id="ytick_2">
     <g id="line2d_21">
      <path d="M 52.61625 239.592 
L 438.66 239.592 
" clip-path="url(#p49b829a9df)" style="fill: none; stroke: #cccccc; stroke-width: 0.4; stroke-linecap: round"/>
     </g>
     <g id="text_13">
      <!-- 0.2 -->
      <g style="fill: #262626" transform="translate(27.82625 243.528797) scale(0.11 -0.11)">
       <use xlink:href="#ArialMT-30"/>
       <use xlink:href="#ArialMT-2e" x="55.615234"/>
       <use xlink:href="#ArialMT-32" x="83.398438"/>
      </g>
     </g>
    </g>
    <g id="ytick_3">
     <g id="line2d_22">
      <path d="M 52.61625 183.924 
L 438.66 183.924 
" clip-path="url(#p49b829a9df)" style="fill: none; stroke: #cccccc; stroke-width: 0.4; stroke-linecap: round"/>
     </g>
     <g id="text_14">
      <!-- 0.4 -->
      <g style="fill: #262626" transform="translate(27.82625 187.860797) scale(0.11 -0.11)">
       <use xlink:href="#ArialMT-30"/>
       <use xlink:href="#ArialMT-2e" x="55.615234"/>
       <use xlink:href="#ArialMT-34" x="83.398438"/>
      </g>
     </g>
    </g>
    <g id="ytick_4">
     <g id="line2d_23">
      <path d="M 52.61625 128.256 
L 438.66 128.256 
" clip-path="url(#p49b829a9df)" style="fill: none; stroke: #cccccc; stroke-width: 0.4; stroke-linecap: round"/>
     </g>
     <g id="text_15">
      <!-- 0.6 -->
      <g style="fill: #262626" transform="translate(27.82625 132.192797) scale(0.11 -0.11)">
       <use xlink:href="#ArialMT-30"/>
       <use xlink:href="#ArialMT-2e" x="55.615234"/>
       <use xlink:href="#ArialMT-36" x="83.398438"/>
      </g>
     </g>
    </g>
    <g id="ytick_5">
     <g id="line2d_24">
      <path d="M 52.61625 72.588 
L 438.66 72.588 
" clip-path="url(#p49b829a9df)" style="fill: none; stroke: #cccccc; stroke-width: 0.4; stroke-linecap: round"/>
     </g>
     <g id="text_16">
      <!-- 0.8 -->
      <g style="fill: #262626" transform="translate(27.82625 76.524797) scale(0.11 -0.11)">
       <use xlink:href="#ArialMT-30"/>
       <use xlink:href="#ArialMT-2e" x="55.615234"/>
       <use xlink:href="#ArialMT-38" x="83.398438"/>
      </g>
     </g>
    </g>
    <g id="ytick_6">
     <g id="line2d_25">
      <path d="M 52.61625 16.92 
L 438.66 16.92 
" clip-path="url(#p49b829a9df)" style="fill: none; stroke: #cccccc; stroke-width: 0.4; stroke-linecap: round"/>
     </g>
     <g id="text_17">
      <!-- 1.0 -->
      <g style="fill: #262626" transform="translate(27.82625 20.856797) scale(0.11 -0.11)">
       <use xlink:href="#ArialMT-31"/>
       <use xlink:href="#ArialMT-2e" x="55.615234"/>
       <use xlink:href="#ArialMT-30" x="83.398438"/>
      </g>
     </g>
    </g>
    <g id="ytick_7">
     <g id="line2d_26">
      <path d="M 52.61625 267.426 
L 438.66 267.426 
" clip-path="url(#p49b829a9df)" style="fill: none; stroke-dasharray: 0.2,0.33; stroke-dashoffset: 0; stroke: #cccccc; stroke-width: 0.2"/>
     </g>
    </g>
    <g id="ytick_8">
     <g id="line2d_27">
      <path d="M 52.61625 211.758 
L 438.66 211.758 
" clip-path="url(#p49b829a9df)" style="fill: none; stroke-dasharray: 0.2,0.33; stroke-dashoffset: 0; stroke: #cccccc; stroke-width: 0.2"/>
     </g>
    </g>
    <g id="ytick_9">
     <g id="line2d_28">
      <path d="M 52.61625 156.09 
L 438.66 156.09 
" clip-path="url(#p49b829a9df)" style="fill: none; stroke-dasharray: 0.2,0.33; stroke-dashoffset: 0; stroke: #cccccc; stroke-width: 0.2"/>
     </g>
    </g>
    <g id="ytick_10">
     <g id="line2d_29">
      <path d="M 52.61625 100.422 
L 438.66 100.422 
" clip-path="url(#p49b829a9df)" style="fill: none; stroke-dasharray: 0.2,0.33; stroke-dashoffset: 0; stroke: #cccccc; stroke-width: 0.2"/>
     </g>
    </g>
    <g id="ytick_11">
     <g id="line2d_30">
      <path d="M 52.61625 44.754 
L 438.66 44.754 
" clip-path="url(#p49b829a9df)" style="fill: none; stroke-dasharray: 0.2,0.33; stroke-dashoffset: 0; stroke: #cccccc; stroke-width: 0.2"/>
     </g>
    </g>
    <g id="text_18">
     <!-- Normalized Magnitude -->
     <g style="fill: #262626" transform="translate(21.300625 216.115312) rotate(-90) scale(0.12 -0.12)">
      <defs>
       <path id="ArialMT-4e" d="M 488 0 
L 488 4581 
L 1109 4581 
L 3516 984 
L 3516 4581 
L 4097 4581 
L 4097 0 
L 3475 0 
L 1069 3600 
L 1069 0 
L 488 0 
z
" transform="scale(0.015625)"/>
       <path id="ArialMT-6f" d="M 213 1659 
Q 213 2581 725 3025 
Q 1153 3394 1769 3394 
Q 2453 3394 2887 2945 
Q 3322 2497 3322 1706 
Q 3322 1066 3130 698 
Q 2938 331 2570 128 
Q 2203 -75 1769 -75 
Q 1072 -75 642 372 
Q 213 819 213 1659 
z
M 791 1659 
Q 791 1022 1069 705 
Q 1347 388 1769 388 
Q 2188 388 2466 706 
Q 2744 1025 2744 1678 
Q 2744 2294 2464 2611 
Q 2184 2928 1769 2928 
Q 1347 2928 1069 2612 
Q 791 2297 791 1659 
z
" transform="scale(0.015625)"/>
       <path id="ArialMT-6d" d="M 422 0 
L 422 3319 
L 925 3319 
L 925 2853 
Q 1081 3097 1340 3245 
Q 1600 3394 1931 3394 
Q 2300 3394 2536 3241 
Q 2772 3088 2869 2813 
Q 3263 3394 3894 3394 
Q 4388 3394 4653 3120 
Q 4919 2847 4919 2278 
L 4919 0 
L 4359 0 
L 4359 2091 
Q 4359 2428 4304 2576 
Q 4250 2725 4106 2815 
Q 3963 2906 3769 2906 
Q 3419 2906 3187 2673 
Q 2956 2441 2956 1928 
L 2956 0 
L 2394 0 
L 2394 2156 
Q 2394 2531 2256 2718 
Q 2119 2906 1806 2906 
Q 1569 2906 1367 2781 
Q 1166 2656 1075 2415 
Q 984 2175 984 1722 
L 984 0 
L 422 0 
z
" transform="scale(0.015625)"/>
       <path id="ArialMT-61" d="M 2588 409 
Q 2275 144 1986 34 
Q 1697 -75 1366 -75 
Q 819 -75 525 192 
Q 231 459 231 875 
Q 231 1119 342 1320 
Q 453 1522 633 1644 
Q 813 1766 1038 1828 
Q 1203 1872 1538 1913 
Q 2219 1994 2541 2106 
Q 2544 2222 2544 2253 
Q 2544 2597 2384 2738 
Q 2169 2928 1744 2928 
Q 1347 2928 1158 2789 
Q 969 2650 878 2297 
L 328 2372 
Q 403 2725 575 2942 
Q 747 3159 1072 3276 
Q 1397 3394 1825 3394 
Q 2250 3394 2515 3294 
Q 2781 3194 2906 3042 
Q 3031 2891 3081 2659 
Q 3109 2516 3109 2141 
L 3109 1391 
Q 3109 606 3145 398 
Q 3181 191 3288 0 
L 2700 0 
Q 2613 175 2588 409 
z
M 2541 1666 
Q 2234 1541 1622 1453 
Q 1275 1403 1131 1340 
Q 988 1278 909 1158 
Q 831 1038 831 891 
Q 831 666 1001 516 
Q 1172 366 1500 366 
Q 1825 366 2078 508 
Q 2331 650 2450 897 
Q 2541 1088 2541 1459 
L 2541 1666 
z
" transform="scale(0.015625)"/>
       <path id="ArialMT-69" d="M 425 3934 
L 425 4581 
L 988 4581 
L 988 3934 
L 425 3934 
z
M 425 0 
L 425 3319 
L 988 3319 
L 988 0 
L 425 0 
z
" transform="scale(0.015625)"/>
       <path id="ArialMT-7a" d="M 125 0 
L 125 456 
L 2238 2881 
Q 1878 2863 1603 2863 
L 250 2863 
L 250 3319 
L 2963 3319 
L 2963 2947 
L 1166 841 
L 819 456 
Q 1197 484 1528 484 
L 3063 484 
L 3063 0 
L 125 0 
z
" transform="scale(0.015625)"/>
       <path id="ArialMT-4d" d="M 475 0 
L 475 4581 
L 1388 4581 
L 2472 1338 
Q 2622 884 2691 659 
Q 2769 909 2934 1394 
L 4031 4581 
L 4847 4581 
L 4847 0 
L 4263 0 
L 4263 3834 
L 2931 0 
L 2384 0 
L 1059 3900 
L 1059 0 
L 475 0 
z
" transform="scale(0.015625)"/>
       <path id="ArialMT-74" d="M 1650 503 
L 1731 6 
Q 1494 -44 1306 -44 
Q 1000 -44 831 53 
Q 663 150 594 308 
Q 525 466 525 972 
L 525 2881 
L 113 2881 
L 113 3319 
L 525 3319 
L 525 4141 
L 1084 4478 
L 1084 3319 
L 1650 3319 
L 1650 2881 
L 1084 2881 
L 1084 941 
Q 1084 700 1114 631 
Q 1144 563 1211 522 
Q 1278 481 1403 481 
Q 1497 481 1650 503 
z
" transform="scale(0.015625)"/>
       <path id="ArialMT-75" d="M 2597 0 
L 2597 488 
Q 2209 -75 1544 -75 
Q 1250 -75 995 37 
Q 741 150 617 320 
Q 494 491 444 738 
Q 409 903 409 1263 
L 409 3319 
L 972 3319 
L 972 1478 
Q 972 1038 1006 884 
Q 1059 663 1231 536 
Q 1403 409 1656 409 
Q 1909 409 2131 539 
Q 2353 669 2445 892 
Q 2538 1116 2538 1541 
L 2538 3319 
L 3100 3319 
L 3100 0 
L 2597 0 
z
" transform="scale(0.015625)"/>
      </defs>
      <use xlink:href="#ArialMT-4e"/>
      <use xlink:href="#ArialMT-6f" x="72.216797"/>
      <use xlink:href="#ArialMT-72" x="127.832031"/>
      <use xlink:href="#ArialMT-6d" x="161.132812"/>
      <use xlink:href="#ArialMT-61" x="244.433594"/>
      <use xlink:href="#ArialMT-6c" x="300.048828"/>
      <use xlink:href="#ArialMT-69" x="322.265625"/>
      <use xlink:href="#ArialMT-7a" x="344.482422"/>
      <use xlink:href="#ArialMT-65" x="394.482422"/>
      <use xlink:href="#ArialMT-64" x="450.097656"/>
      <use xlink:href="#ArialMT-20" x="505.712891"/>
      <use xlink:href="#ArialMT-4d" x="533.496094"/>
      <use xlink:href="#ArialMT-61" x="616.796875"/>
      <use xlink:href="#ArialMT-67" x="672.412109"/>
      <use xlink:href="#ArialMT-6e" x="728.027344"/>
      <use xlink:href="#ArialMT-69" x="783.642578"/>
      <use xlink:href="#ArialMT-74" x="805.859375"/>
      <use xlink:href="#ArialMT-75" x="833.642578"/>
      <use xlink:href="#ArialMT-64" x="889.257812"/>
      <use xlink:href="#ArialMT-65" x="944.873047"/>
     </g>
    </g>
   </g>
   <g id="line2d_31">
    <path d="M 52.61625 200.222942 
L 55.620482 200.110159 
L 58.839301 199.756544 
L 62.701884 199.096326 
L 69.568699 197.874303 
L 72.143755 197.675052 
L 74.075047 197.728015 
L 75.79175 197.972009 
L 77.508454 198.446276 
L 79.01057 199.085778 
L 80.512686 199.967576 
L 82.014801 201.123258 
L 83.516917 202.584091 
L 85.019033 204.380291 
L 86.521149 206.540146 
L 88.023264 209.089023 
L 89.52538 212.048229 
L 91.242084 215.952839 
L 92.958788 220.427028 
L 94.890079 226.138954 
L 96.821371 232.540897 
L 99.181839 241.208434 
L 101.971482 252.383293 
L 108.623709 279.489902 
L 110.125825 284.462932 
L 110.984177 286.699574 
L 111.627941 287.910754 
L 112.057116 288.427806 
L 112.486292 288.684189 
L 112.915468 288.684332 
L 113.344644 288.462543 
L 113.988408 287.830781 
L 115.275936 286.099721 
L 116.99264 283.892785 
L 118.280167 282.599677 
L 120.640635 280.376398 
L 121.498987 279.133826 
L 122.142751 277.858199 
L 123.001103 275.558541 
L 123.859455 272.46472 
L 124.717806 268.5173 
L 125.790746 262.370244 
L 126.863686 254.914955 
L 128.151214 244.339905 
L 129.65333 229.939869 
L 131.370033 211.090449 
L 133.515913 184.652243 
L 136.734732 141.520217 
L 140.16814 96.220185 
L 141.884844 76.156547 
L 143.386959 61.109379 
L 144.459899 52.201827 
L 145.532839 45.10722 
L 146.391191 40.89366 
L 147.034955 38.659725 
L 147.678719 37.268063 
L 148.107895 36.828026 
L 148.537071 36.790942 
L 148.966247 37.166816 
L 149.395422 37.964758 
L 149.824598 39.192922 
L 150.468362 41.857152 
L 151.112126 45.524669 
L 151.970478 51.997898 
L 152.82883 60.292414 
L 153.90177 73.207257 
L 154.97471 88.883017 
L 156.262237 111.134939 
L 157.764353 141.299425 
L 159.910233 189.844043 
L 161.626936 227.82677 
L 162.2707 238.859882 
L 162.699876 243.863091 
L 163.129052 246.157673 
L 163.34364 246.130363 
L 163.558228 245.301267 
L 163.987404 241.40919 
L 164.631168 231.188651 
L 165.48952 212.740143 
L 167.6354 159.278531 
L 169.781279 107.901579 
L 171.283395 76.845241 
L 172.570923 54.661589 
L 173.643863 39.791192 
L 174.502214 30.46097 
L 175.360566 23.52114 
L 176.00433 19.924748 
L 176.648094 17.723517 
L 177.07727 17.032848 
L 177.291858 16.92 
L 177.506446 16.961569 
L 177.721034 17.156948 
L 178.15021 18.006019 
L 178.579386 19.459595 
L 179.22315 22.751354 
L 179.866914 27.338507 
L 180.725265 35.377162 
L 181.583617 45.471083 
L 182.656557 60.69833 
L 183.944085 82.244701 
L 185.660789 115.169442 
L 188.879608 182.726326 
L 191.240076 230.055136 
L 192.742191 256.419936 
L 194.029719 275.549413 
L 194.888071 285.7539 
L 195.317247 289.215311 
L 195.531835 289.969908 
L 195.746423 289.809114 
L 196.175599 287.614391 
L 197.677715 277.998737 
L 198.536067 274.238207 
L 199.17983 272.394323 
L 199.609006 271.608049 
L 200.038182 271.151451 
L 200.467358 270.996178 
L 200.896534 271.106914 
L 201.32571 271.440312 
L 201.969474 272.239303 
L 203.257002 274.004746 
L 203.686178 274.305428 
L 204.115354 274.297566 
L 204.54453 273.902243 
L 204.973706 273.074277 
L 205.617469 271.021416 
L 206.261233 268.118565 
L 207.334173 261.981823 
L 210.982169 239.632013 
L 212.055108 234.840995 
L 212.91346 232.015523 
L 213.557224 230.546522 
L 214.200988 229.662768 
L 214.630164 229.405508 
L 215.05934 229.41531 
L 215.488516 229.691092 
L 215.917692 230.229709 
L 216.561456 231.518693 
L 217.20522 233.361749 
L 218.063571 236.620571 
L 219.136511 241.832157 
L 220.424039 249.418677 
L 222.355331 262.441921 
L 225.144974 281.162019 
L 226.217914 287.111651 
L 226.861678 289.887154 
L 227.290854 291.106714 
L 227.505442 291.42738 
L 227.72003 291.524924 
L 227.934618 291.415161 
L 228.363794 290.767749 
L 230.080497 287.4724 
L 230.724261 286.751466 
L 231.368025 286.38292 
L 232.011789 286.320525 
L 232.870141 286.539953 
L 233.728493 286.729445 
L 234.157669 286.637102 
L 234.586845 286.323282 
L 235.016021 285.738756 
L 235.659785 284.326535 
L 236.303548 282.335601 
L 237.376488 278.087535 
L 239.30778 269.113608 
L 241.239072 260.481441 
L 242.526599 255.789852 
L 243.384951 253.36232 
L 244.243303 251.591554 
L 244.887067 250.729275 
L 245.530831 250.283432 
L 245.960007 250.221368 
L 246.389183 250.347882 
L 246.818359 250.661661 
L 247.462123 251.476947 
L 248.105887 252.691513 
L 248.964238 254.892451 
L 250.037178 258.475665 
L 251.324706 263.757989 
L 253.255998 272.903095 
L 255.831053 285.090432 
L 256.903993 289.277787 
L 257.547757 291.170183 
L 257.976933 291.956808 
L 258.406109 292.201669 
L 258.835285 291.946214 
L 259.693637 290.813988 
L 260.551989 289.763503 
L 261.195753 289.251527 
L 261.839516 289.008947 
L 262.48328 289.013875 
L 263.341632 289.285662 
L 264.199984 289.557981 
L 264.62916 289.535745 
L 265.058336 289.313927 
L 265.487512 288.845588 
L 266.131276 287.665052 
L 266.989628 285.339485 
L 268.062567 281.628665 
L 270.423035 272.281515 
L 272.139739 265.874255 
L 273.427267 261.903047 
L 274.500206 259.371886 
L 275.358558 257.944194 
L 276.002322 257.250188 
L 276.646086 256.891541 
L 277.075262 256.841439 
L 277.504438 256.942762 
L 278.148202 257.37603 
L 278.791966 258.139129 
L 279.43573 259.21849 
L 280.294081 261.116713 
L 281.367021 264.144707 
L 282.654549 268.551473 
L 284.585841 276.128353 
L 287.160896 286.248385 
L 288.233836 289.761465 
L 288.8776 291.379093 
L 289.306776 292.094034 
L 289.735952 292.394181 
L 290.165128 292.276221 
L 290.808892 291.643371 
L 292.09642 290.256893 
L 292.740183 289.823403 
L 293.383947 289.617871 
L 294.027711 289.633792 
L 294.886063 289.932678 
L 296.173591 290.498836 
L 296.602767 290.506417 
L 297.031943 290.314443 
L 297.461119 289.883806 
L 298.104883 288.793422 
L 298.963234 286.668684 
L 300.036174 283.304768 
L 301.967466 276.31974 
L 304.542522 267.110238 
L 305.830049 263.214975 
L 306.902989 260.556288 
L 307.761341 258.886682 
L 308.619693 257.665596 
L 309.263457 257.060474 
L 309.907221 256.729538 
L 310.550985 256.67579 
L 311.194748 256.898502 
L 311.838512 257.393288 
L 312.482276 258.152235 
L 313.340628 259.555129 
L 314.19898 261.371856 
L 315.27192 264.156385 
L 316.559448 268.112253 
L 318.490739 274.862284 
L 321.709559 286.270234 
L 322.997087 289.997827 
L 323.64085 291.36983 
L 324.070026 291.959594 
L 324.499202 292.200762 
L 324.928378 292.096504 
L 325.572142 291.526588 
L 327.288846 289.730461 
L 328.147198 289.203737 
L 328.790962 289.033677 
L 329.434726 289.057566 
L 330.293077 289.365403 
L 331.366017 290.064681 
L 332.438957 290.722318 
L 332.868133 290.800844 
L 333.297309 290.683359 
L 333.726485 290.334051 
L 334.370249 289.382778 
L 335.228601 287.477533 
L 336.30154 284.42188 
L 338.018244 278.679076 
L 342.953767 261.545526 
L 344.455883 257.273976 
L 345.743411 254.259067 
L 346.816351 252.273991 
L 347.674703 251.059703 
L 348.533054 250.192623 
L 349.391406 249.680748 
L 350.03517 249.531725 
L 350.678934 249.583277 
L 351.322698 249.833001 
L 352.18105 250.467247 
L 353.039402 251.433423 
L 353.897754 252.714101 
L 354.970693 254.724585 
L 356.258221 257.672785 
L 357.760337 261.727407 
L 359.691629 267.647751 
L 366.129268 288.045048 
L 367.202207 290.510221 
L 367.845971 291.48599 
L 368.275147 291.793953 
L 368.704323 291.783846 
L 369.133499 291.499014 
L 369.777263 290.755309 
L 372.566907 287.113303 
L 373.639846 286.176237 
L 374.498198 285.685554 
L 375.35655 285.434313 
L 376.214902 285.424443 
L 377.073254 285.653192 
L 377.931606 286.113478 
L 379.004546 286.995592 
L 380.077485 288.180457 
L 383.081717 291.84272 
L 383.510893 291.946491 
L 383.940069 291.765475 
L 384.369245 291.308488 
L 385.013009 290.23037 
L 386.085948 287.811441 
L 387.588064 283.753067 
L 389.733944 277.247354 
L 393.381939 265.316014 
L 398.53205 248.521488 
L 401.536282 239.518588 
L 404.111338 232.527622 
L 406.471805 226.79224 
L 408.617685 222.16462 
L 410.548977 218.478595 
L 412.480268 215.234684 
L 414.41156 212.41271 
L 416.342852 209.985951 
L 418.274143 207.92318 
L 420.205435 206.19051 
L 422.136727 204.753004 
L 424.068018 203.57605 
L 426.213898 202.533691 
L 428.359778 201.730283 
L 430.720245 201.078625 
L 433.295301 200.598934 
L 436.084944 200.307371 
L 438.66 200.222942 
L 438.66 200.222942 
" clip-path="url(#p49b829a9df)" style="fill: none; stroke: #ff2a00; stroke-width: 1.5; stroke-linecap: round"/>
   </g>
   <g id="patch_3">
    <path d="M 52.61625 295.26 
L 52.61625 16.92 
" style="fill: none; stroke: #cccccc; stroke-width: 1.25; stroke-linejoin: miter; stroke-linecap: square"/>
   </g>
   <g id="patch_4">
    <path d="M 438.66 295.26 
L 438.66 16.92 
" style="fill: none; stroke: #cccccc; stroke-width: 1.25; stroke-linejoin: miter; stroke-linecap: square"/>
   </g>
   <g id="patch_5">
    <path d="M 52.61625 298.26 
L 438.66 298.26 
" style="fill: none; stroke: #cccccc; stroke-width: 1.25; stroke-linejoin: miter; stroke-linecap: square"/>
   </g>
  </g>
 </g>
 <defs>
  <clipPath id="p49b829a9df">
   <rect x="52.61625" y="16.92" width="386.04375" height="278.34"/>
  </clipPath>
 </defs>
</svg>
