<?xml version="1.0" encoding="utf-8" standalone="no"?>
<!DOCTYPE svg PUBLIC "-//W3C//DTD SVG 1.1//EN"
  "http://www.w3.org/Graphics/SVG/1.1/DTD/svg11.dtd">
<svg xmlns:xlink="http://www.w3.org/1999/xlink" width="460.8pt" height="345.6pt" viewBox="0 0 460.8 345.6" xmlns="http://www.w3.org/2000/svg" version="1.1">
 <metadata>
  <rdf:RDF xmlns:dc="http://purl.org/dc/elements/1.1/" xmlns:cc="http://creativecommons.org/ns#" xmlns:rdf="http://www.w3.org/1999/02/22-rdf-syntax-ns#">
   <cc:Work>
    <dc:type rdf:resource="http://purl.org/dc/dcmitype/StillImage"/>
    <dc:date>2023-12-01T01:50:25.016645</dc:date>
    <dc:format>image/svg+xml</dc:format>
    <dc:creator>
     <cc:Agent>
      <dc:title>Matplotlib v3.8.0, https://matplotlib.org/</dc:title>
     </cc:Agent>
    </dc:creator>
   </cc:Work>
  </rdf:RDF>
 </metadata>
 <defs>
  <style type="text/css">*{stroke-linejoin: round; stroke-linecap: butt}</style>
 </defs>
 <g id="figure_1">
  <g id="patch_1">
   <path d="M 0 345.6 
L 460.8 345.6 
L 460.8 0 
L 0 0 
z
" style="fill: #ffffff"/>
  </g>
  <g id="axes_1">
   <g id="patch_2">
    <path d="M 52.61625 295.26 
L 438.66 295.26 
L 438.66 16.92 
L 52.61625 16.92 
z
" style="fill: #ffffff"/>
   </g>
   <g id="matplotlib.axis_1">
    <g id="xtick_1">
     <g id="line2d_1">
      <path d="M 52.61625 295.26 
L 52.61625 16.92 
" clip-path="url(#p39ab4cc36c)" style="fill: none; stroke: #cccccc; stroke-width: 0.4; stroke-linecap: round"/>
     </g>
     <g id="text_1">
      <!-- 0 -->
      <g style="fill: #262626" transform="translate(49.557734 315.633594) scale(0.11 -0.11)">
       <defs>
        <path id="ArialMT-30" d="M 266 2259 
Q 266 3072 433 3567 
Q 600 4063 929 4331 
Q 1259 4600 1759 4600 
Q 2128 4600 2406 4451 
Q 2684 4303 2865 4023 
Q 3047 3744 3150 3342 
Q 3253 2941 3253 2259 
Q 3253 1453 3087 958 
Q 2922 463 2592 192 
Q 2263 -78 1759 -78 
Q 1097 -78 719 397 
Q 266 969 266 2259 
z
M 844 2259 
Q 844 1131 1108 757 
Q 1372 384 1759 384 
Q 2147 384 2411 759 
Q 2675 1134 2675 2259 
Q 2675 3391 2411 3762 
Q 2147 4134 1753 4134 
Q 1366 4134 1134 3806 
Q 844 3388 844 2259 
z
" transform="scale(0.015625)"/>
       </defs>
       <use xlink:href="#ArialMT-30"/>
      </g>
     </g>
    </g>
    <g id="xtick_2">
     <g id="line2d_2">
      <path d="M 95.51 295.26 
L 95.51 16.92 
" clip-path="url(#p39ab4cc36c)" style="fill: none; stroke: #cccccc; stroke-width: 0.4; stroke-linecap: round"/>
     </g>
     <g id="text_2">
      <!-- 20 -->
      <g style="fill: #262626" transform="translate(89.392969 315.633594) scale(0.11 -0.11)">
       <defs>
        <path id="ArialMT-32" d="M 3222 541 
L 3222 0 
L 194 0 
Q 188 203 259 391 
Q 375 700 629 1000 
Q 884 1300 1366 1694 
Q 2113 2306 2375 2664 
Q 2638 3022 2638 3341 
Q 2638 3675 2398 3904 
Q 2159 4134 1775 4134 
Q 1369 4134 1125 3890 
Q 881 3647 878 3216 
L 300 3275 
Q 359 3922 746 4261 
Q 1134 4600 1788 4600 
Q 2447 4600 2831 4234 
Q 3216 3869 3216 3328 
Q 3216 3053 3103 2787 
Q 2991 2522 2730 2228 
Q 2469 1934 1863 1422 
Q 1356 997 1212 845 
Q 1069 694 975 541 
L 3222 541 
z
" transform="scale(0.015625)"/>
       </defs>
       <use xlink:href="#ArialMT-32"/>
       <use xlink:href="#ArialMT-30" x="55.615234"/>
      </g>
     </g>
    </g>
    <g id="xtick_3">
     <g id="line2d_3">
      <path d="M 138.40375 295.26 
L 138.40375 16.92 
" clip-path="url(#p39ab4cc36c)" style="fill: none; stroke: #cccccc; stroke-width: 0.4; stroke-linecap: round"/>
     </g>
     <g id="text_3">
      <!-- 40 -->
      <g style="fill: #262626" transform="translate(132.286719 315.633594) scale(0.11 -0.11)">
       <defs>
        <path id="ArialMT-34" d="M 2069 0 
L 2069 1097 
L 81 1097 
L 81 1613 
L 2172 4581 
L 2631 4581 
L 2631 1613 
L 3250 1613 
L 3250 1097 
L 2631 1097 
L 2631 0 
L 2069 0 
z
M 2069 1613 
L 2069 3678 
L 634 1613 
L 2069 1613 
z
" transform="scale(0.015625)"/>
       </defs>
       <use xlink:href="#ArialMT-34"/>
       <use xlink:href="#ArialMT-30" x="55.615234"/>
      </g>
     </g>
    </g>
    <g id="xtick_4">
     <g id="line2d_4">
      <path d="M 181.2975 295.26 
L 181.2975 16.92 
" clip-path="url(#p39ab4cc36c)" style="fill: none; stroke: #cccccc; stroke-width: 0.4; stroke-linecap: round"/>
     </g>
     <g id="text_4">
      <!-- 60 -->
      <g style="fill: #262626" transform="translate(175.180469 315.633594) scale(0.11 -0.11)">
       <defs>
        <path id="ArialMT-36" d="M 3184 3459 
L 2625 3416 
Q 2550 3747 2413 3897 
Q 2184 4138 1850 4138 
Q 1581 4138 1378 3988 
Q 1113 3794 959 3422 
Q 806 3050 800 2363 
Q 1003 2672 1297 2822 
Q 1591 2972 1913 2972 
Q 2475 2972 2870 2558 
Q 3266 2144 3266 1488 
Q 3266 1056 3080 686 
Q 2894 316 2569 119 
Q 2244 -78 1831 -78 
Q 1128 -78 684 439 
Q 241 956 241 2144 
Q 241 3472 731 4075 
Q 1159 4600 1884 4600 
Q 2425 4600 2770 4297 
Q 3116 3994 3184 3459 
z
M 888 1484 
Q 888 1194 1011 928 
Q 1134 663 1356 523 
Q 1578 384 1822 384 
Q 2178 384 2434 671 
Q 2691 959 2691 1453 
Q 2691 1928 2437 2201 
Q 2184 2475 1800 2475 
Q 1419 2475 1153 2201 
Q 888 1928 888 1484 
z
" transform="scale(0.015625)"/>
       </defs>
       <use xlink:href="#ArialMT-36"/>
       <use xlink:href="#ArialMT-30" x="55.615234"/>
      </g>
     </g>
    </g>
    <g id="xtick_5">
     <g id="line2d_5">
      <path d="M 224.19125 295.26 
L 224.19125 16.92 
" clip-path="url(#p39ab4cc36c)" style="fill: none; stroke: #cccccc; stroke-width: 0.4; stroke-linecap: round"/>
     </g>
     <g id="text_5">
      <!-- 80 -->
      <g style="fill: #262626" transform="translate(218.074219 315.633594) scale(0.11 -0.11)">
       <defs>
        <path id="ArialMT-38" d="M 1131 2484 
Q 781 2613 612 2850 
Q 444 3088 444 3419 
Q 444 3919 803 4259 
Q 1163 4600 1759 4600 
Q 2359 4600 2725 4251 
Q 3091 3903 3091 3403 
Q 3091 3084 2923 2848 
Q 2756 2613 2416 2484 
Q 2838 2347 3058 2040 
Q 3278 1734 3278 1309 
Q 3278 722 2862 322 
Q 2447 -78 1769 -78 
Q 1091 -78 675 323 
Q 259 725 259 1325 
Q 259 1772 486 2073 
Q 713 2375 1131 2484 
z
M 1019 3438 
Q 1019 3113 1228 2906 
Q 1438 2700 1772 2700 
Q 2097 2700 2305 2904 
Q 2513 3109 2513 3406 
Q 2513 3716 2298 3927 
Q 2084 4138 1766 4138 
Q 1444 4138 1231 3931 
Q 1019 3725 1019 3438 
z
M 838 1322 
Q 838 1081 952 856 
Q 1066 631 1291 507 
Q 1516 384 1775 384 
Q 2178 384 2440 643 
Q 2703 903 2703 1303 
Q 2703 1709 2433 1975 
Q 2163 2241 1756 2241 
Q 1359 2241 1098 1978 
Q 838 1716 838 1322 
z
" transform="scale(0.015625)"/>
       </defs>
       <use xlink:href="#ArialMT-38"/>
       <use xlink:href="#ArialMT-30" x="55.615234"/>
      </g>
     </g>
    </g>
    <g id="xtick_6">
     <g id="line2d_6">
      <path d="M 267.085 295.26 
L 267.085 16.92 
" clip-path="url(#p39ab4cc36c)" style="fill: none; stroke: #cccccc; stroke-width: 0.4; stroke-linecap: round"/>
     </g>
     <g id="text_6">
      <!-- 100 -->
      <g style="fill: #262626" transform="translate(257.909453 315.633594) scale(0.11 -0.11)">
       <defs>
        <path id="ArialMT-31" d="M 2384 0 
L 1822 0 
L 1822 3584 
Q 1619 3391 1289 3197 
Q 959 3003 697 2906 
L 697 3450 
Q 1169 3672 1522 3987 
Q 1875 4303 2022 4600 
L 2384 4600 
L 2384 0 
z
" transform="scale(0.015625)"/>
       </defs>
       <use xlink:href="#ArialMT-31"/>
       <use xlink:href="#ArialMT-30" x="55.615234"/>
       <use xlink:href="#ArialMT-30" x="111.230469"/>
      </g>
     </g>
    </g>
    <g id="xtick_7">
     <g id="line2d_7">
      <path d="M 309.97875 295.26 
L 309.97875 16.92 
" clip-path="url(#p39ab4cc36c)" style="fill: none; stroke: #cccccc; stroke-width: 0.4; stroke-linecap: round"/>
     </g>
     <g id="text_7">
      <!-- 120 -->
      <g style="fill: #262626" transform="translate(300.803203 315.633594) scale(0.11 -0.11)">
       <use xlink:href="#ArialMT-31"/>
       <use xlink:href="#ArialMT-32" x="55.615234"/>
       <use xlink:href="#ArialMT-30" x="111.230469"/>
      </g>
     </g>
    </g>
    <g id="xtick_8">
     <g id="line2d_8">
      <path d="M 352.8725 295.26 
L 352.8725 16.92 
" clip-path="url(#p39ab4cc36c)" style="fill: none; stroke: #cccccc; stroke-width: 0.4; stroke-linecap: round"/>
     </g>
     <g id="text_8">
      <!-- 140 -->
      <g style="fill: #262626" transform="translate(343.696953 315.633594) scale(0.11 -0.11)">
       <use xlink:href="#ArialMT-31"/>
       <use xlink:href="#ArialMT-34" x="55.615234"/>
       <use xlink:href="#ArialMT-30" x="111.230469"/>
      </g>
     </g>
    </g>
    <g id="xtick_9">
     <g id="line2d_9">
      <path d="M 395.76625 295.26 
L 395.76625 16.92 
" clip-path="url(#p39ab4cc36c)" style="fill: none; stroke: #cccccc; stroke-width: 0.4; stroke-linecap: round"/>
     </g>
     <g id="text_9">
      <!-- 160 -->
      <g style="fill: #262626" transform="translate(386.590703 315.633594) scale(0.11 -0.11)">
       <use xlink:href="#ArialMT-31"/>
       <use xlink:href="#ArialMT-36" x="55.615234"/>
       <use xlink:href="#ArialMT-30" x="111.230469"/>
      </g>
     </g>
    </g>
    <g id="xtick_10">
     <g id="line2d_10">
      <path d="M 438.66 295.26 
L 438.66 16.92 
" clip-path="url(#p39ab4cc36c)" style="fill: none; stroke: #cccccc; stroke-width: 0.4; stroke-linecap: round"/>
     </g>
     <g id="text_10">
      <!-- 180 -->
      <g style="fill: #262626" transform="translate(429.484453 315.633594) scale(0.11 -0.11)">
       <use xlink:href="#ArialMT-31"/>
       <use xlink:href="#ArialMT-38" x="55.615234"/>
       <use xlink:href="#ArialMT-30" x="111.230469"/>
      </g>
     </g>
    </g>
    <g id="xtick_11">
     <g id="line2d_11">
      <path d="M 74.063125 295.26 
L 74.063125 16.92 
" clip-path="url(#p39ab4cc36c)" style="fill: none; stroke-dasharray: 0.2,0.33; stroke-dashoffset: 0; stroke: #cccccc; stroke-width: 0.2"/>
     </g>
    </g>
    <g id="xtick_12">
     <g id="line2d_12">
      <path d="M 116.956875 295.26 
L 116.956875 16.92 
" clip-path="url(#p39ab4cc36c)" style="fill: none; stroke-dasharray: 0.2,0.33; stroke-dashoffset: 0; stroke: #cccccc; stroke-width: 0.2"/>
     </g>
    </g>
    <g id="xtick_13">
     <g id="line2d_13">
      <path d="M 159.850625 295.26 
L 159.850625 16.92 
" clip-path="url(#p39ab4cc36c)" style="fill: none; stroke-dasharray: 0.2,0.33; stroke-dashoffset: 0; stroke: #cccccc; stroke-width: 0.2"/>
     </g>
    </g>
    <g id="xtick_14">
     <g id="line2d_14">
      <path d="M 202.744375 295.26 
L 202.744375 16.92 
" clip-path="url(#p39ab4cc36c)" style="fill: none; stroke-dasharray: 0.2,0.33; stroke-dashoffset: 0; stroke: #cccccc; stroke-width: 0.2"/>
     </g>
    </g>
    <g id="xtick_15">
     <g id="line2d_15">
      <path d="M 245.638125 295.26 
L 245.638125 16.92 
" clip-path="url(#p39ab4cc36c)" style="fill: none; stroke-dasharray: 0.2,0.33; stroke-dashoffset: 0; stroke: #cccccc; stroke-width: 0.2"/>
     </g>
    </g>
    <g id="xtick_16">
     <g id="line2d_16">
      <path d="M 288.531875 295.26 
L 288.531875 16.92 
" clip-path="url(#p39ab4cc36c)" style="fill: none; stroke-dasharray: 0.2,0.33; stroke-dashoffset: 0; stroke: #cccccc; stroke-width: 0.2"/>
     </g>
    </g>
    <g id="xtick_17">
     <g id="line2d_17">
      <path d="M 331.425625 295.26 
L 331.425625 16.92 
" clip-path="url(#p39ab4cc36c)" style="fill: none; stroke-dasharray: 0.2,0.33; stroke-dashoffset: 0; stroke: #cccccc; stroke-width: 0.2"/>
     </g>
    </g>
    <g id="xtick_18">
     <g id="line2d_18">
      <path d="M 374.319375 295.26 
L 374.319375 16.92 
" clip-path="url(#p39ab4cc36c)" style="fill: none; stroke-dasharray: 0.2,0.33; stroke-dashoffset: 0; stroke: #cccccc; stroke-width: 0.2"/>
     </g>
    </g>
    <g id="xtick_19">
     <g id="line2d_19">
      <path d="M 417.213125 295.26 
L 417.213125 16.92 
" clip-path="url(#p39ab4cc36c)" style="fill: none; stroke-dasharray: 0.2,0.33; stroke-dashoffset: 0; stroke: #cccccc; stroke-width: 0.2"/>
     </g>
    </g>
    <g id="text_11">
     <!-- Angle (degrees) -->
     <g style="fill: #262626" transform="translate(202.95 330.555469) scale(0.12 -0.12)">
      <defs>
       <path id="ArialMT-41" d="M -9 0 
L 1750 4581 
L 2403 4581 
L 4278 0 
L 3588 0 
L 3053 1388 
L 1138 1388 
L 634 0 
L -9 0 
z
M 1313 1881 
L 2866 1881 
L 2388 3150 
Q 2169 3728 2063 4100 
Q 1975 3659 1816 3225 
L 1313 1881 
z
" transform="scale(0.015625)"/>
       <path id="ArialMT-6e" d="M 422 0 
L 422 3319 
L 928 3319 
L 928 2847 
Q 1294 3394 1984 3394 
Q 2284 3394 2536 3286 
Q 2788 3178 2913 3003 
Q 3038 2828 3088 2588 
Q 3119 2431 3119 2041 
L 3119 0 
L 2556 0 
L 2556 2019 
Q 2556 2363 2490 2533 
Q 2425 2703 2258 2804 
Q 2091 2906 1866 2906 
Q 1506 2906 1245 2678 
Q 984 2450 984 1813 
L 984 0 
L 422 0 
z
" transform="scale(0.015625)"/>
       <path id="ArialMT-67" d="M 319 -275 
L 866 -356 
Q 900 -609 1056 -725 
Q 1266 -881 1628 -881 
Q 2019 -881 2231 -725 
Q 2444 -569 2519 -288 
Q 2563 -116 2559 434 
Q 2191 0 1641 0 
Q 956 0 581 494 
Q 206 988 206 1678 
Q 206 2153 378 2554 
Q 550 2956 876 3175 
Q 1203 3394 1644 3394 
Q 2231 3394 2613 2919 
L 2613 3319 
L 3131 3319 
L 3131 450 
Q 3131 -325 2973 -648 
Q 2816 -972 2473 -1159 
Q 2131 -1347 1631 -1347 
Q 1038 -1347 672 -1080 
Q 306 -813 319 -275 
z
M 784 1719 
Q 784 1066 1043 766 
Q 1303 466 1694 466 
Q 2081 466 2343 764 
Q 2606 1063 2606 1700 
Q 2606 2309 2336 2618 
Q 2066 2928 1684 2928 
Q 1309 2928 1046 2623 
Q 784 2319 784 1719 
z
" transform="scale(0.015625)"/>
       <path id="ArialMT-6c" d="M 409 0 
L 409 4581 
L 972 4581 
L 972 0 
L 409 0 
z
" transform="scale(0.015625)"/>
       <path id="ArialMT-65" d="M 2694 1069 
L 3275 997 
Q 3138 488 2766 206 
Q 2394 -75 1816 -75 
Q 1088 -75 661 373 
Q 234 822 234 1631 
Q 234 2469 665 2931 
Q 1097 3394 1784 3394 
Q 2450 3394 2872 2941 
Q 3294 2488 3294 1666 
Q 3294 1616 3291 1516 
L 816 1516 
Q 847 969 1125 678 
Q 1403 388 1819 388 
Q 2128 388 2347 550 
Q 2566 713 2694 1069 
z
M 847 1978 
L 2700 1978 
Q 2663 2397 2488 2606 
Q 2219 2931 1791 2931 
Q 1403 2931 1139 2672 
Q 875 2413 847 1978 
z
" transform="scale(0.015625)"/>
       <path id="ArialMT-20" transform="scale(0.015625)"/>
       <path id="ArialMT-28" d="M 1497 -1347 
Q 1031 -759 709 28 
Q 388 816 388 1659 
Q 388 2403 628 3084 
Q 909 3875 1497 4659 
L 1900 4659 
Q 1522 4009 1400 3731 
Q 1209 3300 1100 2831 
Q 966 2247 966 1656 
Q 966 153 1900 -1347 
L 1497 -1347 
z
" transform="scale(0.015625)"/>
       <path id="ArialMT-64" d="M 2575 0 
L 2575 419 
Q 2259 -75 1647 -75 
Q 1250 -75 917 144 
Q 584 363 401 755 
Q 219 1147 219 1656 
Q 219 2153 384 2558 
Q 550 2963 881 3178 
Q 1213 3394 1622 3394 
Q 1922 3394 2156 3267 
Q 2391 3141 2538 2938 
L 2538 4581 
L 3097 4581 
L 3097 0 
L 2575 0 
z
M 797 1656 
Q 797 1019 1065 703 
Q 1334 388 1700 388 
Q 2069 388 2326 689 
Q 2584 991 2584 1609 
Q 2584 2291 2321 2609 
Q 2059 2928 1675 2928 
Q 1300 2928 1048 2622 
Q 797 2316 797 1656 
z
" transform="scale(0.015625)"/>
       <path id="ArialMT-72" d="M 416 0 
L 416 3319 
L 922 3319 
L 922 2816 
Q 1116 3169 1280 3281 
Q 1444 3394 1641 3394 
Q 1925 3394 2219 3213 
L 2025 2691 
Q 1819 2813 1613 2813 
Q 1428 2813 1281 2702 
Q 1134 2591 1072 2394 
Q 978 2094 978 1738 
L 978 0 
L 416 0 
z
" transform="scale(0.015625)"/>
       <path id="ArialMT-73" d="M 197 991 
L 753 1078 
Q 800 744 1014 566 
Q 1228 388 1613 388 
Q 2000 388 2187 545 
Q 2375 703 2375 916 
Q 2375 1106 2209 1216 
Q 2094 1291 1634 1406 
Q 1016 1563 777 1677 
Q 538 1791 414 1992 
Q 291 2194 291 2438 
Q 291 2659 392 2848 
Q 494 3038 669 3163 
Q 800 3259 1026 3326 
Q 1253 3394 1513 3394 
Q 1903 3394 2198 3281 
Q 2494 3169 2634 2976 
Q 2775 2784 2828 2463 
L 2278 2388 
Q 2241 2644 2061 2787 
Q 1881 2931 1553 2931 
Q 1166 2931 1000 2803 
Q 834 2675 834 2503 
Q 834 2394 903 2306 
Q 972 2216 1119 2156 
Q 1203 2125 1616 2013 
Q 2213 1853 2448 1751 
Q 2684 1650 2818 1456 
Q 2953 1263 2953 975 
Q 2953 694 2789 445 
Q 2625 197 2315 61 
Q 2006 -75 1616 -75 
Q 969 -75 630 194 
Q 291 463 197 991 
z
" transform="scale(0.015625)"/>
       <path id="ArialMT-29" d="M 791 -1347 
L 388 -1347 
Q 1322 153 1322 1656 
Q 1322 2244 1188 2822 
Q 1081 3291 891 3722 
Q 769 4003 388 4659 
L 791 4659 
Q 1378 3875 1659 3084 
Q 1900 2403 1900 1659 
Q 1900 816 1576 28 
Q 1253 -759 791 -1347 
z
" transform="scale(0.015625)"/>
      </defs>
      <use xlink:href="#ArialMT-41"/>
      <use xlink:href="#ArialMT-6e" x="66.699219"/>
      <use xlink:href="#ArialMT-67" x="122.314453"/>
      <use xlink:href="#ArialMT-6c" x="177.929688"/>
      <use xlink:href="#ArialMT-65" x="200.146484"/>
      <use xlink:href="#ArialMT-20" x="255.761719"/>
      <use xlink:href="#ArialMT-28" x="283.544922"/>
      <use xlink:href="#ArialMT-64" x="316.845703"/>
      <use xlink:href="#ArialMT-65" x="372.460938"/>
      <use xlink:href="#ArialMT-67" x="428.076172"/>
      <use xlink:href="#ArialMT-72" x="483.691406"/>
      <use xlink:href="#ArialMT-65" x="516.992188"/>
      <use xlink:href="#ArialMT-65" x="572.607422"/>
      <use xlink:href="#ArialMT-73" x="628.222656"/>
      <use xlink:href="#ArialMT-29" x="678.222656"/>
     </g>
    </g>
   </g>
   <g id="matplotlib.axis_2">
    <g id="ytick_1">
     <g id="line2d_20">
      <path d="M 52.61625 295.26 
L 438.66 295.26 
" clip-path="url(#p39ab4cc36c)" style="fill: none; stroke: #cccccc; stroke-width: 0.4; stroke-linecap: round"/>
     </g>
     <g id="text_12">
      <!-- 0.0 -->
      <g style="fill: #262626" transform="translate(27.82625 299.196797) scale(0.11 -0.11)">
       <defs>
        <path id="ArialMT-2e" d="M 581 0 
L 581 641 
L 1222 641 
L 1222 0 
L 581 0 
z
" transform="scale(0.015625)"/>
       </defs>
       <use xlink:href="#ArialMT-30"/>
       <use xlink:href="#ArialMT-2e" x="55.615234"/>
       <use xlink:href="#ArialMT-30" x="83.398438"/>
      </g>
     </g>
    </g>
    <g id="ytick_2">
     <g id="line2d_21">
      <path d="M 52.61625 239.592 
L 438.66 239.592 
" clip-path="url(#p39ab4cc36c)" style="fill: none; stroke: #cccccc; stroke-width: 0.4; stroke-linecap: round"/>
     </g>
     <g id="text_13">
      <!-- 0.2 -->
      <g style="fill: #262626" transform="translate(27.82625 243.528797) scale(0.11 -0.11)">
       <use xlink:href="#ArialMT-30"/>
       <use xlink:href="#ArialMT-2e" x="55.615234"/>
       <use xlink:href="#ArialMT-32" x="83.398438"/>
      </g>
     </g>
    </g>
    <g id="ytick_3">
     <g id="line2d_22">
      <path d="M 52.61625 183.924 
L 438.66 183.924 
" clip-path="url(#p39ab4cc36c)" style="fill: none; stroke: #cccccc; stroke-width: 0.4; stroke-linecap: round"/>
     </g>
     <g id="text_14">
      <!-- 0.4 -->
      <g style="fill: #262626" transform="translate(27.82625 187.860797) scale(0.11 -0.11)">
       <use xlink:href="#ArialMT-30"/>
       <use xlink:href="#ArialMT-2e" x="55.615234"/>
       <use xlink:href="#ArialMT-34" x="83.398438"/>
      </g>
     </g>
    </g>
    <g id="ytick_4">
     <g id="line2d_23">
      <path d="M 52.61625 128.256 
L 438.66 128.256 
" clip-path="url(#p39ab4cc36c)" style="fill: none; stroke: #cccccc; stroke-width: 0.4; stroke-linecap: round"/>
     </g>
     <g id="text_15">
      <!-- 0.6 -->
      <g style="fill: #262626" transform="translate(27.82625 132.192797) scale(0.11 -0.11)">
       <use xlink:href="#ArialMT-30"/>
       <use xlink:href="#ArialMT-2e" x="55.615234"/>
       <use xlink:href="#ArialMT-36" x="83.398438"/>
      </g>
     </g>
    </g>
    <g id="ytick_5">
     <g id="line2d_24">
      <path d="M 52.61625 72.588 
L 438.66 72.588 
" clip-path="url(#p39ab4cc36c)" style="fill: none; stroke: #cccccc; stroke-width: 0.4; stroke-linecap: round"/>
     </g>
     <g id="text_16">
      <!-- 0.8 -->
      <g style="fill: #262626" transform="translate(27.82625 76.524797) scale(0.11 -0.11)">
       <use xlink:href="#ArialMT-30"/>
       <use xlink:href="#ArialMT-2e" x="55.615234"/>
       <use xlink:href="#ArialMT-38" x="83.398438"/>
      </g>
     </g>
    </g>
    <g id="ytick_6">
     <g id="line2d_25">
      <path d="M 52.61625 16.92 
L 438.66 16.92 
" clip-path="url(#p39ab4cc36c)" style="fill: none; stroke: #cccccc; stroke-width: 0.4; stroke-linecap: round"/>
     </g>
     <g id="text_17">
      <!-- 1.0 -->
      <g style="fill: #262626" transform="translate(27.82625 20.856797) scale(0.11 -0.11)">
       <use xlink:href="#ArialMT-31"/>
       <use xlink:href="#ArialMT-2e" x="55.615234"/>
       <use xlink:href="#ArialMT-30" x="83.398438"/>
      </g>
     </g>
    </g>
    <g id="ytick_7">
     <g id="line2d_26">
      <path d="M 52.61625 267.426 
L 438.66 267.426 
" clip-path="url(#p39ab4cc36c)" style="fill: none; stroke-dasharray: 0.2,0.33; stroke-dashoffset: 0; stroke: #cccccc; stroke-width: 0.2"/>
     </g>
    </g>
    <g id="ytick_8">
     <g id="line2d_27">
      <path d="M 52.61625 211.758 
L 438.66 211.758 
" clip-path="url(#p39ab4cc36c)" style="fill: none; stroke-dasharray: 0.2,0.33; stroke-dashoffset: 0; stroke: #cccccc; stroke-width: 0.2"/>
     </g>
    </g>
    <g id="ytick_9">
     <g id="line2d_28">
      <path d="M 52.61625 156.09 
L 438.66 156.09 
" clip-path="url(#p39ab4cc36c)" style="fill: none; stroke-dasharray: 0.2,0.33; stroke-dashoffset: 0; stroke: #cccccc; stroke-width: 0.2"/>
     </g>
    </g>
    <g id="ytick_10">
     <g id="line2d_29">
      <path d="M 52.61625 100.422 
L 438.66 100.422 
" clip-path="url(#p39ab4cc36c)" style="fill: none; stroke-dasharray: 0.2,0.33; stroke-dashoffset: 0; stroke: #cccccc; stroke-width: 0.2"/>
     </g>
    </g>
    <g id="ytick_11">
     <g id="line2d_30">
      <path d="M 52.61625 44.754 
L 438.66 44.754 
" clip-path="url(#p39ab4cc36c)" style="fill: none; stroke-dasharray: 0.2,0.33; stroke-dashoffset: 0; stroke: #cccccc; stroke-width: 0.2"/>
     </g>
    </g>
    <g id="text_18">
     <!-- Normalized Magnitude -->
     <g style="fill: #262626" transform="translate(21.300625 216.115312) rotate(-90) scale(0.12 -0.12)">
      <defs>
       <path id="ArialMT-4e" d="M 488 0 
L 488 4581 
L 1109 4581 
L 3516 984 
L 3516 4581 
L 4097 4581 
L 4097 0 
L 3475 0 
L 1069 3600 
L 1069 0 
L 488 0 
z
" transform="scale(0.015625)"/>
       <path id="ArialMT-6f" d="M 213 1659 
Q 213 2581 725 3025 
Q 1153 3394 1769 3394 
Q 2453 3394 2887 2945 
Q 3322 2497 3322 1706 
Q 3322 1066 3130 698 
Q 2938 331 2570 128 
Q 2203 -75 1769 -75 
Q 1072 -75 642 372 
Q 213 819 213 1659 
z
M 791 1659 
Q 791 1022 1069 705 
Q 1347 388 1769 388 
Q 2188 388 2466 706 
Q 2744 1025 2744 1678 
Q 2744 2294 2464 2611 
Q 2184 2928 1769 2928 
Q 1347 2928 1069 2612 
Q 791 2297 791 1659 
z
" transform="scale(0.015625)"/>
       <path id="ArialMT-6d" d="M 422 0 
L 422 3319 
L 925 3319 
L 925 2853 
Q 1081 3097 1340 3245 
Q 1600 3394 1931 3394 
Q 2300 3394 2536 3241 
Q 2772 3088 2869 2813 
Q 3263 3394 3894 3394 
Q 4388 3394 4653 3120 
Q 4919 2847 4919 2278 
L 4919 0 
L 4359 0 
L 4359 2091 
Q 4359 2428 4304 2576 
Q 4250 2725 4106 2815 
Q 3963 2906 3769 2906 
Q 3419 2906 3187 2673 
Q 2956 2441 2956 1928 
L 2956 0 
L 2394 0 
L 2394 2156 
Q 2394 2531 2256 2718 
Q 2119 2906 1806 2906 
Q 1569 2906 1367 2781 
Q 1166 2656 1075 2415 
Q 984 2175 984 1722 
L 984 0 
L 422 0 
z
" transform="scale(0.015625)"/>
       <path id="ArialMT-61" d="M 2588 409 
Q 2275 144 1986 34 
Q 1697 -75 1366 -75 
Q 819 -75 525 192 
Q 231 459 231 875 
Q 231 1119 342 1320 
Q 453 1522 633 1644 
Q 813 1766 1038 1828 
Q 1203 1872 1538 1913 
Q 2219 1994 2541 2106 
Q 2544 2222 2544 2253 
Q 2544 2597 2384 2738 
Q 2169 2928 1744 2928 
Q 1347 2928 1158 2789 
Q 969 2650 878 2297 
L 328 2372 
Q 403 2725 575 2942 
Q 747 3159 1072 3276 
Q 1397 3394 1825 3394 
Q 2250 3394 2515 3294 
Q 2781 3194 2906 3042 
Q 3031 2891 3081 2659 
Q 3109 2516 3109 2141 
L 3109 1391 
Q 3109 606 3145 398 
Q 3181 191 3288 0 
L 2700 0 
Q 2613 175 2588 409 
z
M 2541 1666 
Q 2234 1541 1622 1453 
Q 1275 1403 1131 1340 
Q 988 1278 909 1158 
Q 831 1038 831 891 
Q 831 666 1001 516 
Q 1172 366 1500 366 
Q 1825 366 2078 508 
Q 2331 650 2450 897 
Q 2541 1088 2541 1459 
L 2541 1666 
z
" transform="scale(0.015625)"/>
       <path id="ArialMT-69" d="M 425 3934 
L 425 4581 
L 988 4581 
L 988 3934 
L 425 3934 
z
M 425 0 
L 425 3319 
L 988 3319 
L 988 0 
L 425 0 
z
" transform="scale(0.015625)"/>
       <path id="ArialMT-7a" d="M 125 0 
L 125 456 
L 2238 2881 
Q 1878 2863 1603 2863 
L 250 2863 
L 250 3319 
L 2963 3319 
L 2963 2947 
L 1166 841 
L 819 456 
Q 1197 484 1528 484 
L 3063 484 
L 3063 0 
L 125 0 
z
" transform="scale(0.015625)"/>
       <path id="ArialMT-4d" d="M 475 0 
L 475 4581 
L 1388 4581 
L 2472 1338 
Q 2622 884 2691 659 
Q 2769 909 2934 1394 
L 4031 4581 
L 4847 4581 
L 4847 0 
L 4263 0 
L 4263 3834 
L 2931 0 
L 2384 0 
L 1059 3900 
L 1059 0 
L 475 0 
z
" transform="scale(0.015625)"/>
       <path id="ArialMT-74" d="M 1650 503 
L 1731 6 
Q 1494 -44 1306 -44 
Q 1000 -44 831 53 
Q 663 150 594 308 
Q 525 466 525 972 
L 525 2881 
L 113 2881 
L 113 3319 
L 525 3319 
L 525 4141 
L 1084 4478 
L 1084 3319 
L 1650 3319 
L 1650 2881 
L 1084 2881 
L 1084 941 
Q 1084 700 1114 631 
Q 1144 563 1211 522 
Q 1278 481 1403 481 
Q 1497 481 1650 503 
z
" transform="scale(0.015625)"/>
       <path id="ArialMT-75" d="M 2597 0 
L 2597 488 
Q 2209 -75 1544 -75 
Q 1250 -75 995 37 
Q 741 150 617 320 
Q 494 491 444 738 
Q 409 903 409 1263 
L 409 3319 
L 972 3319 
L 972 1478 
Q 972 1038 1006 884 
Q 1059 663 1231 536 
Q 1403 409 1656 409 
Q 1909 409 2131 539 
Q 2353 669 2445 892 
Q 2538 1116 2538 1541 
L 2538 3319 
L 3100 3319 
L 3100 0 
L 2597 0 
z
" transform="scale(0.015625)"/>
      </defs>
      <use xlink:href="#ArialMT-4e"/>
      <use xlink:href="#ArialMT-6f" x="72.216797"/>
      <use xlink:href="#ArialMT-72" x="127.832031"/>
      <use xlink:href="#ArialMT-6d" x="161.132812"/>
      <use xlink:href="#ArialMT-61" x="244.433594"/>
      <use xlink:href="#ArialMT-6c" x="300.048828"/>
      <use xlink:href="#ArialMT-69" x="322.265625"/>
      <use xlink:href="#ArialMT-7a" x="344.482422"/>
      <use xlink:href="#ArialMT-65" x="394.482422"/>
      <use xlink:href="#ArialMT-64" x="450.097656"/>
      <use xlink:href="#ArialMT-20" x="505.712891"/>
      <use xlink:href="#ArialMT-4d" x="533.496094"/>
      <use xlink:href="#ArialMT-61" x="616.796875"/>
      <use xlink:href="#ArialMT-67" x="672.412109"/>
      <use xlink:href="#ArialMT-6e" x="728.027344"/>
      <use xlink:href="#ArialMT-69" x="783.642578"/>
      <use xlink:href="#ArialMT-74" x="805.859375"/>
      <use xlink:href="#ArialMT-75" x="833.642578"/>
      <use xlink:href="#ArialMT-64" x="889.257812"/>
      <use xlink:href="#ArialMT-65" x="944.873047"/>
     </g>
    </g>
   </g>
   <g id="line2d_31">
    <path d="M 52.61625 190.026682 
L 64.204 190.121554 
L 66.993644 190.430526 
L 69.139523 190.871595 
L 71.070815 191.475757 
L 72.787519 192.219689 
L 74.504222 193.198008 
L 76.220926 194.45089 
L 77.723042 195.804992 
L 79.225158 197.429174 
L 80.727273 199.351233 
L 82.229389 201.597988 
L 83.946093 204.595341 
L 85.662797 208.082523 
L 87.3795 212.086126 
L 89.096204 216.624031 
L 91.027496 222.375701 
L 93.173375 229.554179 
L 95.533843 238.341321 
L 98.108899 248.821041 
L 102.400658 267.425782 
L 105.190302 279.051889 
L 106.477829 283.601882 
L 107.336181 285.900479 
L 107.979945 286.949683 
L 108.409121 287.223771 
L 108.838297 287.134727 
L 109.267473 286.714589 
L 109.911237 285.608823 
L 110.984177 283.050647 
L 116.563464 268.656257 
L 118.494755 263.671525 
L 119.782283 259.749142 
L 120.855223 255.827986 
L 121.928163 251.113264 
L 123.001103 245.451487 
L 124.28863 237.261458 
L 125.576158 227.470496 
L 127.078274 214.038744 
L 128.58039 198.583568 
L 130.511681 176.158684 
L 132.872149 145.915012 
L 138.451436 73.022239 
L 140.16814 53.919134 
L 141.455668 41.751066 
L 142.528608 33.382807 
L 143.386959 28.027335 
L 144.245311 23.993998 
L 144.889075 21.905677 
L 145.318251 20.984779 
L 145.747427 20.455677 
L 146.176603 20.330231 
L 146.605779 20.619556 
L 147.034955 21.333959 
L 147.464131 22.482894 
L 148.107895 25.03946 
L 148.751659 28.617417 
L 149.61001 35.009683 
L 150.468362 43.282142 
L 151.541302 56.282092 
L 152.614242 72.213263 
L 153.90177 95.089727 
L 155.189298 121.840023 
L 156.691413 157.465086 
L 158.622705 209.006078 
L 161.197761 280.962695 
L 161.412349 284.266422 
L 161.626936 284.191042 
L 162.056112 275.689053 
L 163.34364 238.581265 
L 166.347872 152.38911 
L 168.064575 109.071878 
L 169.566691 76.687077 
L 170.854219 53.89154 
L 171.927159 38.816478 
L 172.785511 29.498914 
L 173.643863 22.714482 
L 174.287626 19.321406 
L 174.716802 17.872808 
L 175.145978 17.075258 
L 175.360566 16.92 
L 175.575154 16.926469 
L 175.789742 17.094025 
L 176.218918 17.909132 
L 176.648094 19.357374 
L 177.291858 22.693959 
L 177.935622 27.387894 
L 178.793974 35.661788 
L 179.652326 46.091459 
L 180.725265 61.867784 
L 182.012793 84.236702 
L 183.729497 118.462233 
L 190.167136 252.288234 
L 191.240076 268.308535 
L 191.88384 275.119541 
L 192.313016 277.745518 
L 192.527604 278.345584 
L 192.742191 278.463293 
L 192.956779 278.142203 
L 193.385955 276.491851 
L 194.244307 271.30941 
L 195.317247 264.882756 
L 196.175599 261.041194 
L 196.819363 259.108631 
L 197.248539 258.28027 
L 197.677715 257.808699 
L 198.106891 257.67524 
L 198.536067 257.853671 
L 198.965242 258.310061 
L 199.609006 259.420905 
L 200.681946 261.924441 
L 201.540298 263.813602 
L 201.969474 264.456765 
L 202.39865 264.764108 
L 202.613238 264.763859 
L 203.042414 264.41326 
L 203.47159 263.565125 
L 203.900766 262.216752 
L 204.54453 259.335505 
L 205.402881 254.233112 
L 206.904997 243.485686 
L 208.836289 229.811678 
L 209.909229 223.539802 
L 210.767581 219.571181 
L 211.625932 216.690478 
L 212.269696 215.302143 
L 212.698872 214.758648 
L 213.128048 214.525534 
L 213.557224 214.604023 
L 213.9864 214.992901 
L 214.415576 215.688603 
L 215.05934 217.294097 
L 215.703104 219.547589 
L 216.561456 223.49165 
L 217.634395 229.761659 
L 218.921923 238.870357 
L 220.853215 254.555491 
L 223.857446 279.181052 
L 225.144974 288.077599 
L 225.788738 291.618737 
L 226.217914 292.914566 
L 226.432502 292.834181 
L 226.861678 291.596409 
L 228.149206 287.065308 
L 229.007558 284.872032 
L 229.651322 283.726931 
L 230.295085 282.962552 
L 230.938849 282.497781 
L 233.084729 281.32619 
L 233.728493 280.417647 
L 234.372257 279.009687 
L 235.016021 277.083271 
L 235.874373 273.809126 
L 237.1619 267.873514 
L 240.38072 252.546726 
L 241.45366 248.571432 
L 242.312012 246.112459 
L 242.955775 244.750264 
L 243.599539 243.83279 
L 244.028715 243.477822 
L 244.457891 243.332354 
L 244.887067 243.397969 
L 245.316243 243.674517 
L 245.960007 244.480318 
L 246.603771 245.742904 
L 247.462123 248.099067 
L 248.320475 251.15776 
L 249.393414 255.827371 
L 250.89553 263.544946 
L 255.616465 288.918878 
L 256.260229 291.31184 
L 256.689405 292.283061 
L 256.903993 292.4515 
L 257.118581 292.383964 
L 257.547757 291.735667 
L 259.479049 287.766764 
L 260.337401 286.685099 
L 260.981165 286.184485 
L 261.839516 285.821264 
L 263.341632 285.303278 
L 263.985396 284.75866 
L 264.62916 283.836867 
L 265.272924 282.486861 
L 266.131276 280.058987 
L 267.204216 276.248438 
L 269.350095 267.481339 
L 271.066799 260.811568 
L 272.354327 256.703788 
L 273.212679 254.577728 
L 274.07103 253.026781 
L 274.714794 252.272036 
L 275.358558 251.88315 
L 275.787734 251.830904 
L 276.21691 251.945018 
L 276.860674 252.426045 
L 277.504438 253.271427 
L 278.148202 254.467227 
L 279.006554 256.571977 
L 280.079493 259.934531 
L 281.367021 264.839259 
L 283.298313 273.305947 
L 286.087957 285.592334 
L 287.160896 289.476521 
L 287.80466 291.213569 
L 288.233836 291.91189 
L 288.663012 292.096716 
L 289.092188 291.811941 
L 289.735952 290.939578 
L 291.02348 289.136111 
L 291.881832 288.309721 
L 292.740183 287.811945 
L 294.027711 287.416808 
L 294.886063 287.060351 
L 295.529827 286.544372 
L 296.173591 285.706897 
L 296.817355 284.504781 
L 297.675707 282.357888 
L 298.748646 278.967764 
L 300.46535 272.57543 
L 303.469582 261.245557 
L 304.75711 257.21947 
L 305.830049 254.52339 
L 306.688401 252.876858 
L 307.546753 251.728212 
L 308.190517 251.210014 
L 308.834281 250.993424 
L 309.478045 251.080466 
L 310.121809 251.468987 
L 310.765573 252.152782 
L 311.623924 253.505845 
L 312.482276 255.33148 
L 313.555216 258.209296 
L 314.842744 262.392318 
L 316.559448 268.840396 
L 320.851207 285.407341 
L 321.924147 288.565045 
L 322.567911 289.941418 
L 322.997087 290.541424 
L 323.426263 290.839459 
L 323.855438 290.842945 
L 324.284614 290.614456 
L 325.142966 289.799252 
L 326.645082 288.335322 
L 327.718022 287.644805 
L 328.790962 287.235814 
L 330.507665 286.619523 
L 331.151429 286.166337 
L 331.795193 285.482158 
L 332.438957 284.52597 
L 333.297309 282.813659 
L 334.370249 280.037558 
L 335.657777 275.989344 
L 337.589068 269.071631 
L 341.022476 256.685564 
L 342.524591 252.041172 
L 343.812119 248.710173 
L 344.885059 246.47991 
L 345.957999 244.797297 
L 346.816351 243.867598 
L 347.460115 243.419831 
L 348.103879 243.187908 
L 348.747642 243.171531 
L 349.391406 243.368545 
L 350.03517 243.775009 
L 350.893522 244.632783 
L 351.751874 245.834902 
L 352.824814 247.787161 
L 354.112342 250.718062 
L 355.614457 254.809894 
L 357.545749 260.827227 
L 362.69586 277.423127 
L 363.983388 280.74698 
L 365.056328 282.939335 
L 365.91468 284.218481 
L 366.558444 284.873676 
L 367.202207 285.272429 
L 367.845971 285.442225 
L 368.704323 285.39295 
L 369.777263 285.070794 
L 372.137731 284.306177 
L 373.210671 284.198621 
L 374.28361 284.297146 
L 375.571138 284.650752 
L 378.146194 285.475533 
L 379.004546 285.456292 
L 379.648309 285.230666 
L 380.292073 284.784039 
L 380.935837 284.098588 
L 381.794189 282.815639 
L 382.867129 280.675364 
L 384.154657 277.466411 
L 385.656773 273.069524 
L 387.802652 265.990627 
L 391.23606 253.735225 
L 395.956995 237.006838 
L 398.746638 227.958359 
L 401.107106 221.038739 
L 403.252986 215.41529 
L 405.184277 210.924655 
L 407.115569 206.977658 
L 409.046861 203.561651 
L 410.763564 200.951109 
L 412.480268 198.716896 
L 414.196972 196.830982 
L 415.913676 195.262383 
L 417.630379 193.978378 
L 419.347083 192.945569 
L 421.278375 192.042662 
L 423.424254 191.307691 
L 425.784722 190.757992 
L 428.359778 190.388084 
L 431.793185 190.14013 
L 436.728708 190.032891 
L 438.66 190.026682 
L 438.66 190.026682 
" clip-path="url(#p39ab4cc36c)" style="fill: none; stroke: #4daf4a; stroke-width: 1.5; stroke-linecap: round"/>
   </g>
   <g id="patch_3">
    <path d="M 52.61625 295.26 
L 52.61625 16.92 
" style="fill: none; stroke: #cccccc; stroke-width: 1.25; stroke-linejoin: miter; stroke-linecap: square"/>
   </g>
   <g id="patch_4">
    <path d="M 438.66 295.26 
L 438.66 16.92 
" style="fill: none; stroke: #cccccc; stroke-width: 1.25; stroke-linejoin: miter; stroke-linecap: square"/>
   </g>
   <g id="patch_5">
    <path d="M 52.61625 298.26 
L 438.66 298.26 
" style="fill: none; stroke: #cccccc; stroke-width: 1.25; stroke-linejoin: miter; stroke-linecap: square"/>
   </g>
  </g>
 </g>
 <defs>
  <clipPath id="p39ab4cc36c">
   <rect x="52.61625" y="16.92" width="386.04375" height="278.34"/>
  </clipPath>
 </defs>
</svg>
